<svg id="_3" data-name=" 3" xmlns="http://www.w3.org/2000/svg" viewBox="0 0 478.58 551">
  <defs>
    <style>
      .cls-1 {
        fill: #24262b;
      }

      .cls-2 {
        fill: #f6e0c2;
      }

      .cls-3 {
        fill: #131419;
      }
    </style>
  </defs>
  <title>Artboard 1</title>
  <path class="cls-1" d="M167.23,205.73a31.18,31.18,0,0,0,3.86,4.1c1.31,37.84-2.29,97.07-4,115.45l106-.68c.19-1.94,3.13-33.67,4.26-70,6.7,5.81,13.47,11.58,20.13,17.47,22.35,19.72,50.42,0,46.62-27.13-3.43-24.41-4.28-49.21-10.89-73.08-8.82-31.76-54.71-21.93-54.78,6.74-.62-.66-1.24-1.25-1.83-1.92a31.91,31.91,0,0,0-3.64-3.43A53.22,53.22,0,0,0,194.79,148c-22.73-34.91-39.4-72.64-51.13-113.21C133.66.26,81.6,20.29,91.54,54.63,107.36,109.36,132.39,160.56,167.23,205.73Z"/>
  <path class="cls-2" d="M360.6,242.59c-1-7.27-1.83-14.83-2.62-22.14-1.86-17.34-3.78-35.26-8.72-53.08a43.18,43.18,0,0,0-19.1-25.78,28.9,28.9,0,0,0,7.58-10.11,24.51,24.51,0,0,0,10.3-20V80.18a24.49,24.49,0,0,0-10.34-20,28.64,28.64,0,0,0-6.41-9,81.57,81.57,0,0,0-151.36,0,28.74,28.74,0,0,0-6.45,9.06,24.43,24.43,0,0,0-3,2.56q-6-15.79-10.8-32.65c-5.37-18.51-20.22-30-38.78-30A49,49,0,0,0,82.55,19.49C73.92,31,71.43,45.1,75.53,59.27,92.36,117.5,118.77,170.2,154,215.91l.57.72c.72,36.84-2.51,89.95-4.09,107.11l-1.7,18.32,18.4-.11,106-.67,15.06-.1,1.43-15c0-.22,1.46-15.45,2.76-37.06a44.31,44.31,0,0,0,24.5,7.57,43.22,43.22,0,0,0,32.52-15.12A48.91,48.91,0,0,0,360.6,242.59ZM179.8,80.18a7.86,7.86,0,0,1,7.83-7.84v-.48a12,12,0,0,1,6.28-10.47,64.92,64.92,0,0,1,123.39,0,12,12,0,0,1,6.24,10.47v.48a7.86,7.86,0,0,1,7.83,7.84v31.34a7.84,7.84,0,0,1-7.83,7.83v.48a12,12,0,0,1-24,.46,49.28,49.28,0,0,1-26,23.78,70,70,0,0,0-50-21.14c-1.89,0-3.81.08-5.7.23-1.48.12-3,.29-4.43.5-.65-1.08-1.27-2.2-1.84-3.34a11.93,11.93,0,0,1-.8,3.78,69.84,69.84,0,0,0-9.65,2.52,385.48,385.48,0,0,1-21.29-41ZM251,147.27a49.17,49.17,0,0,1-21.61-7.34A53,53,0,0,1,251,147.27ZM317,280c-6.38,0-13.15-2.43-19.47-8-6.66-5.89-13.43-11.66-20.13-17.47-1.13,36.37-4.07,68.1-4.26,70l-106,.68c1.69-18.38,5.29-77.61,4-115.45a31.18,31.18,0,0,1-3.86-4.1c-34.84-45.17-59.87-96.37-75.69-151.1C85.29,32.81,103.92,16.78,121,16.78c9.82,0,19.1,5.33,22.76,18A445.78,445.78,0,0,0,163.13,89v22.44a24.27,24.27,0,0,0,7.06,17.31,25.39,25.39,0,0,0,3.21,2.74,28.74,28.74,0,0,0,37.15,14.81,65.58,65.58,0,0,0,54.72,17.11c.77-.11,1.54-.25,2.3-.39A53.85,53.85,0,0,1,273,173.21a31.91,31.91,0,0,1,3.64,3.43c.59.67,1.21,1.26,1.83,1.92,0-16.25,14.8-26.45,29.19-26.45,11,0,21.77,5.95,25.59,19.71,6.61,23.87,7.46,48.67,10.89,73.08,2.68,19.49-11,35.1-27.2,35.1Z"/>
  <path class="cls-2" d="M211.58,71.85V76a49.23,49.23,0,0,1,87.95,0V71.85A12,12,0,0,1,304.71,62a52.92,52.92,0,0,0-98.32,0A12.07,12.07,0,0,1,211.58,71.85Z"/>
  <path class="cls-3" d="M242,441.94l220-.11L439.88,341.72l-198.1.12-204.1-.12L16.62,441.83l225,.11H242Zm90-74.3c38.68,0,70,8.43,70,18.82s-31.36,18.84-70,18.84-70-8.43-70-18.84S293.32,367.64,332,367.64ZM151.55,405.3c-38.68,0-70-8.43-70-18.84s31.36-18.82,70-18.82,70,8.43,70,18.82S190.24,405.3,151.55,405.3Z"/>
  <polygon class="cls-1" points="241.98 448.63 241.58 448.63 16.64 448.63 16.66 534.33 238.58 534.33 238.98 534.33 461.9 534.33 461.91 448.63 241.98 448.63"/>
  <path class="cls-1" d="M187.59,119.35v.48a12,12,0,0,0,23.95.49,49.23,49.23,0,0,0,88,0,12,12,0,0,0,24-.46v-.48a7.84,7.84,0,0,0,7.83-7.83V80.18a7.86,7.86,0,0,0-7.83-7.84v-.48a12,12,0,0,0-6.24-10.47,64.92,64.92,0,0,0-123.39,0,12,12,0,0,0-6.28,10.47v.48a7.86,7.86,0,0,0-7.83,7.84v31.34a7.77,7.77,0,0,0,7.71,7.83Zm67.95-90.69A53,53,0,0,1,304.71,62a12,12,0,0,0-5.18,9.86V76a49.24,49.24,0,0,0-87.95,0V71.85A12.07,12.07,0,0,0,206.39,62,53,53,0,0,1,255.54,28.66Z"/>
  <path id="edit_me_man" data-name="edit me man" class="cls-2" d="M151.55,405.3c38.69,0,70-8.43,70-18.84s-31.36-18.82-70-18.82-70,8.43-70,18.82S112.87,405.3,151.55,405.3Z"/>
  <path id="edit_me_man-2" data-name="edit me man-2" class="cls-2" d="M332,405.3c38.68,0,70-8.43,70-18.84s-31.36-18.82-70-18.82-70,8.43-70,18.82S293.32,405.3,332,405.3Z"/>
  <path class="cls-2" d="M478.58,440.93v-.29h0L449.67,325l-207.9.13H24.37l-24,115.5L0,535.06.7,551H477.86l.7-15.94v-94ZM37.68,341.72l204.1.12,198.1-.12L459.76,432H18.7ZM239,534.33H16.66V458.5l224.92.12H242l219.93-.12v75.83Z"/>
</svg>
