<svg id="Layer_1" data-name="Layer 1" xmlns="http://www.w3.org/2000/svg" viewBox="0 0 425 84.4">
  <defs>
    <style>

     <!--  #Layer_1:hover #c137_pause .cls-1 { fill: red;
      }
 -->            #Layer_1:hover .cls-1 { fill: red;
      }
      .cls-1 {
        fill: #010101;
      }
    </style>
  </defs>
  <title>buttons</title>
  <g id="c137_pause" data-name="c137 pause">
    <path class="cls-1" d="M301.2,7a35.2,35.2,0,1,0,35.2,35.2A35.25,35.25,0,0,0,301.2,7Zm-4.6,52.5a.79.79,0,0,1-.8.8h-6.9a.79.79,0,0,1-.8-.8V25a.86.86,0,0,1,.8-.8h6.9a.86.86,0,0,1,.8.8Zm17.7,0a.79.79,0,0,1-.8.8h-6.9a.86.86,0,0,1-.8-.8V25a.86.86,0,0,1,.8-.8h6.9a.86.86,0,0,1,.8.8Z"/>
  </g>
  <g id="c139_stop" data-name="c139 stop">
    <path class="cls-1" d="M123.9,7a35.2,35.2,0,1,0,35.2,35.2A35.25,35.25,0,0,0,123.9,7Zm16.6,50a.68.68,0,0,1-.7.7H110.5a.68.68,0,0,1-.7-.7V27.5a.68.68,0,0,1,.7-.7h29.3a.68.68,0,0,1,.7.7Z"/>
  </g>
  <path class="cls-1" d="M389.9,7a35.2,35.2,0,1,0,35.2,35.2A35.25,35.25,0,0,0,389.9,7Zm6.6,37.9L377.7,60.6a1.91,1.91,0,0,1-1.8,0A1.7,1.7,0,0,1,375,59V27.7a1.92,1.92,0,0,1,.9-1.6,1.49,1.49,0,0,1,.9-.2,2.92,2.92,0,0,1,.9.2l18.8,15.7a1.7,1.7,0,0,1,.9,1.6A1.86,1.86,0,0,1,396.5,44.9ZM407,60.1a.68.68,0,0,1-.7.7h-6a.68.68,0,0,1-.7-.7V26.6a.68.68,0,0,1,.7-.7h6a.68.68,0,0,1,.7.7Z"/>
  <path class="cls-1" d="M0,42.2A35.2,35.2,0,1,0,35.2,7,35.25,35.25,0,0,0,0,42.2Zm27.7,1.2a1.92,1.92,0,0,1,.9-1.6L47.4,26.1a1.49,1.49,0,0,1,.9-.2,2.92,2.92,0,0,1,.9.2,1.7,1.7,0,0,1,.9,1.6V59a1.8,1.8,0,0,1-2.7,1.6L28.6,44.9A1.65,1.65,0,0,1,27.7,43.4ZM18.1,26.6a.68.68,0,0,1,.7-.7h6a.68.68,0,0,1,.7.7V60.1a.68.68,0,0,1-.7.7h-6a.68.68,0,0,1-.7-.7Z"/>
  <g id="play_alt">
    <path class="cls-1" d="M212.5,0a42.2,42.2,0,1,0,42.2,42.2A42.21,42.21,0,0,0,212.5,0ZM196.7,63.3V21.1l42.2,21.1Z"/>
  </g>
</svg>
