<?xml version="1.0" encoding="utf-8"?>
<!-- Generator: Adobe Illustrator 22.1.0, SVG Export Plug-In . SVG Version: 6.00 Build 0)  -->
<svg version="1.1" id="Layer_1" xmlns="http://www.w3.org/2000/svg" xmlns:xlink="http://www.w3.org/1999/xlink" x="0px" y="0px"
	 viewBox="0 0 425 84.4" style="enable-background:new 0 0 425 84.4;" xml:space="preserve">
<style type="text/css">
	.st0{fill:#010101;}
</style>
<g id="c137_pause">
	<path class="st0" d="M301.2,7C281.8,7,266,22.8,266,42.2c0,19.4,15.8,35.2,35.2,35.2c19.4,0,35.2-15.7,35.2-35.2
		C336.4,22.8,320.6,7,301.2,7z M296.6,59.5c0,0.5-0.4,0.8-0.8,0.8h-6.9c-0.5,0-0.8-0.4-0.8-0.8V25c0-0.4,0.4-0.8,0.8-0.8h6.9
		c0.4,0,0.8,0.4,0.8,0.8V59.5z M314.3,59.5c0,0.5-0.4,0.8-0.8,0.8h-6.9c-0.4,0-0.8-0.4-0.8-0.8V25c0-0.4,0.4-0.8,0.8-0.8h6.9
		c0.4,0,0.8,0.4,0.8,0.8V59.5z"/>
</g>
<g id="c139_stop">
	<path class="st0" d="M123.9,7c-19.4,0-35.2,15.8-35.2,35.2c0,19.4,15.7,35.2,35.2,35.2c19.4,0,35.2-15.8,35.2-35.2
		C159,22.8,143.3,7,123.9,7z M140.5,57c0,0.4-0.3,0.7-0.7,0.7h-29.3c-0.4,0-0.7-0.3-0.7-0.7V27.5c0-0.4,0.3-0.7,0.7-0.7h29.3
		c0.4,0,0.7,0.3,0.7,0.7V57z"/>
</g>
<path class="st0" d="M389.9,7c-19.4,0-35.2,15.8-35.2,35.2c0,19.4,15.8,35.2,35.2,35.2c19.4,0,35.2-15.8,35.2-35.2
	C425,22.8,409.3,7,389.9,7z M396.5,44.9l-18.8,15.7c-0.6,0.3-1.3,0.3-1.8,0c-0.6-0.3-0.9-0.9-0.9-1.6V27.7c0-0.6,0.3-1.2,0.9-1.6
	c0.3-0.2,0.6-0.2,0.9-0.2c0.3,0,0.6,0.1,0.9,0.2l18.8,15.7c0.6,0.3,0.9,0.9,0.9,1.6C397.4,44,397,44.6,396.5,44.9z M407,60.1
	c0,0.4-0.3,0.7-0.7,0.7h-6c-0.4,0-0.7-0.3-0.7-0.7V26.6c0-0.4,0.3-0.7,0.7-0.7h6c0.4,0,0.7,0.3,0.7,0.7V60.1z"/>
<path class="st0" d="M0,42.2c0,19.4,15.8,35.2,35.2,35.2s35.2-15.8,35.2-35.2C70.4,22.8,54.6,7,35.2,7S0,22.8,0,42.2z M27.7,43.4
	c0-0.6,0.3-1.2,0.9-1.6l18.8-15.7c0.3-0.2,0.6-0.2,0.9-0.2c0.3,0,0.6,0.1,0.9,0.2c0.6,0.3,0.9,0.9,0.9,1.6V59c0,0.6-0.3,1.2-0.9,1.6
	c-0.6,0.3-1.2,0.3-1.8,0L28.6,44.9C28,44.6,27.7,44,27.7,43.4z M18.1,26.6c0-0.4,0.3-0.7,0.7-0.7h6c0.4,0,0.7,0.3,0.7,0.7v33.5
	c0,0.4-0.3,0.7-0.7,0.7h-6c-0.4,0-0.7-0.3-0.7-0.7V26.6z"/>
<g id="play_x5F_alt">
	<path class="st0" d="M212.5,0c-23.3,0-42.2,18.9-42.2,42.2c0,23.3,18.9,42.2,42.2,42.2c23.3,0,42.2-18.9,42.2-42.2
		C254.7,18.9,235.8,0,212.5,0z M196.7,63.3V21.1l42.2,21.1L196.7,63.3z"/>
</g>
</svg>
