<?xml version="1.0" encoding="utf-8"?>
<!-- Generator: Adobe Illustrator 23.0.3, SVG Export Plug-In . SVG Version: 6.00 Build 0)  -->
<svg version="1.1" id="squares" xmlns="http://www.w3.org/2000/svg" xmlns:xlink="http://www.w3.org/1999/xlink" x="0px" y="0px"
	 viewBox="0 0 267.09 131.96" style="enable-background:new 0 0 267.09 131.96;" xml:space="preserve">
<style type="text/css">
	.st0{stroke:#000000;stroke-miterlimit:10;}
	.st1{fill:#A05EEC;stroke:#FFFFFF;stroke-miterlimit:10;}
	.st2{fill:#62EFE4;stroke:#FFFFFF;stroke-miterlimit:10;}
	.st3{fill:#E579E4;stroke:#FFFFFF;stroke-miterlimit:10;}
	.st4{fill:#E6F15B;stroke:#FFFFFF;stroke-miterlimit:10;}
	.st5{fill:#328F47;stroke:#FFFFFF;stroke-miterlimit:10;}
	.st6{fill:#EB79EB;stroke:#FFFFFF;stroke-miterlimit:10;}
	.st7{fill:#AE6BF1;stroke:#FFFFFF;stroke-miterlimit:10;}
	.st8{fill:#56ACF2;stroke:#FFFFFF;stroke-miterlimit:10;}
</style>
<rect x="0.5" y="0.5" class="st0" width="266.09" height="130.96"/>
<path id="_x31__x5F_purple" class="st1" d="M53.24,57.89H10.8c-2.64,0-4.78-2.14-4.78-4.78V9.02c0-2.64,2.14-4.78,4.78-4.78h42.43
	c2.64,0,4.78,2.14,4.78,4.78v44.09C58.02,55.75,55.88,57.89,53.24,57.89z"/>
<path id="_x32__x5F_green" class="st2" d="M122.52,57.89H80.09c-2.64,0-4.78-2.14-4.78-4.78V9.02c0-2.64,2.14-4.78,4.78-4.78h42.43
	c2.64,0,4.78,2.14,4.78,4.78v44.09C127.3,55.75,125.16,57.89,122.52,57.89z"/>
<path id="_x33__x5F_pink" class="st3" d="M190.72,57.89h-42.43c-2.64,0-4.78-2.14-4.78-4.78V9.02c0-2.64,2.14-4.78,4.78-4.78h42.43
	c2.64,0,4.78,2.14,4.78,4.78v44.09C195.5,55.75,193.36,57.89,190.72,57.89z"/>
<path id="_x34__x5F_yellow" class="st4" d="M259.59,57.89h-42.43c-2.64,0-4.78-2.14-4.78-4.78V9.02c0-2.64,2.14-4.78,4.78-4.78
	h42.43c2.64,0,4.78,2.14,4.78,4.78v44.09C264.37,55.75,262.23,57.89,259.59,57.89z"/>
<path id="_x35__x5F_green" class="st5" d="M53.24,127.8H10.8c-2.64,0-4.78-2.14-4.78-4.78V78.93c0-2.64,2.14-4.78,4.78-4.78h42.43
	c2.64,0,4.78,2.14,4.78,4.78v44.09C58.02,125.66,55.88,127.8,53.24,127.8z"/>
<path id="_x36__x5F_pink" class="st6" d="M122.52,127.8H80.09c-2.64,0-4.78-2.14-4.78-4.78V78.93c0-2.64,2.14-4.78,4.78-4.78h42.43
	c2.64,0,4.78,2.14,4.78,4.78v44.09C127.3,125.66,125.16,127.8,122.52,127.8z"/>
<path id="_x37__x5F_purple" class="st7" d="M190.72,127.8h-42.43c-2.64,0-4.78-2.14-4.78-4.78V78.93c0-2.64,2.14-4.78,4.78-4.78
	h42.43c2.64,0,4.78,2.14,4.78,4.78v44.09C195.5,125.66,193.36,127.8,190.72,127.8z"/>
<path id="_x38__x5F_blue" class="st8" d="M259.59,128.89h-42.43c-2.64,0-4.78-2.14-4.78-4.78V80.02c0-2.64,2.14-4.78,4.78-4.78
	h42.43c2.64,0,4.78,2.14,4.78,4.78v44.09C264.37,126.75,262.23,128.89,259.59,128.89z"/>
</svg>
