<svg id="squares" xmlns="http://www.w3.org/2000/svg" viewBox="0 0 267.09 131.96">
  <defs>
    <style>

    #squares:hover  #_1_purple  { fill: red;
      }
      #squares:hover  #_7_purple  { fill: red;
      }
      #squares:hover  #_2_green { fill: white;
      }
      #squares:hover  #_8_blue { fill: white;
      }


      .cls-1 {
        stroke: #000;
      }

      .cls-1, .cls-2, .cls-3, .cls-4, .cls-5, .cls-6, .cls-7, .cls-8, .cls-9 {
        stroke-miterlimit: 10;
      }

      .cls-2 {
        fill: #a05eec;
      }

      .cls-2, .cls-3, .cls-4, .cls-5, .cls-6, .cls-7, .cls-8, .cls-9 {
        stroke: #fff;
      }

      .cls-3 {
        fill: #62efe4;
      }

      .cls-4 {
        fill: #e579e4;
      }

      .cls-5 {
        fill: #e6f15b;
      }

      .cls-6 {
        fill: #328f47;
      }

      .cls-7 {
        fill: #eb79eb;
      }

      .cls-8 {
        fill: #ae6bf1;
      }

      .cls-9 {
        fill: #56acf2;
      }
    </style>
  </defs>
  <title>colouring_squares</title>
  <rect class="cls-1" x="0.5" y="0.5" width="266.09" height="130.96"/>
  <path id="_1_purple" data-name="1_purple" class="cls-2" d="M53.24,57.89H10.8A4.78,4.78,0,0,1,6,53.11V9A4.78,4.78,0,0,1,10.8,4.24H53.23A4.78,4.78,0,0,1,58,9V53.11A4.76,4.76,0,0,1,53.24,57.89Z"/>
  <path id="_2_green" data-name="2_green" class="cls-3" d="M122.52,57.89H80.09a4.78,4.78,0,0,1-4.78-4.78V9a4.78,4.78,0,0,1,4.78-4.78h42.43A4.78,4.78,0,0,1,127.3,9V53.11A4.78,4.78,0,0,1,122.52,57.89Z"/>
  <path id="_3_pink" data-name="3_pink" class="cls-4" d="M190.72,57.89H148.29a4.78,4.78,0,0,1-4.78-4.78V9a4.78,4.78,0,0,1,4.78-4.78h42.43A4.78,4.78,0,0,1,195.5,9V53.11A4.78,4.78,0,0,1,190.72,57.89Z"/>
  <path id="_4_yellow" data-name="4_yellow" class="cls-5" d="M259.59,57.89H217.16a4.78,4.78,0,0,1-4.78-4.78V9a4.78,4.78,0,0,1,4.78-4.78h42.43A4.78,4.78,0,0,1,264.37,9V53.11A4.78,4.78,0,0,1,259.59,57.89Z"/>
  <path id="_5_green" data-name="5_green" class="cls-6" d="M53.24,127.8H10.8A4.78,4.78,0,0,1,6,123V78.93a4.78,4.78,0,0,1,4.78-4.78H53.23A4.78,4.78,0,0,1,58,78.93V123A4.76,4.76,0,0,1,53.24,127.8Z"/>
  <path id="_6_pink" data-name="6_pink" class="cls-7" d="M122.52,127.8H80.09A4.78,4.78,0,0,1,75.31,123V78.93a4.78,4.78,0,0,1,4.78-4.78h42.43a4.78,4.78,0,0,1,4.78,4.78V123A4.78,4.78,0,0,1,122.52,127.8Z"/>
  <path id="_7_purple" data-name="7_purple" class="cls-8" d="M190.72,127.8H148.29a4.78,4.78,0,0,1-4.78-4.78V78.93a4.78,4.78,0,0,1,4.78-4.78h42.43a4.78,4.78,0,0,1,4.78,4.78V123A4.78,4.78,0,0,1,190.72,127.8Z"/>
  <path id="_8_blue" data-name="8_blue" class="cls-9" d="M259.59,128.89H217.16a4.78,4.78,0,0,1-4.78-4.78V80a4.78,4.78,0,0,1,4.78-4.78h42.43A4.78,4.78,0,0,1,264.37,80v44.09A4.78,4.78,0,0,1,259.59,128.89Z"/>
</svg>
