<?xml version="1.0" encoding="utf-8"?>
<!-- Generator: Adobe Illustrator 23.0.3, SVG Export Plug-In . SVG Version: 6.00 Build 0)  -->
<svg version="1.1" id="Layer_1" xmlns="http://www.w3.org/2000/svg" xmlns:xlink="http://www.w3.org/1999/xlink" x="0px" y="0px"
	 viewBox="0 0 264.63 225.78" style="enable-background:new 0 0 264.63 225.78;" xml:space="preserve">
<style type="text/css">
	.st0{fill:#73C7FB;}
	.st1{fill:#85DBFD;}
	.st2{fill:#321D62;}
	.st3{fill:#D3C7DD;}
	.st4{fill:#8F50BC;}
</style>
<ellipse id="large_x5F_dj" class="st0" cx="126" cy="112.89" rx="126" ry="112.89"/>
<ellipse id="medium_x5F_dj" class="st1" cx="124.75" cy="90.86" rx="75.52" ry="66.13"/>
<ellipse id="small_x5F_dj" class="st2" cx="126.65" cy="103.59" rx="61.83" ry="54.11"/>
<g id="CIRCLES_x5F_BOTTOM">
	<circle id="LARGEST" class="st3" cx="123.86" cy="165.08" r="2.79"/>
	<circle id="LARGE" class="st3" cx="123.86" cy="172.09" r="2.14"/>
	<circle id="MEDIUM" class="st3" cx="123.86" cy="177.52" r="1.74"/>
	<circle id="SMALLEST" class="st3" cx="123.86" cy="185.54" r="0.89"/>
	<circle id="SMALL" class="st3" cx="123.94" cy="181.85" r="1.12"/>
</g>
<g id="CIRCLES_x5F_LEFT">
	<circle id="LARGEST_1_" class="st3" cx="42.77" cy="86.48" r="2.79"/>
	<circle id="LARGE_1_" class="st3" cx="35.78" cy="86" r="2.14"/>
	<circle id="MEDIUM_1_" class="st3" cx="30.36" cy="85.63" r="1.74"/>
	<circle id="SMALLEST_1_" class="st3" cx="22.36" cy="85.08" r="0.89"/>
	<circle id="SMALL_1_" class="st3" cx="26.03" cy="85.41" r="1.12"/>
</g>
<g id="CIRCLES_x5F_RIGHT">
	<circle id="LARGEST_2_" class="st3" cx="208.86" cy="86.14" r="2.79"/>
	<circle id="LARGE_2_" class="st3" cx="215.84" cy="86.62" r="2.14"/>
	<circle id="MEDIUM_2_" class="st3" cx="221.26" cy="86.99" r="1.74"/>
	<circle id="SMALLEST_2_" class="st3" cx="229.27" cy="87.54" r="0.89"/>
	<circle id="SMALL_2_" class="st3" cx="225.59" cy="87.21" r="1.12"/>
</g>
<path class="st4" d="M154.55,86.35c0,0-6.36-2.93-6.36-3.33c0,0-4.6,0.29-6.16,0.83c0,0-4.26,0.83-7.83-3.77
	c0,0-1.91-2.98-1.03-4.94c0,0,1.71-2.45,4.74-2.45l0.78-0.2l5.04-1.42c0,0,1.27-1.03,4.69-1.17h4.08c0,0,9.42,0.86,10.16,0.42
	c0,0,5.09-0.59,6.75,0.24c0,0,1.37,0.27,4.5,3.42c0,0,7.34,7.68,7.65,8.51c0,0,5.53,6.63,5.97,7.31c0,0,2.45,3.3,2.91,3.64
	l0.24,0.34c0,0,7.9,0,8.9-0.29c0,0,6.29-0.49,7.19-0.2c0,0,6.92,0.02,10.52,3.72c0,0,4.65,0.56,6.75,2.76c0,0,5.04,2.74,5.58,4.79
	c0,0,3.57,10.86,4.89,11.54c0,0,8.9,17.66,9.29,17.76c0,0,8.54-1.69,13.13,3.33l7.68,8.12c0,0-10.93,0.98-18.68,6.7
	c0,0-15.33,11.49-18.95,18.83c0,0-14.97,21.52-12.82,36.39l-8.66-9.15c0,0-4.55-6.55-3.13-14.43c0,0-13.34-7.47-14.18-8.64
	c0,0-6.98-6.85-9.46-6.98c0,0-7.76-3.85-8.74-4.04c0,0-9-5.02-12.07-5.8c0,0-15.52-4.04-15.78-4.7c0,0-4.63-5.02-5.54-6.52
	c0,0-19.63-2.67-7.43-11.67c0,0,9.07-5.09,21.2,2.02c0,0,12.91,2.09,14.15,1.83h4.43c0,0,4.96-0.26,7.76-5.09
	c0,0,2.38-3.33,2.58-4.06c0,0,1.17-4.26,0.34-5.67c0,0-5.33-18.2-6.26-19.13c0,0-6.02-7.78-7.43-8.51c0,0-4.74-5.53-4.99-8.27
	l-0.59-1.37c0,0-0.15-0.24-1.22-0.2L154.55,86.35z"/>
</svg>
