<?xml version="1.0" encoding="utf-8"?>
<!-- Generator: Adobe Illustrator 22.1.0, SVG Export Plug-In . SVG Version: 6.00 Build 0)  -->
<svg version="1.1" id="dj_x5F_lights" xmlns="http://www.w3.org/2000/svg" xmlns:xlink="http://www.w3.org/1999/xlink" x="0px"
	 y="0px" viewBox="0 0 504 288" style="enable-background:new 0 0 504 288;" xml:space="preserve">
<style type="text/css">
	.st0{clip-path:url(#SVGID_2_);fill:url(#SVGID_3_);}
	.st1{clip-path:url(#SVGID_2_);fill:url(#SVGID_4_);}
	.st2{clip-path:url(#SVGID_2_);}
	
		.st3{opacity:2.360000e-04;fill:none;stroke:#FF2748;stroke-width:29.0993;stroke-linecap:round;stroke-linejoin:round;stroke-miterlimit:10;}
	
		.st4{opacity:7.110000e-04;fill:none;stroke:#FF2748;stroke-width:27.9801;stroke-linecap:round;stroke-linejoin:round;stroke-miterlimit:10;}
	
		.st5{opacity:1.425000e-03;fill:none;stroke:#FF2748;stroke-width:26.8609;stroke-linecap:round;stroke-linejoin:round;stroke-miterlimit:10;}
	
		.st6{opacity:2.385000e-03;fill:none;stroke:#FF2748;stroke-width:25.7417;stroke-linecap:round;stroke-linejoin:round;stroke-miterlimit:10;}
	
		.st7{opacity:3.594000e-03;fill:none;stroke:#FF2748;stroke-width:24.6225;stroke-linecap:round;stroke-linejoin:round;stroke-miterlimit:10;}
	
		.st8{opacity:5.062000e-03;fill:none;stroke:#FF2748;stroke-width:23.5033;stroke-linecap:round;stroke-linejoin:round;stroke-miterlimit:10;}
	
		.st9{opacity:6.798000e-03;fill:none;stroke:#FF2748;stroke-width:22.3841;stroke-linecap:round;stroke-linejoin:round;stroke-miterlimit:10;}
	
		.st10{opacity:8.813000e-03;fill:none;stroke:#FF2748;stroke-width:21.2648;stroke-linecap:round;stroke-linejoin:round;stroke-miterlimit:10;}
	
		.st11{opacity:1.112200e-02;fill:none;stroke:#FF2748;stroke-width:20.1456;stroke-linecap:round;stroke-linejoin:round;stroke-miterlimit:10;}
	
		.st12{opacity:1.374400e-02;fill:none;stroke:#FF2748;stroke-width:19.0264;stroke-linecap:round;stroke-linejoin:round;stroke-miterlimit:10;}
	
		.st13{opacity:1.670100e-02;fill:none;stroke:#FF2748;stroke-width:17.9072;stroke-linecap:round;stroke-linejoin:round;stroke-miterlimit:10;}
	
		.st14{opacity:2.002200e-02;fill:none;stroke:#FF2748;stroke-width:16.788;stroke-linecap:round;stroke-linejoin:round;stroke-miterlimit:10;}
	
		.st15{opacity:2.374200e-02;fill:none;stroke:#FF2748;stroke-width:15.6688;stroke-linecap:round;stroke-linejoin:round;stroke-miterlimit:10;}
	
		.st16{opacity:2.790700e-02;fill:none;stroke:#FF2748;stroke-width:14.5496;stroke-linecap:round;stroke-linejoin:round;stroke-miterlimit:10;}
	
		.st17{opacity:3.257600e-02;fill:none;stroke:#FF2748;stroke-width:13.4304;stroke-linecap:round;stroke-linejoin:round;stroke-miterlimit:10;}
	
		.st18{opacity:3.782900e-02;fill:none;stroke:#FF2748;stroke-width:12.3112;stroke-linecap:round;stroke-linejoin:round;stroke-miterlimit:10;}
	
		.st19{opacity:4.378000e-02;fill:none;stroke:#FF2748;stroke-width:11.192;stroke-linecap:round;stroke-linejoin:round;stroke-miterlimit:10;}
	
		.st20{opacity:5.059200e-02;fill:none;stroke:#FF2748;stroke-width:10.0728;stroke-linecap:round;stroke-linejoin:round;stroke-miterlimit:10;}
	
		.st21{opacity:5.852300e-02;fill:none;stroke:#FF2748;stroke-width:8.9536;stroke-linecap:round;stroke-linejoin:round;stroke-miterlimit:10;}
	
		.st22{opacity:6.802300e-02;fill:none;stroke:#FF2748;stroke-width:7.8344;stroke-linecap:round;stroke-linejoin:round;stroke-miterlimit:10;}
	
		.st23{opacity:8.001200e-02;fill:none;stroke:#FF2748;stroke-width:6.7152;stroke-linecap:round;stroke-linejoin:round;stroke-miterlimit:10;}
	
		.st24{opacity:9.707300e-02;fill:none;stroke:#FF2748;stroke-width:5.596;stroke-linecap:round;stroke-linejoin:round;stroke-miterlimit:10;}
	
		.st25{opacity:0.1529;fill:none;stroke:#FF2748;stroke-width:4.4768;stroke-linecap:round;stroke-linejoin:round;stroke-miterlimit:10;}
	.st26{fill:none;stroke:#FF2748;stroke-width:3.3576;stroke-linecap:round;stroke-linejoin:round;stroke-miterlimit:10;}
	.st27{fill:none;stroke:#FFE2E6;stroke-width:2.0146;stroke-linecap:round;stroke-linejoin:round;stroke-miterlimit:10;}
	.st28{fill:none;stroke:#FFFFFF;stroke-width:0.6715;stroke-linecap:round;stroke-linejoin:round;stroke-miterlimit:10;}
	
		.st29{opacity:2.360000e-04;fill:none;stroke:#0055D7;stroke-width:29.0993;stroke-linecap:round;stroke-linejoin:round;stroke-miterlimit:10;}
	
		.st30{opacity:7.110000e-04;fill:none;stroke:#0055D7;stroke-width:27.9801;stroke-linecap:round;stroke-linejoin:round;stroke-miterlimit:10;}
	
		.st31{opacity:1.425000e-03;fill:none;stroke:#0055D7;stroke-width:26.8609;stroke-linecap:round;stroke-linejoin:round;stroke-miterlimit:10;}
	
		.st32{opacity:2.385000e-03;fill:none;stroke:#0055D7;stroke-width:25.7417;stroke-linecap:round;stroke-linejoin:round;stroke-miterlimit:10;}
	
		.st33{opacity:3.594000e-03;fill:none;stroke:#0055D7;stroke-width:24.6225;stroke-linecap:round;stroke-linejoin:round;stroke-miterlimit:10;}
	
		.st34{opacity:5.062000e-03;fill:none;stroke:#0055D7;stroke-width:23.5033;stroke-linecap:round;stroke-linejoin:round;stroke-miterlimit:10;}
	
		.st35{opacity:6.798000e-03;fill:none;stroke:#0055D7;stroke-width:22.3841;stroke-linecap:round;stroke-linejoin:round;stroke-miterlimit:10;}
	
		.st36{opacity:8.813000e-03;fill:none;stroke:#0055D7;stroke-width:21.2648;stroke-linecap:round;stroke-linejoin:round;stroke-miterlimit:10;}
	
		.st37{opacity:1.112200e-02;fill:none;stroke:#0055D7;stroke-width:20.1456;stroke-linecap:round;stroke-linejoin:round;stroke-miterlimit:10;}
	
		.st38{opacity:1.374400e-02;fill:none;stroke:#0055D7;stroke-width:19.0264;stroke-linecap:round;stroke-linejoin:round;stroke-miterlimit:10;}
	
		.st39{opacity:1.670100e-02;fill:none;stroke:#0055D7;stroke-width:17.9072;stroke-linecap:round;stroke-linejoin:round;stroke-miterlimit:10;}
	
		.st40{opacity:2.002200e-02;fill:none;stroke:#0055D7;stroke-width:16.788;stroke-linecap:round;stroke-linejoin:round;stroke-miterlimit:10;}
	
		.st41{opacity:2.374200e-02;fill:none;stroke:#0055D7;stroke-width:15.6688;stroke-linecap:round;stroke-linejoin:round;stroke-miterlimit:10;}
	
		.st42{opacity:2.790700e-02;fill:none;stroke:#0055D7;stroke-width:14.5496;stroke-linecap:round;stroke-linejoin:round;stroke-miterlimit:10;}
	
		.st43{opacity:3.257600e-02;fill:none;stroke:#0055D7;stroke-width:13.4304;stroke-linecap:round;stroke-linejoin:round;stroke-miterlimit:10;}
	
		.st44{opacity:3.782900e-02;fill:none;stroke:#0055D7;stroke-width:12.3112;stroke-linecap:round;stroke-linejoin:round;stroke-miterlimit:10;}
	
		.st45{opacity:4.378000e-02;fill:none;stroke:#0055D7;stroke-width:11.192;stroke-linecap:round;stroke-linejoin:round;stroke-miterlimit:10;}
	
		.st46{opacity:5.059200e-02;fill:none;stroke:#0055D7;stroke-width:10.0728;stroke-linecap:round;stroke-linejoin:round;stroke-miterlimit:10;}
	
		.st47{opacity:5.852300e-02;fill:none;stroke:#0055D7;stroke-width:8.9536;stroke-linecap:round;stroke-linejoin:round;stroke-miterlimit:10;}
	
		.st48{opacity:6.802300e-02;fill:none;stroke:#0055D7;stroke-width:7.8344;stroke-linecap:round;stroke-linejoin:round;stroke-miterlimit:10;}
	
		.st49{opacity:8.001200e-02;fill:none;stroke:#0055D7;stroke-width:6.7152;stroke-linecap:round;stroke-linejoin:round;stroke-miterlimit:10;}
	
		.st50{opacity:9.707300e-02;fill:none;stroke:#0055D7;stroke-width:5.596;stroke-linecap:round;stroke-linejoin:round;stroke-miterlimit:10;}
	
		.st51{opacity:0.1529;fill:none;stroke:#0055D7;stroke-width:4.4768;stroke-linecap:round;stroke-linejoin:round;stroke-miterlimit:10;}
	.st52{fill:none;stroke:#0055D7;stroke-width:3.3576;stroke-linecap:round;stroke-linejoin:round;stroke-miterlimit:10;}
	.st53{fill:none;stroke:#DDE8FA;stroke-width:2.0146;stroke-linecap:round;stroke-linejoin:round;stroke-miterlimit:10;}
</style>
<g id="clipping">
	<defs>
		<rect id="SVGID_1_" width="504" height="288"/>
	</defs>
	<use xlink:href="#SVGID_1_"  style="overflow:visible;fill:#0A0026;"/>
	<clipPath id="SVGID_2_">
		<use xlink:href="#SVGID_1_"  style="overflow:visible;"/>
	</clipPath>
	
		<radialGradient id="SVGID_3_" cx="-467.1396" cy="-137.1361" r="108.8513" gradientTransform="matrix(1.4948 0 0 1.2044 844.8314 309.399)" gradientUnits="userSpaceOnUse">
		<stop  offset="0" style="stop-color:#B70009"/>
		<stop  offset="5.579513e-02" style="stop-color:#A50008"/>
		<stop  offset="0.2278" style="stop-color:#730006"/>
		<stop  offset="0.398" style="stop-color:#4A0004"/>
		<stop  offset="0.5629" style="stop-color:#2A0002"/>
		<stop  offset="0.7213" style="stop-color:#130001"/>
		<stop  offset="0.8702" style="stop-color:#050000"/>
		<stop  offset="1" style="stop-color:#000000"/>
	</radialGradient>
	<ellipse class="st0" cx="146.6" cy="144.2" rx="162.7" ry="131.1"/>
	
		<radialGradient id="SVGID_4_" cx="-313.157" cy="-137.1361" r="108.8513" gradientTransform="matrix(1.4948 0 0 1.2044 844.8314 309.399)" gradientUnits="userSpaceOnUse">
		<stop  offset="0" style="stop-color:#006EB0"/>
		<stop  offset="3.502095e-02" style="stop-color:#0067A5"/>
		<stop  offset="0.2108" style="stop-color:#004873"/>
		<stop  offset="0.3847" style="stop-color:#002E4A"/>
		<stop  offset="0.5533" style="stop-color:#001A2A"/>
		<stop  offset="0.7151" style="stop-color:#000C13"/>
		<stop  offset="0.8673" style="stop-color:#000305"/>
		<stop  offset="1" style="stop-color:#000000"/>
	</radialGradient>
	<ellipse class="st1" cx="376.7" cy="144.2" rx="162.7" ry="131.1"/>
	<g id="red_x5F_lights" class="st2">
		<g>
			<polyline class="st3" points="176.5,200.7 199,144 176.5,87.3 			"/>
			<polyline class="st4" points="176.5,200.7 199,144 176.5,87.3 			"/>
			<polyline class="st5" points="176.5,200.7 199,144 176.5,87.3 			"/>
			<polyline class="st6" points="176.5,200.7 199,144 176.5,87.3 			"/>
			<polyline class="st7" points="176.5,200.7 199,144 176.5,87.3 			"/>
			<polyline class="st8" points="176.5,200.7 199,144 176.5,87.3 			"/>
			<polyline class="st9" points="176.5,200.7 199,144 176.5,87.3 			"/>
			<polyline class="st10" points="176.5,200.7 199,144 176.5,87.3 			"/>
			<polyline class="st11" points="176.5,200.7 199,144 176.5,87.3 			"/>
			<polyline class="st12" points="176.5,200.7 199,144 176.5,87.3 			"/>
			<polyline class="st13" points="176.5,200.7 199,144 176.5,87.3 			"/>
			<polyline class="st14" points="176.5,200.7 199,144 176.5,87.3 			"/>
			<polyline class="st15" points="176.5,200.7 199,144 176.5,87.3 			"/>
			<polyline class="st16" points="176.5,200.7 199,144 176.5,87.3 			"/>
			<polyline class="st17" points="176.5,200.7 199,144 176.5,87.3 			"/>
			<polyline class="st18" points="176.5,200.7 199,144 176.5,87.3 			"/>
			<polyline class="st19" points="176.5,200.7 199,144 176.5,87.3 			"/>
			<polyline class="st20" points="176.5,200.7 199,144 176.5,87.3 			"/>
			<polyline class="st21" points="176.5,200.7 199,144 176.5,87.3 			"/>
			<polyline class="st22" points="176.5,200.7 199,144 176.5,87.3 			"/>
			<polyline class="st23" points="176.5,200.7 199,144 176.5,87.3 			"/>
			<polyline class="st24" points="176.5,200.7 199,144 176.5,87.3 			"/>
			<polyline class="st25" points="176.5,200.7 199,144 176.5,87.3 			"/>
			<polyline class="st26" points="176.5,200.7 199,144 176.5,87.3 			"/>
			<polyline class="st27" points="176.5,200.7 199,144 176.5,87.3 			"/>
			<polyline class="st28" points="176.5,200.7 199,144 176.5,87.3 			"/>
		</g>
		<g>
			<polyline class="st3" points="162.4,207.1 189.8,144 162.4,80.9 			"/>
			<polyline class="st4" points="162.4,207.1 189.8,144 162.4,80.9 			"/>
			<polyline class="st5" points="162.4,207.1 189.8,144 162.4,80.9 			"/>
			<polyline class="st6" points="162.4,207.1 189.8,144 162.4,80.9 			"/>
			<polyline class="st7" points="162.4,207.1 189.8,144 162.4,80.9 			"/>
			<polyline class="st8" points="162.4,207.1 189.8,144 162.4,80.9 			"/>
			<polyline class="st9" points="162.4,207.1 189.8,144 162.4,80.9 			"/>
			<polyline class="st10" points="162.4,207.1 189.8,144 162.4,80.9 			"/>
			<polyline class="st11" points="162.4,207.1 189.8,144 162.4,80.9 			"/>
			<polyline class="st12" points="162.4,207.1 189.8,144 162.4,80.9 			"/>
			<polyline class="st13" points="162.4,207.1 189.8,144 162.4,80.9 			"/>
			<polyline class="st14" points="162.4,207.1 189.8,144 162.4,80.9 			"/>
			<polyline class="st15" points="162.4,207.1 189.8,144 162.4,80.9 			"/>
			<polyline class="st16" points="162.4,207.1 189.8,144 162.4,80.9 			"/>
			<polyline class="st17" points="162.4,207.1 189.8,144 162.4,80.9 			"/>
			<polyline class="st18" points="162.4,207.1 189.8,144 162.4,80.9 			"/>
			<polyline class="st19" points="162.4,207.1 189.8,144 162.4,80.9 			"/>
			<polyline class="st20" points="162.4,207.1 189.8,144 162.4,80.9 			"/>
			<polyline class="st21" points="162.4,207.1 189.8,144 162.4,80.9 			"/>
			<polyline class="st22" points="162.4,207.1 189.8,144 162.4,80.9 			"/>
			<polyline class="st23" points="162.4,207.1 189.8,144 162.4,80.9 			"/>
			<polyline class="st24" points="162.4,207.1 189.8,144 162.4,80.9 			"/>
			<polyline class="st25" points="162.4,207.1 189.8,144 162.4,80.9 			"/>
			<polyline class="st26" points="162.4,207.1 189.8,144 162.4,80.9 			"/>
			<polyline class="st27" points="162.4,207.1 189.8,144 162.4,80.9 			"/>
			<polyline class="st28" points="162.4,207.1 189.8,144 162.4,80.9 			"/>
		</g>
		<g>
			<polyline class="st3" points="144.7,215.2 178.7,144 144.7,72.8 			"/>
			<polyline class="st4" points="144.7,215.2 178.7,144 144.7,72.8 			"/>
			<polyline class="st5" points="144.7,215.2 178.7,144 144.7,72.8 			"/>
			<polyline class="st6" points="144.7,215.2 178.7,144 144.7,72.8 			"/>
			<polyline class="st7" points="144.7,215.2 178.7,144 144.7,72.8 			"/>
			<polyline class="st8" points="144.7,215.2 178.7,144 144.7,72.8 			"/>
			<polyline class="st9" points="144.7,215.2 178.7,144 144.7,72.8 			"/>
			<polyline class="st10" points="144.7,215.2 178.7,144 144.7,72.8 			"/>
			<polyline class="st11" points="144.7,215.2 178.7,144 144.7,72.8 			"/>
			<polyline class="st12" points="144.7,215.2 178.7,144 144.7,72.8 			"/>
			<polyline class="st13" points="144.7,215.2 178.7,144 144.7,72.8 			"/>
			<polyline class="st14" points="144.7,215.2 178.7,144 144.7,72.8 			"/>
			<polyline class="st15" points="144.7,215.2 178.7,144 144.7,72.8 			"/>
			<polyline class="st16" points="144.7,215.2 178.7,144 144.7,72.8 			"/>
			<polyline class="st17" points="144.7,215.2 178.7,144 144.7,72.8 			"/>
			<polyline class="st18" points="144.7,215.2 178.7,144 144.7,72.8 			"/>
			<polyline class="st19" points="144.7,215.2 178.7,144 144.7,72.8 			"/>
			<polyline class="st20" points="144.7,215.2 178.7,144 144.7,72.8 			"/>
			<polyline class="st21" points="144.7,215.2 178.7,144 144.7,72.8 			"/>
			<polyline class="st22" points="144.7,215.2 178.7,144 144.7,72.8 			"/>
			<polyline class="st23" points="144.7,215.2 178.7,144 144.7,72.8 			"/>
			<polyline class="st24" points="144.7,215.2 178.7,144 144.7,72.8 			"/>
			<polyline class="st25" points="144.7,215.2 178.7,144 144.7,72.8 			"/>
			<polyline class="st26" points="144.7,215.2 178.7,144 144.7,72.8 			"/>
			<polyline class="st27" points="144.7,215.2 178.7,144 144.7,72.8 			"/>
			<polyline class="st28" points="144.7,215.2 178.7,144 144.7,72.8 			"/>
		</g>
		<g>
			<polyline class="st3" points="121.9,225.6 165.2,144 121.9,62.4 			"/>
			<polyline class="st4" points="121.9,225.6 165.2,144 121.9,62.4 			"/>
			<polyline class="st5" points="121.9,225.6 165.2,144 121.9,62.4 			"/>
			<polyline class="st6" points="121.9,225.6 165.2,144 121.9,62.4 			"/>
			<polyline class="st7" points="121.9,225.6 165.2,144 121.9,62.4 			"/>
			<polyline class="st8" points="121.9,225.6 165.2,144 121.9,62.4 			"/>
			<polyline class="st9" points="121.9,225.6 165.2,144 121.9,62.4 			"/>
			<polyline class="st10" points="121.9,225.6 165.2,144 121.9,62.4 			"/>
			<polyline class="st11" points="121.9,225.6 165.2,144 121.9,62.4 			"/>
			<polyline class="st12" points="121.9,225.6 165.2,144 121.9,62.4 			"/>
			<polyline class="st13" points="121.9,225.6 165.2,144 121.9,62.4 			"/>
			<polyline class="st14" points="121.9,225.6 165.2,144 121.9,62.4 			"/>
			<polyline class="st15" points="121.9,225.6 165.2,144 121.9,62.4 			"/>
			<polyline class="st16" points="121.9,225.6 165.2,144 121.9,62.4 			"/>
			<polyline class="st17" points="121.9,225.6 165.2,144 121.9,62.4 			"/>
			<polyline class="st18" points="121.9,225.6 165.2,144 121.9,62.4 			"/>
			<polyline class="st19" points="121.9,225.6 165.2,144 121.9,62.4 			"/>
			<polyline class="st20" points="121.9,225.6 165.2,144 121.9,62.4 			"/>
			<polyline class="st21" points="121.9,225.6 165.2,144 121.9,62.4 			"/>
			<polyline class="st22" points="121.9,225.6 165.2,144 121.9,62.4 			"/>
			<polyline class="st23" points="121.9,225.6 165.2,144 121.9,62.4 			"/>
			<polyline class="st24" points="121.9,225.6 165.2,144 121.9,62.4 			"/>
			<polyline class="st25" points="121.9,225.6 165.2,144 121.9,62.4 			"/>
			<polyline class="st26" points="121.9,225.6 165.2,144 121.9,62.4 			"/>
			<polyline class="st27" points="121.9,225.6 165.2,144 121.9,62.4 			"/>
			<polyline class="st28" points="121.9,225.6 165.2,144 121.9,62.4 			"/>
		</g>
		<g>
			<polyline class="st3" points="91.2,239.7 148.3,144 91.2,48.3 			"/>
			<polyline class="st4" points="91.2,239.7 148.3,144 91.2,48.3 			"/>
			<polyline class="st5" points="91.2,239.7 148.3,144 91.2,48.3 			"/>
			<polyline class="st6" points="91.2,239.7 148.3,144 91.2,48.3 			"/>
			<polyline class="st7" points="91.2,239.7 148.3,144 91.2,48.3 			"/>
			<polyline class="st8" points="91.2,239.7 148.3,144 91.2,48.3 			"/>
			<polyline class="st9" points="91.2,239.7 148.3,144 91.2,48.3 			"/>
			<polyline class="st10" points="91.2,239.7 148.3,144 91.2,48.3 			"/>
			<polyline class="st11" points="91.2,239.7 148.3,144 91.2,48.3 			"/>
			<polyline class="st12" points="91.2,239.7 148.3,144 91.2,48.3 			"/>
			<polyline class="st13" points="91.2,239.7 148.3,144 91.2,48.3 			"/>
			<polyline class="st14" points="91.2,239.7 148.3,144 91.2,48.3 			"/>
			<polyline class="st15" points="91.2,239.7 148.3,144 91.2,48.3 			"/>
			<polyline class="st16" points="91.2,239.7 148.3,144 91.2,48.3 			"/>
			<polyline class="st17" points="91.2,239.7 148.3,144 91.2,48.3 			"/>
			<polyline class="st18" points="91.2,239.7 148.3,144 91.2,48.3 			"/>
			<polyline class="st19" points="91.2,239.7 148.3,144 91.2,48.3 			"/>
			<polyline class="st20" points="91.2,239.7 148.3,144 91.2,48.3 			"/>
			<polyline class="st21" points="91.2,239.7 148.3,144 91.2,48.3 			"/>
			<polyline class="st22" points="91.2,239.7 148.3,144 91.2,48.3 			"/>
			<polyline class="st23" points="91.2,239.7 148.3,144 91.2,48.3 			"/>
			<polyline class="st24" points="91.2,239.7 148.3,144 91.2,48.3 			"/>
			<polyline class="st25" points="91.2,239.7 148.3,144 91.2,48.3 			"/>
			<polyline class="st26" points="91.2,239.7 148.3,144 91.2,48.3 			"/>
			<polyline class="st27" points="91.2,239.7 148.3,144 91.2,48.3 			"/>
			<polyline class="st28" points="91.2,239.7 148.3,144 91.2,48.3 			"/>
		</g>
		<g>
			<polyline class="st3" points="47.6,259.6 126.5,144 47.6,28.4 			"/>
			<polyline class="st4" points="47.6,259.6 126.5,144 47.6,28.4 			"/>
			<polyline class="st5" points="47.6,259.6 126.5,144 47.6,28.4 			"/>
			<polyline class="st6" points="47.6,259.6 126.5,144 47.6,28.4 			"/>
			<polyline class="st7" points="47.6,259.6 126.5,144 47.6,28.4 			"/>
			<polyline class="st8" points="47.6,259.6 126.5,144 47.6,28.4 			"/>
			<polyline class="st9" points="47.6,259.6 126.5,144 47.6,28.4 			"/>
			<polyline class="st10" points="47.6,259.6 126.5,144 47.6,28.4 			"/>
			<polyline class="st11" points="47.6,259.6 126.5,144 47.6,28.4 			"/>
			<polyline class="st12" points="47.6,259.6 126.5,144 47.6,28.4 			"/>
			<polyline class="st13" points="47.6,259.6 126.5,144 47.6,28.4 			"/>
			<polyline class="st14" points="47.6,259.6 126.5,144 47.6,28.4 			"/>
			<polyline class="st15" points="47.6,259.6 126.5,144 47.6,28.4 			"/>
			<polyline class="st16" points="47.6,259.6 126.5,144 47.6,28.4 			"/>
			<polyline class="st17" points="47.6,259.6 126.5,144 47.6,28.4 			"/>
			<polyline class="st18" points="47.6,259.6 126.5,144 47.6,28.4 			"/>
			<polyline class="st19" points="47.6,259.6 126.5,144 47.6,28.4 			"/>
			<polyline class="st20" points="47.6,259.6 126.5,144 47.6,28.4 			"/>
			<polyline class="st21" points="47.6,259.6 126.5,144 47.6,28.4 			"/>
			<polyline class="st22" points="47.6,259.6 126.5,144 47.6,28.4 			"/>
			<polyline class="st23" points="47.6,259.6 126.5,144 47.6,28.4 			"/>
			<polyline class="st24" points="47.6,259.6 126.5,144 47.6,28.4 			"/>
			<polyline class="st25" points="47.6,259.6 126.5,144 47.6,28.4 			"/>
			<polyline class="st26" points="47.6,259.6 126.5,144 47.6,28.4 			"/>
			<polyline class="st27" points="47.6,259.6 126.5,144 47.6,28.4 			"/>
			<polyline class="st28" points="47.6,259.6 126.5,144 47.6,28.4 			"/>
		</g>
		<g>
			<polyline class="st3" points="-18.8,290 97.5,144 -18.8,-2 			"/>
			<polyline class="st4" points="-18.8,290 97.5,144 -18.8,-2 			"/>
			<polyline class="st5" points="-18.8,290 97.5,144 -18.8,-2 			"/>
			<polyline class="st6" points="-18.8,290 97.5,144 -18.8,-2 			"/>
			<polyline class="st7" points="-18.8,290 97.5,144 -18.8,-2 			"/>
			<polyline class="st8" points="-18.8,290 97.5,144 -18.8,-2 			"/>
			<polyline class="st9" points="-18.8,290 97.5,144 -18.8,-2 			"/>
			<polyline class="st10" points="-18.8,290 97.5,144 -18.8,-2 			"/>
			<polyline class="st11" points="-18.8,290 97.5,144 -18.8,-2 			"/>
			<polyline class="st12" points="-18.8,290 97.5,144 -18.8,-2 			"/>
			<polyline class="st13" points="-18.8,290 97.5,144 -18.8,-2 			"/>
			<polyline class="st14" points="-18.8,290 97.5,144 -18.8,-2 			"/>
			<polyline class="st15" points="-18.8,290 97.5,144 -18.8,-2 			"/>
			<polyline class="st16" points="-18.8,290 97.5,144 -18.8,-2 			"/>
			<polyline class="st17" points="-18.8,290 97.5,144 -18.8,-2 			"/>
			<polyline class="st18" points="-18.8,290 97.5,144 -18.8,-2 			"/>
			<polyline class="st19" points="-18.8,290 97.5,144 -18.8,-2 			"/>
			<polyline class="st20" points="-18.8,290 97.5,144 -18.8,-2 			"/>
			<polyline class="st21" points="-18.8,290 97.5,144 -18.8,-2 			"/>
			<polyline class="st22" points="-18.8,290 97.5,144 -18.8,-2 			"/>
			<polyline class="st23" points="-18.8,290 97.5,144 -18.8,-2 			"/>
			<polyline class="st24" points="-18.8,290 97.5,144 -18.8,-2 			"/>
			<polyline class="st25" points="-18.8,290 97.5,144 -18.8,-2 			"/>
			<polyline class="st26" points="-18.8,290 97.5,144 -18.8,-2 			"/>
			<polyline class="st27" points="-18.8,290 97.5,144 -18.8,-2 			"/>
			<polyline class="st28" points="-18.8,290 97.5,144 -18.8,-2 			"/>
		</g>
		<g>
			<polyline class="st3" points="-132.6,342.1 56.8,144 -132.6,-54.1 			"/>
			<polyline class="st4" points="-132.6,342.1 56.8,144 -132.6,-54.1 			"/>
			<polyline class="st5" points="-132.6,342.1 56.8,144 -132.6,-54.1 			"/>
			<polyline class="st6" points="-132.6,342.1 56.8,144 -132.6,-54.1 			"/>
			<polyline class="st7" points="-132.6,342.1 56.8,144 -132.6,-54.1 			"/>
			<polyline class="st8" points="-132.6,342.1 56.8,144 -132.6,-54.1 			"/>
			<polyline class="st9" points="-132.6,342.1 56.8,144 -132.6,-54.1 			"/>
			<polyline class="st10" points="-132.6,342.1 56.8,144 -132.6,-54.1 			"/>
			<polyline class="st11" points="-132.6,342.1 56.8,144 -132.6,-54.1 			"/>
			<polyline class="st12" points="-132.6,342.1 56.8,144 -132.6,-54.1 			"/>
			<polyline class="st13" points="-132.6,342.1 56.8,144 -132.6,-54.1 			"/>
			<polyline class="st14" points="-132.6,342.1 56.8,144 -132.6,-54.1 			"/>
			<polyline class="st15" points="-132.6,342.1 56.8,144 -132.6,-54.1 			"/>
			<polyline class="st16" points="-132.6,342.1 56.8,144 -132.6,-54.1 			"/>
			<polyline class="st17" points="-132.6,342.1 56.8,144 -132.6,-54.1 			"/>
			<polyline class="st18" points="-132.6,342.1 56.8,144 -132.6,-54.1 			"/>
			<polyline class="st19" points="-132.6,342.1 56.8,144 -132.6,-54.1 			"/>
			<polyline class="st20" points="-132.6,342.1 56.8,144 -132.6,-54.1 			"/>
			<polyline class="st21" points="-132.6,342.1 56.8,144 -132.6,-54.1 			"/>
			<polyline class="st22" points="-132.6,342.1 56.8,144 -132.6,-54.1 			"/>
			<polyline class="st23" points="-132.6,342.1 56.8,144 -132.6,-54.1 			"/>
			<polyline class="st24" points="-132.6,342.1 56.8,144 -132.6,-54.1 			"/>
			<polyline class="st25" points="-132.6,342.1 56.8,144 -132.6,-54.1 			"/>
			<polyline class="st26" points="-132.6,342.1 56.8,144 -132.6,-54.1 			"/>
			<polyline class="st27" points="-132.6,342.1 56.8,144 -132.6,-54.1 			"/>
			<polyline class="st28" points="-132.6,342.1 56.8,144 -132.6,-54.1 			"/>
		</g>
	</g>
	<g id="blue_x5F_lights" class="st2">
		<g>
			<polyline class="st29" points="328.7,200.7 306.2,144 328.7,87.3 			"/>
			<polyline class="st30" points="328.7,200.7 306.2,144 328.7,87.3 			"/>
			<polyline class="st31" points="328.7,200.7 306.2,144 328.7,87.3 			"/>
			<polyline class="st32" points="328.7,200.7 306.2,144 328.7,87.3 			"/>
			<polyline class="st33" points="328.7,200.7 306.2,144 328.7,87.3 			"/>
			<polyline class="st34" points="328.7,200.7 306.2,144 328.7,87.3 			"/>
			<polyline class="st35" points="328.7,200.7 306.2,144 328.7,87.3 			"/>
			<polyline class="st36" points="328.7,200.7 306.2,144 328.7,87.3 			"/>
			<polyline class="st37" points="328.7,200.7 306.2,144 328.7,87.3 			"/>
			<polyline class="st38" points="328.7,200.7 306.2,144 328.7,87.3 			"/>
			<polyline class="st39" points="328.7,200.7 306.2,144 328.7,87.3 			"/>
			<polyline class="st40" points="328.7,200.7 306.2,144 328.7,87.3 			"/>
			<polyline class="st41" points="328.7,200.7 306.2,144 328.7,87.3 			"/>
			<polyline class="st42" points="328.7,200.7 306.2,144 328.7,87.3 			"/>
			<polyline class="st43" points="328.7,200.7 306.2,144 328.7,87.3 			"/>
			<polyline class="st44" points="328.7,200.7 306.2,144 328.7,87.3 			"/>
			<polyline class="st45" points="328.7,200.7 306.2,144 328.7,87.3 			"/>
			<polyline class="st46" points="328.7,200.7 306.2,144 328.7,87.3 			"/>
			<polyline class="st47" points="328.7,200.7 306.2,144 328.7,87.3 			"/>
			<polyline class="st48" points="328.7,200.7 306.2,144 328.7,87.3 			"/>
			<polyline class="st49" points="328.7,200.7 306.2,144 328.7,87.3 			"/>
			<polyline class="st50" points="328.7,200.7 306.2,144 328.7,87.3 			"/>
			<polyline class="st51" points="328.7,200.7 306.2,144 328.7,87.3 			"/>
			<polyline class="st52" points="328.7,200.7 306.2,144 328.7,87.3 			"/>
			<polyline class="st53" points="328.7,200.7 306.2,144 328.7,87.3 			"/>
			<polyline class="st28" points="328.7,200.7 306.2,144 328.7,87.3 			"/>
		</g>
		<g>
			<polyline class="st29" points="342.8,207.1 315.4,144 342.8,80.9 			"/>
			<polyline class="st30" points="342.8,207.1 315.4,144 342.8,80.9 			"/>
			<polyline class="st31" points="342.8,207.1 315.4,144 342.8,80.9 			"/>
			<polyline class="st32" points="342.8,207.1 315.4,144 342.8,80.9 			"/>
			<polyline class="st33" points="342.8,207.1 315.4,144 342.8,80.9 			"/>
			<polyline class="st34" points="342.8,207.1 315.4,144 342.8,80.9 			"/>
			<polyline class="st35" points="342.8,207.1 315.4,144 342.8,80.9 			"/>
			<polyline class="st36" points="342.8,207.1 315.4,144 342.8,80.9 			"/>
			<polyline class="st37" points="342.8,207.1 315.4,144 342.8,80.9 			"/>
			<polyline class="st38" points="342.8,207.1 315.4,144 342.8,80.9 			"/>
			<polyline class="st39" points="342.8,207.1 315.4,144 342.8,80.9 			"/>
			<polyline class="st40" points="342.8,207.1 315.4,144 342.8,80.9 			"/>
			<polyline class="st41" points="342.8,207.1 315.4,144 342.8,80.9 			"/>
			<polyline class="st42" points="342.8,207.1 315.4,144 342.8,80.9 			"/>
			<polyline class="st43" points="342.8,207.1 315.4,144 342.8,80.9 			"/>
			<polyline class="st44" points="342.8,207.1 315.4,144 342.8,80.9 			"/>
			<polyline class="st45" points="342.8,207.1 315.4,144 342.8,80.9 			"/>
			<polyline class="st46" points="342.8,207.1 315.4,144 342.8,80.9 			"/>
			<polyline class="st47" points="342.8,207.1 315.4,144 342.8,80.9 			"/>
			<polyline class="st48" points="342.8,207.1 315.4,144 342.8,80.9 			"/>
			<polyline class="st49" points="342.8,207.1 315.4,144 342.8,80.9 			"/>
			<polyline class="st50" points="342.8,207.1 315.4,144 342.8,80.9 			"/>
			<polyline class="st51" points="342.8,207.1 315.4,144 342.8,80.9 			"/>
			<polyline class="st52" points="342.8,207.1 315.4,144 342.8,80.9 			"/>
			<polyline class="st53" points="342.8,207.1 315.4,144 342.8,80.9 			"/>
			<polyline class="st28" points="342.8,207.1 315.4,144 342.8,80.9 			"/>
		</g>
		<g>
			<polyline class="st29" points="360.5,215.2 326.5,144 360.5,72.8 			"/>
			<polyline class="st30" points="360.5,215.2 326.5,144 360.5,72.8 			"/>
			<polyline class="st31" points="360.5,215.2 326.5,144 360.5,72.8 			"/>
			<polyline class="st32" points="360.5,215.2 326.5,144 360.5,72.8 			"/>
			<polyline class="st33" points="360.5,215.2 326.5,144 360.5,72.8 			"/>
			<polyline class="st34" points="360.5,215.2 326.5,144 360.5,72.8 			"/>
			<polyline class="st35" points="360.5,215.2 326.5,144 360.5,72.8 			"/>
			<polyline class="st36" points="360.5,215.2 326.5,144 360.5,72.8 			"/>
			<polyline class="st37" points="360.5,215.2 326.5,144 360.5,72.8 			"/>
			<polyline class="st38" points="360.5,215.2 326.5,144 360.5,72.8 			"/>
			<polyline class="st39" points="360.5,215.2 326.5,144 360.5,72.8 			"/>
			<polyline class="st40" points="360.5,215.2 326.5,144 360.5,72.8 			"/>
			<polyline class="st41" points="360.5,215.2 326.5,144 360.5,72.8 			"/>
			<polyline class="st42" points="360.5,215.2 326.5,144 360.5,72.8 			"/>
			<polyline class="st43" points="360.5,215.2 326.5,144 360.5,72.8 			"/>
			<polyline class="st44" points="360.5,215.2 326.5,144 360.5,72.8 			"/>
			<polyline class="st45" points="360.5,215.2 326.5,144 360.5,72.8 			"/>
			<polyline class="st46" points="360.5,215.2 326.5,144 360.5,72.8 			"/>
			<polyline class="st47" points="360.5,215.2 326.5,144 360.5,72.8 			"/>
			<polyline class="st48" points="360.5,215.2 326.5,144 360.5,72.8 			"/>
			<polyline class="st49" points="360.5,215.2 326.5,144 360.5,72.8 			"/>
			<polyline class="st50" points="360.5,215.2 326.5,144 360.5,72.8 			"/>
			<polyline class="st51" points="360.5,215.2 326.5,144 360.5,72.8 			"/>
			<polyline class="st52" points="360.5,215.2 326.5,144 360.5,72.8 			"/>
			<polyline class="st53" points="360.5,215.2 326.5,144 360.5,72.8 			"/>
			<polyline class="st28" points="360.5,215.2 326.5,144 360.5,72.8 			"/>
		</g>
		<g>
			<polyline class="st29" points="383.3,225.6 340,144 383.3,62.4 			"/>
			<polyline class="st30" points="383.3,225.6 340,144 383.3,62.4 			"/>
			<polyline class="st31" points="383.3,225.6 340,144 383.3,62.4 			"/>
			<polyline class="st32" points="383.3,225.6 340,144 383.3,62.4 			"/>
			<polyline class="st33" points="383.3,225.6 340,144 383.3,62.4 			"/>
			<polyline class="st34" points="383.3,225.6 340,144 383.3,62.4 			"/>
			<polyline class="st35" points="383.3,225.6 340,144 383.3,62.4 			"/>
			<polyline class="st36" points="383.3,225.6 340,144 383.3,62.4 			"/>
			<polyline class="st37" points="383.3,225.6 340,144 383.3,62.4 			"/>
			<polyline class="st38" points="383.3,225.6 340,144 383.3,62.4 			"/>
			<polyline class="st39" points="383.3,225.6 340,144 383.3,62.4 			"/>
			<polyline class="st40" points="383.3,225.6 340,144 383.3,62.4 			"/>
			<polyline class="st41" points="383.3,225.6 340,144 383.3,62.4 			"/>
			<polyline class="st42" points="383.3,225.6 340,144 383.3,62.4 			"/>
			<polyline class="st43" points="383.3,225.6 340,144 383.3,62.4 			"/>
			<polyline class="st44" points="383.3,225.6 340,144 383.3,62.4 			"/>
			<polyline class="st45" points="383.3,225.6 340,144 383.3,62.4 			"/>
			<polyline class="st46" points="383.3,225.6 340,144 383.3,62.4 			"/>
			<polyline class="st47" points="383.3,225.6 340,144 383.3,62.4 			"/>
			<polyline class="st48" points="383.3,225.6 340,144 383.3,62.4 			"/>
			<polyline class="st49" points="383.3,225.6 340,144 383.3,62.4 			"/>
			<polyline class="st50" points="383.3,225.6 340,144 383.3,62.4 			"/>
			<polyline class="st51" points="383.3,225.6 340,144 383.3,62.4 			"/>
			<polyline class="st52" points="383.3,225.6 340,144 383.3,62.4 			"/>
			<polyline class="st53" points="383.3,225.6 340,144 383.3,62.4 			"/>
			<polyline class="st28" points="383.3,225.6 340,144 383.3,62.4 			"/>
		</g>
		<g>
			<polyline class="st29" points="414,239.7 356.9,144 414,48.3 			"/>
			<polyline class="st30" points="414,239.7 356.9,144 414,48.3 			"/>
			<polyline class="st31" points="414,239.7 356.9,144 414,48.3 			"/>
			<polyline class="st32" points="414,239.7 356.9,144 414,48.3 			"/>
			<polyline class="st33" points="414,239.7 356.9,144 414,48.3 			"/>
			<polyline class="st34" points="414,239.7 356.9,144 414,48.3 			"/>
			<polyline class="st35" points="414,239.7 356.9,144 414,48.3 			"/>
			<polyline class="st36" points="414,239.7 356.9,144 414,48.3 			"/>
			<polyline class="st37" points="414,239.7 356.9,144 414,48.3 			"/>
			<polyline class="st38" points="414,239.7 356.9,144 414,48.3 			"/>
			<polyline class="st39" points="414,239.7 356.9,144 414,48.3 			"/>
			<polyline class="st40" points="414,239.7 356.9,144 414,48.3 			"/>
			<polyline class="st41" points="414,239.7 356.9,144 414,48.3 			"/>
			<polyline class="st42" points="414,239.7 356.9,144 414,48.3 			"/>
			<polyline class="st43" points="414,239.7 356.9,144 414,48.3 			"/>
			<polyline class="st44" points="414,239.7 356.9,144 414,48.3 			"/>
			<polyline class="st45" points="414,239.7 356.9,144 414,48.3 			"/>
			<polyline class="st46" points="414,239.7 356.9,144 414,48.3 			"/>
			<polyline class="st47" points="414,239.7 356.9,144 414,48.3 			"/>
			<polyline class="st48" points="414,239.7 356.9,144 414,48.3 			"/>
			<polyline class="st49" points="414,239.7 356.9,144 414,48.3 			"/>
			<polyline class="st50" points="414,239.7 356.9,144 414,48.3 			"/>
			<polyline class="st51" points="414,239.7 356.9,144 414,48.3 			"/>
			<polyline class="st52" points="414,239.7 356.9,144 414,48.3 			"/>
			<polyline class="st53" points="414,239.7 356.9,144 414,48.3 			"/>
			<polyline class="st28" points="414,239.7 356.9,144 414,48.3 			"/>
		</g>
		<g>
			<polyline class="st29" points="457.6,259.6 378.7,144 457.6,28.4 			"/>
			<polyline class="st30" points="457.6,259.6 378.7,144 457.6,28.4 			"/>
			<polyline class="st31" points="457.6,259.6 378.7,144 457.6,28.4 			"/>
			<polyline class="st32" points="457.6,259.6 378.7,144 457.6,28.4 			"/>
			<polyline class="st33" points="457.6,259.6 378.7,144 457.6,28.4 			"/>
			<polyline class="st34" points="457.6,259.6 378.7,144 457.6,28.4 			"/>
			<polyline class="st35" points="457.6,259.6 378.7,144 457.6,28.4 			"/>
			<polyline class="st36" points="457.6,259.6 378.7,144 457.6,28.4 			"/>
			<polyline class="st37" points="457.6,259.6 378.7,144 457.6,28.4 			"/>
			<polyline class="st38" points="457.6,259.6 378.7,144 457.6,28.4 			"/>
			<polyline class="st39" points="457.6,259.6 378.7,144 457.6,28.4 			"/>
			<polyline class="st40" points="457.6,259.6 378.7,144 457.6,28.4 			"/>
			<polyline class="st41" points="457.6,259.6 378.7,144 457.6,28.4 			"/>
			<polyline class="st42" points="457.6,259.6 378.7,144 457.6,28.4 			"/>
			<polyline class="st43" points="457.6,259.6 378.7,144 457.6,28.4 			"/>
			<polyline class="st44" points="457.6,259.6 378.7,144 457.6,28.4 			"/>
			<polyline class="st45" points="457.6,259.6 378.7,144 457.6,28.4 			"/>
			<polyline class="st46" points="457.6,259.6 378.7,144 457.6,28.4 			"/>
			<polyline class="st47" points="457.6,259.6 378.7,144 457.6,28.4 			"/>
			<polyline class="st48" points="457.6,259.6 378.7,144 457.6,28.4 			"/>
			<polyline class="st49" points="457.6,259.6 378.7,144 457.6,28.4 			"/>
			<polyline class="st50" points="457.6,259.6 378.7,144 457.6,28.4 			"/>
			<polyline class="st51" points="457.6,259.6 378.7,144 457.6,28.4 			"/>
			<polyline class="st52" points="457.6,259.6 378.7,144 457.6,28.4 			"/>
			<polyline class="st53" points="457.6,259.6 378.7,144 457.6,28.4 			"/>
			<polyline class="st28" points="457.6,259.6 378.7,144 457.6,28.4 			"/>
		</g>
		<g>
			<polyline class="st29" points="524,290 407.7,144 524,-2 			"/>
			<polyline class="st30" points="524,290 407.7,144 524,-2 			"/>
			<polyline class="st31" points="524,290 407.7,144 524,-2 			"/>
			<polyline class="st32" points="524,290 407.7,144 524,-2 			"/>
			<polyline class="st33" points="524,290 407.7,144 524,-2 			"/>
			<polyline class="st34" points="524,290 407.7,144 524,-2 			"/>
			<polyline class="st35" points="524,290 407.7,144 524,-2 			"/>
			<polyline class="st36" points="524,290 407.7,144 524,-2 			"/>
			<polyline class="st37" points="524,290 407.7,144 524,-2 			"/>
			<polyline class="st38" points="524,290 407.7,144 524,-2 			"/>
			<polyline class="st39" points="524,290 407.7,144 524,-2 			"/>
			<polyline class="st40" points="524,290 407.7,144 524,-2 			"/>
			<polyline class="st41" points="524,290 407.7,144 524,-2 			"/>
			<polyline class="st42" points="524,290 407.7,144 524,-2 			"/>
			<polyline class="st43" points="524,290 407.7,144 524,-2 			"/>
			<polyline class="st44" points="524,290 407.7,144 524,-2 			"/>
			<polyline class="st45" points="524,290 407.7,144 524,-2 			"/>
			<polyline class="st46" points="524,290 407.7,144 524,-2 			"/>
			<polyline class="st47" points="524,290 407.7,144 524,-2 			"/>
			<polyline class="st48" points="524,290 407.7,144 524,-2 			"/>
			<polyline class="st49" points="524,290 407.7,144 524,-2 			"/>
			<polyline class="st50" points="524,290 407.7,144 524,-2 			"/>
			<polyline class="st51" points="524,290 407.7,144 524,-2 			"/>
			<polyline class="st52" points="524,290 407.7,144 524,-2 			"/>
			<polyline class="st53" points="524,290 407.7,144 524,-2 			"/>
			<polyline class="st28" points="524,290 407.7,144 524,-2 			"/>
		</g>
		<g>
			<polyline class="st29" points="637.8,342.1 448.4,144 637.8,-54.1 			"/>
			<polyline class="st30" points="637.8,342.1 448.4,144 637.8,-54.1 			"/>
			<polyline class="st31" points="637.8,342.1 448.4,144 637.8,-54.1 			"/>
			<polyline class="st32" points="637.8,342.1 448.4,144 637.8,-54.1 			"/>
			<polyline class="st33" points="637.8,342.1 448.4,144 637.8,-54.1 			"/>
			<polyline class="st34" points="637.8,342.1 448.4,144 637.8,-54.1 			"/>
			<polyline class="st35" points="637.8,342.1 448.4,144 637.8,-54.1 			"/>
			<polyline class="st36" points="637.8,342.1 448.4,144 637.8,-54.1 			"/>
			<polyline class="st37" points="637.8,342.1 448.4,144 637.8,-54.1 			"/>
			<polyline class="st38" points="637.8,342.1 448.4,144 637.8,-54.1 			"/>
			<polyline class="st39" points="637.8,342.1 448.4,144 637.8,-54.1 			"/>
			<polyline class="st40" points="637.8,342.1 448.4,144 637.8,-54.1 			"/>
			<polyline class="st41" points="637.8,342.1 448.4,144 637.8,-54.1 			"/>
			<polyline class="st42" points="637.8,342.1 448.4,144 637.8,-54.1 			"/>
			<polyline class="st43" points="637.8,342.1 448.4,144 637.8,-54.1 			"/>
			<polyline class="st44" points="637.8,342.1 448.4,144 637.8,-54.1 			"/>
			<polyline class="st45" points="637.8,342.1 448.4,144 637.8,-54.1 			"/>
			<polyline class="st46" points="637.8,342.1 448.4,144 637.8,-54.1 			"/>
			<polyline class="st47" points="637.8,342.1 448.4,144 637.8,-54.1 			"/>
			<polyline class="st48" points="637.8,342.1 448.4,144 637.8,-54.1 			"/>
			<polyline class="st49" points="637.8,342.1 448.4,144 637.8,-54.1 			"/>
			<polyline class="st50" points="637.8,342.1 448.4,144 637.8,-54.1 			"/>
			<polyline class="st51" points="637.8,342.1 448.4,144 637.8,-54.1 			"/>
			<polyline class="st52" points="637.8,342.1 448.4,144 637.8,-54.1 			"/>
			<polyline class="st53" points="637.8,342.1 448.4,144 637.8,-54.1 			"/>
			<polyline class="st28" points="637.8,342.1 448.4,144 637.8,-54.1 			"/>
		</g>
	</g>
</g>
</svg>
