
<svg version="1.1" id="dj_x5F_mic" xmlns="http://www.w3.org/2000/svg" xmlns:xlink="http://www.w3.org/1999/xlink" x="0px" y="0px"
	 viewBox="0 0 70.7 237.9" style="enable-background:new 0 0 70.7 237.9;" xml:space="preserve">
<style type="text/css">
	.st0{fill:#39474F;}
	.st1{fill:#FFFFFF;}
	#dj_x5F_mic:hover #white_dots_mic .st1 {fill: red;}
</style>
<g id="mic">
	<path class="st0" d="M40.8,187.8H28.5c-3.2,0-5.8-2.5-6-5.7L17,67.3l35.4,0l-5.5,114.8C46.7,185.3,44,187.8,40.8,187.8z"/>
	<polygon class="st0" points="39,200.1 30.3,200.1 28.2,190 41.1,190 	"/>
	<path class="st0" d="M35,0h-0.7C15.4,0,0,15.4,0,34.3V35c0,11.6,5.7,21.8,14.5,28l40.2,0c8.8-6.2,14.5-16.5,14.5-28v-0.7
		C69.3,15.4,53.9,0,35,0z"/>
	<g>
		<path class="st0" d="M51.9,237.9c-3,0-5.7-0.7-8.2-2.1c-5.3-3-8.9-8.9-10.9-17.7c-1.4-6.2-1.4-11.5-1.4-11.7V203H38v3.3
			c0,0,0,4.9,1.3,10.4c1.1,4.7,3.3,10.7,7.7,13.2c4.2,2.4,10,1.3,17.5-3.1l2.9-1.7l3.4,5.8l-2.9,1.7
			C61.9,236.1,56.6,237.9,51.9,237.9z"/>
	</g>
	<g id="white_dots_mic">
		<path class="st1" d="M15.6,53.2c-1,0-1.8-0.8-1.8-1.8c0-1,0.8-1.8,1.8-1.8c1,0,1.8,0.8,1.8,1.8C17.3,52.5,16.5,53.2,15.6,53.2z"/>
		<path class="st1" d="M28.4,53.2c-1,0-1.8-0.8-1.8-1.8c0-1,0.8-1.8,1.8-1.8c1,0,1.8,0.8,1.8,1.8C30.1,52.5,29.4,53.2,28.4,53.2z"/>
		<ellipse transform="matrix(0.3827 -0.9239 0.9239 0.3827 -22.1351 69.8166)" class="st1" cx="41.2" cy="51.5" rx="1.8" ry="1.8"/>
		<path class="st1" d="M54,53.2c-1,0-1.8-0.8-1.8-1.8c0-1,0.8-1.8,1.8-1.8c1,0,1.8,0.8,1.8,1.8C55.8,52.5,55,53.2,54,53.2z"/>
		<path class="st1" d="M9,47c-1,0-1.8-0.8-1.8-1.8c0-1,0.8-1.8,1.8-1.8c1,0,1.8,0.8,1.8,1.8C10.8,46.2,10,47,9,47z"/>
		<path class="st1" d="M21.8,47c-1,0-1.8-0.8-1.8-1.8c0-1,0.8-1.8,1.8-1.8c1,0,1.8,0.8,1.8,1.8C23.6,46.2,22.8,47,21.8,47z"/>
		<path class="st1" d="M34.7,47c-1,0-1.8-0.8-1.8-1.8c0-1,0.8-1.8,1.8-1.8c1,0,1.8,0.8,1.8,1.8C36.4,46.2,35.6,47,34.7,47z"/>
		<path class="st1" d="M47.5,47c-1,0-1.8-0.8-1.8-1.8c0-1,0.8-1.8,1.8-1.8c1,0,1.8,0.8,1.8,1.8C49.2,46.2,48.4,47,47.5,47z"/>
		<path class="st1" d="M60.3,47c-1,0-1.8-0.8-1.8-1.8c0-1,0.8-1.8,1.8-1.8c1,0,1.8,0.8,1.8,1.8C62,46.2,61.2,47,60.3,47z"/>
		<path class="st1" d="M21.8,59.2c-1,0-1.8-0.8-1.8-1.8c0-1,0.8-1.8,1.8-1.8c1,0,1.8,0.8,1.8,1.8C23.6,58.4,22.8,59.2,21.8,59.2z"/>
		<path class="st1" d="M34.7,59.2c-1,0-1.8-0.8-1.8-1.8c0-1,0.8-1.8,1.8-1.8c1,0,1.8,0.8,1.8,1.8C36.4,58.4,35.6,59.2,34.7,59.2z"/>
		<path class="st1" d="M47.5,59.2c-1,0-1.8-0.8-1.8-1.8c0-1,0.8-1.8,1.8-1.8c1,0,1.8,0.8,1.8,1.8C49.2,58.4,48.4,59.2,47.5,59.2z"/>
		<path class="st1" d="M15.6,41.1c-1,0-1.8-0.8-1.8-1.8c0-1,0.8-1.8,1.8-1.8c1,0,1.8,0.8,1.8,1.8C17.3,40.3,16.5,41.1,15.6,41.1z"/>
		<path class="st1" d="M28.4,41.1c-1,0-1.8-0.8-1.8-1.8c0-1,0.8-1.8,1.8-1.8c1,0,1.8,0.8,1.8,1.8C30.1,40.3,29.4,41.1,28.4,41.1z"/>
		<path class="st1" d="M41.2,41.1c-1,0-1.8-0.8-1.8-1.8c0-1,0.8-1.8,1.8-1.8c1,0,1.8,0.8,1.8,1.8C43,40.3,42.2,41.1,41.2,41.1z"/>
		<path class="st1" d="M54,41.1c-1,0-1.8-0.8-1.8-1.8c0-1,0.8-1.8,1.8-1.8c1,0,1.8,0.8,1.8,1.8C55.8,40.3,55,41.1,54,41.1z"/>
		<path class="st1" d="M9,34.8c-1,0-1.8-0.8-1.8-1.8c0-1,0.8-1.8,1.8-1.8c1,0,1.8,0.8,1.8,1.8C10.8,34,10,34.8,9,34.8z"/>
		<path class="st1" d="M21.8,34.8c-1,0-1.8-0.8-1.8-1.8c0-1,0.8-1.8,1.8-1.8c1,0,1.8,0.8,1.8,1.8C23.6,34,22.8,34.8,21.8,34.8z"/>
		<path class="st1" d="M34.7,34.8c-1,0-1.8-0.8-1.8-1.8c0-1,0.8-1.8,1.8-1.8c1,0,1.8,0.8,1.8,1.8C36.4,34,35.6,34.8,34.7,34.8z"/>
		<path class="st1" d="M47.5,34.8c-1,0-1.8-0.8-1.8-1.8c0-1,0.8-1.8,1.8-1.8c1,0,1.8,0.8,1.8,1.8C49.2,34,48.4,34.8,47.5,34.8z"/>
		<path class="st1" d="M60.3,34.8c-1,0-1.8-0.8-1.8-1.8c0-1,0.8-1.8,1.8-1.8c1,0,1.8,0.8,1.8,1.8C62,34,61.2,34.8,60.3,34.8z"/>
		<path class="st1" d="M15.6,28.9c-1,0-1.8-0.8-1.8-1.8c0-1,0.8-1.8,1.8-1.8c1,0,1.8,0.8,1.8,1.8C17.3,28.1,16.5,28.9,15.6,28.9z"/>
		<path class="st1" d="M28.4,28.9c-1,0-1.8-0.8-1.8-1.8c0-1,0.8-1.8,1.8-1.8c1,0,1.8,0.8,1.8,1.8C30.1,28.1,29.4,28.9,28.4,28.9z"/>
		<path class="st1" d="M41.2,28.9c-1,0-1.8-0.8-1.8-1.8c0-1,0.8-1.8,1.8-1.8c1,0,1.8,0.8,1.8,1.8C43,28.1,42.2,28.9,41.2,28.9z"/>
		<path class="st1" d="M54,28.9c-1,0-1.8-0.8-1.8-1.8c0-1,0.8-1.8,1.8-1.8c1,0,1.8,0.8,1.8,1.8C55.8,28.1,55,28.9,54,28.9z"/>
		<path class="st1" d="M9,22.6c-1,0-1.8-0.8-1.8-1.8c0-1,0.8-1.8,1.8-1.8c1,0,1.8,0.8,1.8,1.8C10.8,21.8,10,22.6,9,22.6z"/>
		<circle class="st1" cx="21.8" cy="20.8" r="1.8"/>
		<circle class="st1" cx="34.7" cy="20.8" r="1.8"/>
		<path class="st1" d="M47.5,22.6c-1,0-1.8-0.8-1.8-1.8c0-1,0.8-1.8,1.8-1.8c1,0,1.8,0.8,1.8,1.8C49.2,21.8,48.4,22.6,47.5,22.6z"/>
		<path class="st1" d="M60.3,22.6c-1,0-1.8-0.8-1.8-1.8c0-1,0.8-1.8,1.8-1.8c1,0,1.8,0.8,1.8,1.8C62,21.8,61.2,22.6,60.3,22.6z"/>
		<path class="st1" d="M15.6,16.7c-1,0-1.8-0.8-1.8-1.8s0.8-1.8,1.8-1.8c1,0,1.8,0.8,1.8,1.8S16.5,16.7,15.6,16.7z"/>
		<path class="st1" d="M28.4,16.7c-1,0-1.8-0.8-1.8-1.8s0.8-1.8,1.8-1.8c1,0,1.8,0.8,1.8,1.8S29.4,16.7,28.4,16.7z"/>
		<path class="st1" d="M41.2,16.7c-1,0-1.8-0.8-1.8-1.8s0.8-1.8,1.8-1.8c1,0,1.8,0.8,1.8,1.8S42.2,16.7,41.2,16.7z"/>
		<path class="st1" d="M54,16.7c-1,0-1.8-0.8-1.8-1.8s0.8-1.8,1.8-1.8c1,0,1.8,0.8,1.8,1.8S55,16.7,54,16.7z"/>
		<path class="st1" d="M21.8,10.4c-1,0-1.8-0.8-1.8-1.8c0-1,0.8-1.8,1.8-1.8c1,0,1.8,0.8,1.8,1.8C23.6,9.6,22.8,10.4,21.8,10.4z"/>
		<circle class="st1" cx="34.7" cy="8.6" r="1.8"/>
		<path class="st1" d="M47.5,10.4c-1,0-1.8-0.8-1.8-1.8c0-1,0.8-1.8,1.8-1.8c1,0,1.8,0.8,1.8,1.8C49.2,9.6,48.4,10.4,47.5,10.4z"/>
	</g>
	<g>
		<path class="st1" d="M34.7,80.7L34.7,80.7c-1.7,0-3.1,1.4-3.1,3v9.2c0,1.7,1.4,3,3,3h0.1c1.7,0,3-1.4,3-3v-9.2
			C37.7,82.1,36.4,80.7,34.7,80.7z"/>
		<path class="st1" d="M34.7,80.7L34.7,80.7c-1.7,0-3.1,1.4-3.1,3v9.2c0,1.7,1.4,3,3,3h0.1c1.7,0,3-1.4,3-3v-9.2
			C37.7,82.1,36.4,80.7,34.7,80.7z"/>
		<path class="st0" d="M36.7,88.4v-4.6c0-1.1-0.9-2.1-2.1-2.1h-0.1c-1.1,0-2.1,0.9-2.1,2.1v4.6H36.7z"/>
	</g>
</g>
</svg>
