<svg id="dj_mic" xmlns="http://www.w3.org/2000/svg" viewBox="0 0 70.7 237.9">
  <defs>
    <style>
      .cls-1 {
        fill: #39474f;
      }

      .cls-2 {
        fill: #fff;
      }
      #dj_mic:hover #white_dots_mic .cls-2 { fill: red;
      }
    </style>
  </defs>
  <title>dj_mic</title>
  <g id="mic">
    <path class="cls-1" d="M40.8,187.8H28.5a6,6,0,0,1-6-5.7L17,67.3H52.4L46.9,182.1A6.12,6.12,0,0,1,40.8,187.8Z"/>
    <polygon class="cls-1" points="39 200.1 30.3 200.1 28.2 190 41.1 190 39 200.1"/>
    <path class="cls-1" d="M35,0h-.7A34.36,34.36,0,0,0,0,34.3V35A34.11,34.11,0,0,0,14.5,63H54.7A34.24,34.24,0,0,0,69.2,35v-.7A34.21,34.21,0,0,0,35,0Z"/>
    <path class="cls-1" d="M51.9,237.9a16.41,16.41,0,0,1-8.2-2.1c-5.3-3-8.9-8.9-10.9-17.7a58.13,58.13,0,0,1-1.4-11.7V203H38v3.3a50.67,50.67,0,0,0,1.3,10.4c1.1,4.7,3.3,10.7,7.7,13.2,4.2,2.4,10,1.3,17.5-3.1l2.9-1.7,3.4,5.8-2.9,1.7C61.9,236.1,56.6,237.9,51.9,237.9Z"/>
    <g id="white_dots_mic">
      <path class="cls-2" d="M15.6,53.2a1.8,1.8,0,1,1,1.8-1.8A1.86,1.86,0,0,1,15.6,53.2Z"/>
      <path class="cls-2" d="M28.4,53.2a1.8,1.8,0,1,1,1.8-1.8A1.79,1.79,0,0,1,28.4,53.2Z"/>
      <circle class="cls-2" cx="41.21" cy="51.46" r="1.8"/>
      <path class="cls-2" d="M54,53.2a1.8,1.8,0,1,1,1.8-1.8A1.73,1.73,0,0,1,54,53.2Z"/>
      <path class="cls-2" d="M9,47a1.8,1.8,0,1,1,1.8-1.8A1.79,1.79,0,0,1,9,47Z"/>
      <path class="cls-2" d="M21.8,47a1.8,1.8,0,1,1,1.8-1.8A1.79,1.79,0,0,1,21.8,47Z"/>
      <path class="cls-2" d="M34.7,47a1.8,1.8,0,1,1,1.8-1.8A1.93,1.93,0,0,1,34.7,47Z"/>
      <path class="cls-2" d="M47.5,47a1.8,1.8,0,1,1,1.8-1.8A1.93,1.93,0,0,1,47.5,47Z"/>
      <path class="cls-2" d="M60.3,47a1.8,1.8,0,1,1,1.8-1.8A1.93,1.93,0,0,1,60.3,47Z"/>
      <path class="cls-2" d="M21.8,59.2a1.8,1.8,0,1,1,1.8-1.8A1.79,1.79,0,0,1,21.8,59.2Z"/>
      <path class="cls-2" d="M34.7,59.2a1.8,1.8,0,1,1,1.8-1.8A1.93,1.93,0,0,1,34.7,59.2Z"/>
      <path class="cls-2" d="M47.5,59.2a1.8,1.8,0,1,1,1.8-1.8A1.93,1.93,0,0,1,47.5,59.2Z"/>
      <path class="cls-2" d="M15.6,41.1a1.8,1.8,0,1,1,1.8-1.8A1.93,1.93,0,0,1,15.6,41.1Z"/>
      <path class="cls-2" d="M28.4,41.1a1.8,1.8,0,1,1,1.8-1.8A1.86,1.86,0,0,1,28.4,41.1Z"/>
      <path class="cls-2" d="M41.2,41.1A1.8,1.8,0,1,1,43,39.3,1.79,1.79,0,0,1,41.2,41.1Z"/>
      <path class="cls-2" d="M54,41.1a1.8,1.8,0,1,1,1.8-1.8A1.79,1.79,0,0,1,54,41.1Z"/>
      <path class="cls-2" d="M9,34.8A1.8,1.8,0,1,1,10.8,33,1.79,1.79,0,0,1,9,34.8Z"/>
      <path class="cls-2" d="M21.8,34.8A1.8,1.8,0,1,1,23.6,33,1.79,1.79,0,0,1,21.8,34.8Z"/>
      <path class="cls-2" d="M34.7,34.8A1.8,1.8,0,1,1,36.5,33,1.93,1.93,0,0,1,34.7,34.8Z"/>
      <path class="cls-2" d="M47.5,34.8A1.8,1.8,0,1,1,49.3,33,1.93,1.93,0,0,1,47.5,34.8Z"/>
      <path class="cls-2" d="M60.3,34.8A1.8,1.8,0,1,1,62.1,33,1.93,1.93,0,0,1,60.3,34.8Z"/>
      <path class="cls-2" d="M15.6,28.9a1.8,1.8,0,1,1,1.8-1.8A1.93,1.93,0,0,1,15.6,28.9Z"/>
      <path class="cls-2" d="M28.4,28.9a1.8,1.8,0,1,1,1.8-1.8A1.86,1.86,0,0,1,28.4,28.9Z"/>
      <path class="cls-2" d="M41.2,28.9A1.8,1.8,0,1,1,43,27.1,1.79,1.79,0,0,1,41.2,28.9Z"/>
      <path class="cls-2" d="M54,28.9a1.8,1.8,0,1,1,1.8-1.8A1.79,1.79,0,0,1,54,28.9Z"/>
      <path class="cls-2" d="M9,22.6a1.8,1.8,0,1,1,1.8-1.8A1.79,1.79,0,0,1,9,22.6Z"/>
      <circle class="cls-2" cx="21.8" cy="20.8" r="1.8"/>
      <circle class="cls-2" cx="34.7" cy="20.8" r="1.8"/>
      <path class="cls-2" d="M47.5,22.6a1.8,1.8,0,1,1,1.8-1.8A1.93,1.93,0,0,1,47.5,22.6Z"/>
      <path class="cls-2" d="M60.3,22.6a1.8,1.8,0,1,1,1.8-1.8A1.93,1.93,0,0,1,60.3,22.6Z"/>
      <path class="cls-2" d="M15.6,16.7a1.8,1.8,0,1,1,1.8-1.8A1.86,1.86,0,0,1,15.6,16.7Z"/>
      <path class="cls-2" d="M28.4,16.7a1.8,1.8,0,1,1,1.8-1.8A1.79,1.79,0,0,1,28.4,16.7Z"/>
      <path class="cls-2" d="M41.2,16.7A1.8,1.8,0,1,1,43,14.9,1.79,1.79,0,0,1,41.2,16.7Z"/>
      <path class="cls-2" d="M54,16.7a1.8,1.8,0,1,1,1.8-1.8A1.79,1.79,0,0,1,54,16.7Z"/>
      <path class="cls-2" d="M21.8,10.4a1.8,1.8,0,1,1,1.8-1.8A1.79,1.79,0,0,1,21.8,10.4Z"/>
      <circle class="cls-2" cx="34.7" cy="8.6" r="1.8"/>
      <path class="cls-2" d="M47.5,10.4a1.8,1.8,0,1,1,1.8-1.8A1.93,1.93,0,0,1,47.5,10.4Z"/>
    </g>
    <g>
      <path class="cls-2" d="M34.7,80.7h0a3.1,3.1,0,0,0-3.1,3v9.2a3,3,0,0,0,3,3h.1a3,3,0,0,0,3-3V83.7A3,3,0,0,0,34.7,80.7Z"/>
      <path class="cls-2" d="M34.7,80.7h0a3.1,3.1,0,0,0-3.1,3v9.2a3,3,0,0,0,3,3h.1a3,3,0,0,0,3-3V83.7A3,3,0,0,0,34.7,80.7Z"/>
      <path class="cls-1" d="M36.7,88.4V83.8a2.11,2.11,0,0,0-2.1-2.1h-.1a2.11,2.11,0,0,0-2.1,2.1v4.6Z"/>
    </g>
  </g>
</svg>
