<svg xmlns="http://www.w3.org/2000/svg" xmlns:xlink="http://www.w3.org/1999/xlink" viewBox="0 0 702.67 570.95"><defs><style>
  


  .cls-1{isolation:isolate;}.cls-2{fill:url(#linear-gradient);}.cls-3{fill:url(#radial-gradient);}.cls-4{fill:url(#radial-gradient-2);}.cls-5{fill:url(#radial-gradient-3);}.cls-6{fill:url(#radial-gradient-4);}.cls-7{fill:url(#radial-gradient-5);}.cls-8{fill:url(#radial-gradient-6);}.cls-9{fill:url(#radial-gradient-7);}.cls-10{fill:url(#linear-gradient-2);}.cls-11{fill:url(#radial-gradient-8);}.cls-12,.cls-21{opacity:0.7;mix-blend-mode:screen;}.cls-12{fill:url(#linear-gradient-3);}.cls-13{fill:url(#radial-gradient-9);}.cls-14{fill:url(#radial-gradient-10);}.cls-15{fill:url(#radial-gradient-11);}.cls-16{fill:url(#radial-gradient-12);}.cls-17{fill:url(#radial-gradient-13);}.cls-18{fill:url(#radial-gradient-14);}.cls-19{fill:url(#linear-gradient-4);}.cls-20{fill:url(#radial-gradient-15);}.cls-21{fill:url(#linear-gradient-5);}.cls-22{opacity:0.3;mix-blend-mode:multiply;fill:url(#radial-gradient-16);}</style><linearGradient id="linear-gradient" x1="347.84" y1="105.46" x2="347.84" y2="40.68" gradientUnits="userSpaceOnUse"><stop offset="0" stop-color="#3e393a"/><stop offset="1" stop-color="#231f20"/></linearGradient><radialGradient id="radial-gradient" cx="346.42" cy="199.21" r="95.69" gradientTransform="translate(-931.1 -767.28) scale(3.7)" gradientUnits="userSpaceOnUse"><stop offset="0" stop-color="#10d9f0"/><stop offset="0.33" stop-color="#0592f6"/><stop offset="0.48" stop-color="#0076f8"/><stop offset="0.54" stop-color="#0071ed"/><stop offset="0.64" stop-color="#0062d0"/><stop offset="0.77" stop-color="#004ba0"/><stop offset="0.93" stop-color="#002a5e"/><stop offset="1" stop-color="#001a3d"/></radialGradient><radialGradient id="radial-gradient-2" cx="284.6" cy="295.16" r="17.22" xlink:href="#radial-gradient"/><radialGradient id="radial-gradient-3" cx="316.02" cy="313.24" r="19.65" xlink:href="#radial-gradient"/><radialGradient id="radial-gradient-4" cx="307.56" cy="312.73" r="16.69" xlink:href="#radial-gradient"/><radialGradient id="radial-gradient-5" cx="309.61" cy="304.13" r="28.93" xlink:href="#radial-gradient"/><radialGradient id="radial-gradient-6" cx="338.47" cy="304.65" r="48.75" xlink:href="#radial-gradient"/><radialGradient id="radial-gradient-7" cx="337.83" cy="285.41" r="41.6" xlink:href="#radial-gradient"/><linearGradient id="linear-gradient-2" x1="285.3" y1="372.43" x2="256.51" y2="379.85" xlink:href="#linear-gradient"/><radialGradient id="radial-gradient-8" cx="297.68" cy="260.4" r="26.78" xlink:href="#radial-gradient"/><linearGradient id="linear-gradient-3" x1="224.14" y1="-129.06" x2="286.22" y2="598.08" gradientUnits="userSpaceOnUse"><stop offset="0" stop-color="#fff"/><stop offset="0.31" stop-color="#969696"/><stop offset="0.57" stop-color="#454545"/><stop offset="0.75" stop-color="#131313"/><stop offset="0.84"/></linearGradient><radialGradient id="radial-gradient-9" cx="229.76" cy="295.16" r="17.22" gradientTransform="matrix(-3.7, 0, 0, 3.7, 1438.44, -767.28)" xlink:href="#radial-gradient"/><radialGradient id="radial-gradient-10" cx="261.19" cy="313.24" r="19.65" gradientTransform="matrix(-3.7, 0, 0, 3.7, 1438.44, -767.28)" xlink:href="#radial-gradient"/><radialGradient id="radial-gradient-11" cx="252.73" cy="312.73" r="16.69" gradientTransform="matrix(-3.7, 0, 0, 3.7, 1438.44, -767.28)" xlink:href="#radial-gradient"/><radialGradient id="radial-gradient-12" cx="254.78" cy="304.13" r="28.93" gradientTransform="matrix(-3.7, 0, 0, 3.7, 1438.44, -767.28)" xlink:href="#radial-gradient"/><radialGradient id="radial-gradient-13" cx="283.64" cy="304.65" r="48.75" gradientTransform="matrix(-3.7, 0, 0, 3.7, 1438.44, -767.28)" xlink:href="#radial-gradient"/><radialGradient id="radial-gradient-14" cx="283" cy="285.41" r="41.6" gradientTransform="matrix(-3.7, 0, 0, 3.7, 1438.44, -767.28)" xlink:href="#radial-gradient"/><linearGradient id="linear-gradient-4" x1="214.55" y1="372.43" x2="185.77" y2="379.85" gradientTransform="matrix(-1, 0, 0, 1, 639.69, 0)" xlink:href="#linear-gradient"/><radialGradient id="radial-gradient-15" cx="242.85" cy="260.4" r="26.78" gradientTransform="matrix(-3.7, 0, 0, 3.7, 1438.44, -767.28)" xlink:href="#radial-gradient"/><linearGradient id="linear-gradient-5" x1="153.4" y1="-129.06" x2="215.47" y2="598.08" gradientTransform="matrix(-1, 0, 0, 1, 639.69, 0)" xlink:href="#linear-gradient-3"/><radialGradient id="radial-gradient-16" cx="810.46" cy="1268.83" r="4.89" gradientTransform="translate(-57908.5 -3562.51) scale(71.88 3.25)" gradientUnits="userSpaceOnUse"><stop offset="0" stop-color="#6c6f71"/><stop offset="0.08" stop-color="#878a8b"/><stop offset="0.21" stop-color="#acadaf"/><stop offset="0.34" stop-color="#cacbcc"/><stop offset="0.48" stop-color="#e1e2e2"/><stop offset="0.63" stop-color="#f2f2f2"/><stop offset="0.79" stop-color="#fcfcfc"/><stop offset="1" stop-color="#fff"/></radialGradient></defs><title>headphones_blue</title><g class="cls-1"><g id="headphones"><g id="headset"><path id="top_black" class="cls-2" d="M161.3,123.2s24.07,11.4,56.37-2.54,53.84-65.24,129.22-65.24S420.36,85.83,474.2,101s60.17,3.16,60.17,3.16S491.3,8.55,351.32,8.55,161.3,123.2,161.3,123.2Z"/><path id="top" class="cls-3" d="M569.36,256.66a7.64,7.64,0,0,1-7.5-8.85,195.44,195.44,0,0,0,2.6-31.82c0-110.71-93.76-200.79-209-200.79s-209,90.08-209,200.79a194.86,194.86,0,0,0,1.88,27,7.6,7.6,0,1,1-15,2.11,209.72,209.72,0,0,1-2-29.14C131.21,96.89,231.8,0,355.44,0S579.67,96.89,579.67,216a210.2,210.2,0,0,1-2.82,34.31A7.61,7.61,0,0,1,569.36,256.66Z"/><g id="left"><path class="cls-4" d="M142.45,266.86s5.5,84,36.91,129.73l-5-29.58s-19.82-35.13-24.52-102.27Z"/><path class="cls-5" d="M185.63,407.92c8.81,23.44,13,43.55,10.16,44.62s-12.32-17.05-21.13-40.49-10.34-44.38-7.48-45.45S176.82,384.49,185.63,407.92Z"/><path class="cls-6" d="M167.18,366.6,151,372.68c.71,15,4.45,32.81,11.33,51.1a186.17,186.17,0,0,0,17.27,34.85l16.16-6.08a186.77,186.77,0,0,1-17.26-34.85C171.63,399.41,167.89,381.61,167.18,366.6Z"/><path class="cls-7" d="M175.61,315.5s-9,13-8.08,33.23,37,143.44,61.11,130.72Z"/><path class="cls-8" d="M195.72,273a172.69,172.69,0,0,0-25.88,24s.9,102.88,63.39,197.76c0,0,12.61,8.44,33.57,6.7Z"/><path class="cls-9" d="M195.72,273s-1,.72-2.64,2C202.67,378.44,264,501.45,264,501.45s1.08,0,2.83-.1Z"/><path class="cls-10" d="M195.72,273s9.68-6.11,17.47-7.49c6.27-1.12,19-3.82,28.79,10.28s28.21,53.53,40.94,95.73,20.93,86.16,19.51,98-7.91,23.74-19.17,28.59a42.62,42.62,0,0,1-16.46,3.34S204.7,376.84,195.72,273Z"/><path class="cls-11" d="M124.2,208.07s-5.39,38,5.06,70.31c0,0,10.45,10.77,40.22,8.87,0,0,5.39-.63,5.07-17.42s-2.85-64.92-14.88-75A83.64,83.64,0,0,0,124.2,208.07Z"/><path id="edit_me" class="cls-12" d="M280.07,366.1s-29.78-74.42-35.8-81.07-11.71-10.45-7.6,8.55S259.16,373.39,272.46,412s22.81,65.87,25.66,57-6-54.47-10.45-71.57c0,0,7.28,59.22-.64,37.69s-37.69-113.07-38.64-123.52S261.38,324.62,280.07,366.1Z"/></g><g id="right"><path class="cls-13" d="M568,266.86s-5.51,84-36.92,129.73l5-29.58s19.81-35.13,24.51-102.27Z"/><path class="cls-14" d="M524.81,407.92c-8.81,23.44-13,43.55-10.17,44.62s12.32-17.05,21.13-40.49,10.34-44.38,7.48-45.45S533.62,384.49,524.81,407.92Z"/><path class="cls-15" d="M543.25,366.6l16.17,6.08c-.71,15-4.45,32.81-11.33,51.1a186.77,186.77,0,0,1-17.26,34.85l-16.17-6.08a186.78,186.78,0,0,0,17.27-34.85C538.8,399.41,542.54,381.61,543.25,366.6Z"/><path class="cls-16" d="M534.83,315.5s9,13,8.08,33.23-37,143.44-61.12,130.72Z"/><path class="cls-17" d="M514.71,273a172.15,172.15,0,0,1,25.88,24s-.9,102.88-63.39,197.76c0,0-12.61,8.44-33.57,6.7Z"/><path class="cls-18" d="M514.71,273s1,.72,2.65,2c-9.59,103.46-70.88,226.47-70.88,226.47s-1.08,0-2.82-.1Z"/><path class="cls-19" d="M514.71,273s-9.68-6.11-17.46-7.49c-6.28-1.12-19-3.82-28.79,10.28s-28.22,53.53-40.94,95.73-20.94,86.16-19.52,98,7.92,23.74,19.18,28.59a42.56,42.56,0,0,0,16.45,3.34S505.74,376.84,514.71,273Z"/><path class="cls-20" d="M586.24,208.07s5.38,38-5.07,70.31c0,0-10.45,10.77-40.22,8.87,0,0-5.39-.63-5.07-17.42s2.85-64.92,14.89-75A83.69,83.69,0,0,1,586.24,208.07Z"/><path id="edit_me-2" data-name="edit_me" class="cls-21" d="M430.37,366.1s29.77-74.42,35.79-81.07,11.71-10.45,7.6,8.55S451.27,373.39,438,412s-22.81,65.87-25.66,57,6-54.47,10.46-71.57c0,0-7.28,59.22.63,37.69S461.09,322.08,462,311.63,449.05,324.62,430.37,366.1Z"/></g></g><path id="shadow" class="cls-22" d="M702.67,555.09c0,8.76-157.3,15.86-351.34,15.86S0,563.85,0,555.09s157.27-15.86,351.33-15.86S702.67,546.33,702.67,555.09Z"/></g></g></svg>
