<?xml version="1.0" encoding="utf-8"?>
<!-- Generator: Adobe Illustrator 23.0.3, SVG Export Plug-In . SVG Version: 6.00 Build 0)  -->
<svg version="1.1" id="TOP_x5F_GREEN" xmlns="http://www.w3.org/2000/svg" xmlns:xlink="http://www.w3.org/1999/xlink" x="0px"
	 y="0px" viewBox="0 0 401 230" style="enable-background:new 0 0 401 230;" xml:space="preserve">
<style type="text/css">
	.st0{fill:#FFFFFF;}
	.st1{fill:#CCCCCC;}
	.st2{fill:url(#SVGID_1_);}
	.st3{fill:url(#SVGID_2_);}
	.st4{fill:url(#SVGID_3_);}
	.st5{fill:url(#SVGID_4_);}
	.st6{fill:url(#SVGID_5_);}
	.st7{fill:url(#SVGID_6_);}
	.st8{fill:url(#SVGID_7_);}
	.st9{fill:url(#SVGID_8_);}
	.st10{fill:url(#SVGID_9_);}
	.st11{fill:url(#SVGID_10_);}
	.st12{fill:url(#SVGID_11_);}
	.st13{fill:url(#SVGID_12_);}
	.st14{fill:url(#SVGID_13_);}
	.st15{fill:url(#SVGID_14_);}
	.st16{fill:url(#SVGID_15_);}
	.st17{fill:url(#SVGID_16_);}
	.st18{fill:url(#SVGID_17_);}
	.st19{fill:url(#SVGID_18_);}
	.st20{fill:url(#SVGID_19_);}
	.st21{fill:#22B573;}
	.st22{fill:url(#SVGID_20_);}
	.st23{fill:url(#SVGID_21_);}
	.st24{fill:url(#SVGID_22_);}
	.st25{fill:url(#SVGID_23_);}
	.st26{fill:url(#SVGID_24_);}
	.st27{fill:url(#SVGID_25_);}
	.st28{fill:url(#SVGID_26_);}
	.st29{fill:url(#SVGID_27_);}
	.st30{fill:url(#SVGID_28_);}
	.st31{fill:url(#SVGID_29_);}
	.st32{fill:url(#SVGID_30_);}
	.st33{fill:url(#SVGID_31_);}
	.st34{fill:url(#SVGID_32_);}
	.st35{fill:url(#SVGID_33_);}
	.st36{fill:url(#SVGID_34_);}
	.st37{fill:url(#SVGID_35_);}
	.st38{fill:url(#SVGID_36_);}
	.st39{fill:url(#SVGID_37_);}
	.st40{fill:url(#SVGID_38_);}
	.st41{fill:url(#SVGID_39_);}
	.st42{fill:url(#SVGID_40_);}
	.st43{fill:url(#SVGID_41_);}
	.st44{fill:url(#SVGID_42_);}
	.st45{fill:url(#SVGID_43_);}
	.st46{fill:url(#SVGID_44_);}
	.st47{fill:url(#SVGID_45_);}
	.st48{fill:url(#SVGID_46_);}
	.st49{fill:url(#SVGID_47_);}
	.st50{fill:url(#SVGID_48_);}
	.st51{fill:url(#SVGID_49_);}
	.st52{fill:url(#SVGID_50_);}
	.st53{fill:url(#SVGID_51_);}
	.st54{fill:url(#SVGID_52_);}
	.st55{fill:url(#SVGID_53_);}
	.st56{fill:url(#SVGID_54_);}
	.st57{fill:url(#SVGID_55_);}
	.st58{fill:url(#SVGID_56_);}
	.st59{fill:url(#SVGID_57_);}
	.st60{fill:url(#SVGID_58_);}
	.st61{fill:url(#SVGID_59_);}
	.st62{fill:url(#SVGID_60_);}
	.st63{fill:url(#SVGID_61_);}
	.st64{fill:url(#SVGID_62_);}
	.st65{fill:url(#SVGID_63_);}
	.st66{fill:url(#SVGID_64_);}
	.st67{fill:url(#SVGID_65_);}
	.st68{fill:url(#SVGID_66_);}
	.st69{fill:url(#SVGID_67_);}
	.st70{fill:url(#SVGID_68_);}
	.st71{fill:url(#SVGID_69_);}
	.st72{fill:url(#SVGID_70_);}
	.st73{fill:url(#SVGID_71_);}
	.st74{fill:url(#SVGID_72_);}
	.st75{fill:url(#SVGID_73_);}
	.st76{fill:url(#SVGID_74_);}
	.st77{fill:url(#SVGID_75_);}
	.st78{fill:url(#SVGID_76_);}
	.st79{opacity:0.57;fill:url(#SVGID_77_);}
	.st80{fill:url(#SVGID_78_);}
	.st81{fill:#F7F9F9;}
	.st82{fill:url(#SVGID_79_);}
	.st83{fill:url(#SVGID_80_);}
	.st84{fill:url(#SVGID_81_);}
	.st85{fill:url(#SVGID_82_);}
	.st86{fill:url(#SVGID_83_);}
	.st87{fill:url(#SVGID_84_);}
	.st88{opacity:0.57;fill:url(#SVGID_85_);}
	.st89{fill:url(#SVGID_86_);}
	.st90{fill:url(#SVGID_87_);}
	.st91{fill:url(#SVGID_88_);}
	.st92{fill:url(#SVGID_89_);}
	.st93{fill:url(#SVGID_90_);}
	.st94{fill:url(#SVGID_91_);}
	.st95{fill:url(#SVGID_92_);}
	.st96{opacity:0.57;fill:url(#SVGID_93_);}
	.st97{fill:url(#SVGID_94_);}
	.st98{fill:url(#SVGID_95_);}
	.st99{fill:url(#SVGID_96_);}
	.st100{fill:url(#SVGID_97_);}
	.st101{fill:url(#SVGID_98_);}
	.st102{fill:url(#SVGID_99_);}
	.st103{fill:url(#SVGID_100_);}
	.st104{opacity:0.57;fill:url(#SVGID_101_);}
	.st105{fill:url(#SVGID_102_);}
	.st106{fill:url(#SVGID_103_);}
	.st107{fill:url(#SVGID_104_);}
	.st108{fill:url(#SVGID_105_);}
	.st109{fill:url(#SVGID_106_);}
	.st110{fill:url(#SVGID_107_);}
	.st111{fill:url(#SVGID_108_);}
</style>
<rect id="BG" y="0" width="401" height="230"/>
<g id="STICKS">
	<g id="STICK4">
		<path class="st0" d="M330,219.39c0,3.1-2.51,5.61-5.61,5.61h-0.78c-3.1,0-5.61-2.51-5.61-5.61V5.61c0-3.1,2.51-5.61,5.61-5.61
			h0.78c3.1,0,5.61,2.51,5.61,5.61V219.39z"/>
		<path class="st1" d="M332,220.39c0,3.1-2.51,5.61-5.61,5.61h-0.78c-3.1,0-5.61-2.51-5.61-5.61V6.61c0-3.1,2.51-5.61,5.61-5.61
			h0.78c3.1,0,5.61,2.51,5.61,5.61V220.39z"/>
	</g>
	<g id="STICK_x5F_1">
		<path class="st0" d="M47,219.39c0,3.1-2.51,5.61-5.61,5.61h-0.78c-3.1,0-5.61-2.51-5.61-5.61V5.61C35,2.51,37.51,0,40.61,0h0.78
			C44.49,0,47,2.51,47,5.61V219.39z"/>
		<path class="st1" d="M49,220.39c0,3.1-2.51,5.61-5.61,5.61h-0.78c-3.1,0-5.61-2.51-5.61-5.61V6.61C37,3.51,39.51,1,42.61,1h0.78
			C46.49,1,49,3.51,49,6.61V220.39z"/>
	</g>
	<g id="STICK_x5F_2">
		<path class="st0" d="M141,219.39c0,3.1-2.51,5.61-5.61,5.61h-0.78c-3.1,0-5.61-2.51-5.61-5.61V5.61c0-3.1,2.51-5.61,5.61-5.61
			h0.78c3.1,0,5.61,2.51,5.61,5.61V219.39z"/>
		<path class="st1" d="M143,220.39c0,3.1-2.51,5.61-5.61,5.61h-0.78c-3.1,0-5.61-2.51-5.61-5.61V6.61c0-3.1,2.51-5.61,5.61-5.61
			h0.78c3.1,0,5.61,2.51,5.61,5.61V220.39z"/>
	</g>
	<g id="STICK3">
		<path class="st0" d="M236,219.39c0,3.1-2.51,5.61-5.61,5.61h-0.78c-3.1,0-5.61-2.51-5.61-5.61V5.61c0-3.1,2.51-5.61,5.61-5.61
			h0.78c3.1,0,5.61,2.51,5.61,5.61V219.39z"/>
		<path class="st1" d="M238,220.39c0,3.1-2.51,5.61-5.61,5.61h-0.78c-3.1,0-5.61-2.51-5.61-5.61V6.61c0-3.1,2.51-5.61,5.61-5.61
			h0.78c3.1,0,5.61,2.51,5.61,5.61V220.39z"/>
	</g>
</g>
<g id="GREEN_x5F_LIGHTS">
	<g id="GREEN_x5F_1">
		<linearGradient id="SVGID_1_" gradientUnits="userSpaceOnUse" x1="72.9585" y1="13" x2="72.9585" y2="9">
			<stop  offset="0.0817" style="stop-color:#BDEEB8"/>
			<stop  offset="1" style="stop-color:#22B573"/>
		</linearGradient>
		<path class="st2" d="M76.94,11c0,1.1-0.59,2-1.33,2h-5.31c-0.73,0-1.33-0.9-1.33-2l0,0c0-1.1,0.59-2,1.33-2h5.31
			C76.34,9,76.94,9.9,76.94,11L76.94,11z"/>
		<linearGradient id="SVGID_2_" gradientUnits="userSpaceOnUse" x1="72.9585" y1="25" x2="72.9585" y2="21">
			<stop  offset="0.0817" style="stop-color:#BDEEB8"/>
			<stop  offset="1" style="stop-color:#22B573"/>
		</linearGradient>
		<path class="st3" d="M76.94,23c0,1.1-0.59,2-1.33,2h-5.31c-0.73,0-1.33-0.9-1.33-2l0,0c0-1.1,0.59-2,1.33-2h5.31
			C76.34,21,76.94,21.9,76.94,23L76.94,23z"/>
		<linearGradient id="SVGID_3_" gradientUnits="userSpaceOnUse" x1="72.9585" y1="36" x2="72.9585" y2="32">
			<stop  offset="0.0817" style="stop-color:#BDEEB8"/>
			<stop  offset="1" style="stop-color:#22B573"/>
		</linearGradient>
		<path class="st4" d="M76.94,34c0,1.1-0.59,2-1.33,2h-5.31c-0.73,0-1.33-0.9-1.33-2l0,0c0-1.1,0.59-2,1.33-2h5.31
			C76.34,32,76.94,32.9,76.94,34L76.94,34z"/>
		<linearGradient id="SVGID_4_" gradientUnits="userSpaceOnUse" x1="72.9585" y1="48" x2="72.9585" y2="44">
			<stop  offset="0.0817" style="stop-color:#BDEEB8"/>
			<stop  offset="1" style="stop-color:#22B573"/>
		</linearGradient>
		<path class="st5" d="M76.94,46c0,1.1-0.59,2-1.33,2h-5.31c-0.73,0-1.33-0.9-1.33-2l0,0c0-1.1,0.59-2,1.33-2h5.31
			C76.34,44,76.94,44.9,76.94,46L76.94,46z"/>
		<linearGradient id="SVGID_5_" gradientUnits="userSpaceOnUse" x1="72.9585" y1="59" x2="72.9585" y2="55">
			<stop  offset="0.0817" style="stop-color:#BDEEB8"/>
			<stop  offset="1" style="stop-color:#22B573"/>
		</linearGradient>
		<path class="st6" d="M76.94,57c0,1.1-0.59,2-1.33,2h-5.31c-0.73,0-1.33-0.9-1.33-2l0,0c0-1.1,0.59-2,1.33-2h5.31
			C76.34,55,76.94,55.9,76.94,57L76.94,57z"/>
		<linearGradient id="SVGID_6_" gradientUnits="userSpaceOnUse" x1="72.9585" y1="71" x2="72.9585" y2="67">
			<stop  offset="0.0817" style="stop-color:#BDEEB8"/>
			<stop  offset="1" style="stop-color:#22B573"/>
		</linearGradient>
		<path class="st7" d="M76.94,69c0,1.1-0.59,2-1.33,2h-5.31c-0.73,0-1.33-0.9-1.33-2l0,0c0-1.1,0.59-2,1.33-2h5.31
			C76.34,67,76.94,67.9,76.94,69L76.94,69z"/>
		<linearGradient id="SVGID_7_" gradientUnits="userSpaceOnUse" x1="72.9585" y1="82" x2="72.9585" y2="78">
			<stop  offset="0.0817" style="stop-color:#BDEEB8"/>
			<stop  offset="1" style="stop-color:#22B573"/>
		</linearGradient>
		<path class="st8" d="M76.94,80c0,1.1-0.59,2-1.33,2h-5.31c-0.73,0-1.33-0.9-1.33-2l0,0c0-1.1,0.59-2,1.33-2h5.31
			C76.34,78,76.94,78.9,76.94,80L76.94,80z"/>
		<linearGradient id="SVGID_8_" gradientUnits="userSpaceOnUse" x1="72.9585" y1="94" x2="72.9585" y2="90">
			<stop  offset="0.0817" style="stop-color:#BDEEB8"/>
			<stop  offset="1" style="stop-color:#22B573"/>
		</linearGradient>
		<path class="st9" d="M76.94,92c0,1.1-0.59,2-1.33,2h-5.31c-0.73,0-1.33-0.9-1.33-2l0,0c0-1.1,0.59-2,1.33-2h5.31
			C76.34,90,76.94,90.9,76.94,92L76.94,92z"/>
		<linearGradient id="SVGID_9_" gradientUnits="userSpaceOnUse" x1="72.9585" y1="105" x2="72.9585" y2="101">
			<stop  offset="0.0817" style="stop-color:#BDEEB8"/>
			<stop  offset="1" style="stop-color:#22B573"/>
		</linearGradient>
		<path class="st10" d="M76.94,103c0,1.1-0.59,2-1.33,2h-5.31c-0.73,0-1.33-0.9-1.33-2l0,0c0-1.1,0.59-2,1.33-2h5.31
			C76.34,101,76.94,101.9,76.94,103L76.94,103z"/>
		<linearGradient id="SVGID_10_" gradientUnits="userSpaceOnUse" x1="72.9585" y1="117" x2="72.9585" y2="113">
			<stop  offset="0.0817" style="stop-color:#BDEEB8"/>
			<stop  offset="1" style="stop-color:#22B573"/>
		</linearGradient>
		<path class="st11" d="M76.94,115c0,1.1-0.59,2-1.33,2h-5.31c-0.73,0-1.33-0.9-1.33-2l0,0c0-1.1,0.59-2,1.33-2h5.31
			C76.34,113,76.94,113.9,76.94,115L76.94,115z"/>
		<linearGradient id="SVGID_11_" gradientUnits="userSpaceOnUse" x1="72.9585" y1="129" x2="72.9585" y2="125">
			<stop  offset="0.0817" style="stop-color:#BDEEB8"/>
			<stop  offset="1" style="stop-color:#22B573"/>
		</linearGradient>
		<path class="st12" d="M76.94,127c0,1.1-0.59,2-1.33,2h-5.31c-0.73,0-1.33-0.9-1.33-2l0,0c0-1.1,0.59-2,1.33-2h5.31
			C76.34,125,76.94,125.9,76.94,127L76.94,127z"/>
		<linearGradient id="SVGID_12_" gradientUnits="userSpaceOnUse" x1="72.9585" y1="140" x2="72.9585" y2="136">
			<stop  offset="0.0817" style="stop-color:#BDEEB8"/>
			<stop  offset="1" style="stop-color:#22B573"/>
		</linearGradient>
		<path class="st13" d="M76.94,138c0,1.1-0.59,2-1.33,2h-5.31c-0.73,0-1.33-0.9-1.33-2l0,0c0-1.1,0.59-2,1.33-2h5.31
			C76.34,136,76.94,136.9,76.94,138L76.94,138z"/>
		<linearGradient id="SVGID_13_" gradientUnits="userSpaceOnUse" x1="72.9585" y1="152" x2="72.9585" y2="148">
			<stop  offset="0.0817" style="stop-color:#BDEEB8"/>
			<stop  offset="1" style="stop-color:#22B573"/>
		</linearGradient>
		<path class="st14" d="M76.94,150c0,1.1-0.59,2-1.33,2h-5.31c-0.73,0-1.33-0.9-1.33-2l0,0c0-1.1,0.59-2,1.33-2h5.31
			C76.34,148,76.94,148.9,76.94,150L76.94,150z"/>
		<linearGradient id="SVGID_14_" gradientUnits="userSpaceOnUse" x1="72.9585" y1="163" x2="72.9585" y2="159">
			<stop  offset="0.0817" style="stop-color:#BDEEB8"/>
			<stop  offset="1" style="stop-color:#22B573"/>
		</linearGradient>
		<path class="st15" d="M76.94,161c0,1.1-0.59,2-1.33,2h-5.31c-0.73,0-1.33-0.9-1.33-2l0,0c0-1.1,0.59-2,1.33-2h5.31
			C76.34,159,76.94,159.9,76.94,161L76.94,161z"/>
		<linearGradient id="SVGID_15_" gradientUnits="userSpaceOnUse" x1="72.9585" y1="175" x2="72.9585" y2="171">
			<stop  offset="0.0817" style="stop-color:#BDEEB8"/>
			<stop  offset="1" style="stop-color:#22B573"/>
		</linearGradient>
		<path class="st16" d="M76.94,173c0,1.1-0.59,2-1.33,2h-5.31c-0.73,0-1.33-0.9-1.33-2l0,0c0-1.1,0.59-2,1.33-2h5.31
			C76.34,171,76.94,171.9,76.94,173L76.94,173z"/>
		<linearGradient id="SVGID_16_" gradientUnits="userSpaceOnUse" x1="72.9585" y1="186" x2="72.9585" y2="182">
			<stop  offset="0.0817" style="stop-color:#BDEEB8"/>
			<stop  offset="1" style="stop-color:#22B573"/>
		</linearGradient>
		<path class="st17" d="M76.94,184c0,1.1-0.59,2-1.33,2h-5.31c-0.73,0-1.33-0.9-1.33-2l0,0c0-1.1,0.59-2,1.33-2h5.31
			C76.34,182,76.94,182.9,76.94,184L76.94,184z"/>
		<linearGradient id="SVGID_17_" gradientUnits="userSpaceOnUse" x1="72.9585" y1="198" x2="72.9585" y2="194">
			<stop  offset="0.0817" style="stop-color:#BDEEB8"/>
			<stop  offset="1" style="stop-color:#22B573"/>
		</linearGradient>
		<path class="st18" d="M76.94,196c0,1.1-0.59,2-1.33,2h-5.31c-0.73,0-1.33-0.9-1.33-2l0,0c0-1.1,0.59-2,1.33-2h5.31
			C76.34,194,76.94,194.9,76.94,196L76.94,196z"/>
		<linearGradient id="SVGID_18_" gradientUnits="userSpaceOnUse" x1="72.9585" y1="209" x2="72.9585" y2="205">
			<stop  offset="0.0817" style="stop-color:#BDEEB8"/>
			<stop  offset="1" style="stop-color:#22B573"/>
		</linearGradient>
		<path class="st19" d="M76.94,207c0,1.1-0.59,2-1.33,2h-5.31c-0.73,0-1.33-0.9-1.33-2l0,0c0-1.1,0.59-2,1.33-2h5.31
			C76.34,205,76.94,205.9,76.94,207L76.94,207z"/>
		<linearGradient id="SVGID_19_" gradientUnits="userSpaceOnUse" x1="72.9585" y1="221" x2="72.9585" y2="217">
			<stop  offset="0.0817" style="stop-color:#BDEEB8"/>
			<stop  offset="1" style="stop-color:#22B573"/>
		</linearGradient>
		<path class="st20" d="M76.94,219c0,1.1-0.59,2-1.33,2h-5.31c-0.73,0-1.33-0.9-1.33-2l0,0c0-1.1,0.59-2,1.33-2h5.31
			C76.34,217,76.94,217.9,76.94,219L76.94,219z"/>
		<g id="TEXT1">
			<g>
				<path class="st21" d="M85.88,215.88c0-0.12,0.05-0.15,0.13-0.15h0.38l1.13,3.64c0.07,0.22,0.36,1.25,0.36,1.25s0.29-1,0.35-1.21
					l1.09-3.53c0.02-0.06,0.04-0.15,0.15-0.15h0.44v7.13c0,0.13,0,0.13-0.58,0.13l0.02-3l0.09-2.93l-0.78,2.59l-0.6,1.76
					c-0.02,0.06-0.07,0.09-0.11,0.09h-0.27l-0.58-1.86c-0.04-0.11-0.52-1.71-0.78-2.55c0.02,0.5,0.09,2.3,0.1,2.81l0.01,2.94
					c0,0.13-0.02,0.13-0.56,0.13V215.88z"/>
				<path class="st21" d="M91.03,216.03c0-0.29,0.02-0.29,0.58-0.29v7.13c0,0.13-0.01,0.13-0.58,0.13V216.03z"/>
				<path class="st21" d="M94.54,220.08c-0.11-0.27-0.93-2.38-1.27-3.25c0.02,0.77,0.04,3.27,0.04,3.49v2.54
					c0,0.13,0,0.13-0.56,0.13v-7.12c0-0.1,0.04-0.15,0.13-0.15h0.41l1.25,2.86c0.11,0.32,0.97,2.5,1.29,3.28
					c-0.04-0.62-0.05-3.29-0.05-3.54v-2.46c0-0.15,0.01-0.15,0.57-0.15v7.13c0,0.08-0.05,0.13-0.13,0.13h-0.39L94.54,220.08z"/>
			</g>
			<g>
				<path class="st21" d="M84.55,8.91c0-0.17,0.08-0.18,0.18-0.18h0.61l0.99,3.13c0.12,0.41,0.31,1.09,0.33,1.16
					c0.01-0.04,0.18-0.75,0.3-1.13l0.91-2.99c0.03-0.1,0.06-0.18,0.17-0.18h0.68v7.1c0,0.17,0,0.17-0.86,0.17l0.03-2.52
					c0.02-0.99,0.17-2.74,0.19-3.06c-0.22,0.78-0.58,2.08-0.66,2.32l-0.55,1.58c-0.02,0.07-0.07,0.08-0.11,0.08h-0.36l-0.54-1.66
					c-0.08-0.23-0.45-1.55-0.67-2.35v0.01c0,0,0.19,1.92,0.2,3.03l0.02,2.4c0,0.17-0.05,0.17-0.84,0.17V8.91z"/>
				<path class="st21" d="M92.34,14.15h-1.79l-0.4,1.7c-0.03,0.11-0.06,0.17-0.39,0.17c-0.11,0-0.33-0.01-0.53-0.03l1.85-7.14
					c0.02-0.1,0.14-0.14,0.32-0.14c0.15,0,0.29,0.01,0.39,0.03l1.86,7.11c0.02,0.11-0.03,0.18-0.36,0.18c-0.12,0-0.29,0-0.5-0.02
					L92.34,14.15z M90.74,13.38h1.43l-0.35-1.47c-0.17-0.69-0.31-1.49-0.36-1.99c-0.06,0.5-0.21,1.3-0.36,1.99L90.74,13.38z"/>
				<path class="st21" d="M96.49,12.18l1.48,3.67C98.03,15.95,98,16,97.89,16h-0.92l-0.56-1.4c-0.22-0.55-0.42-1.14-0.55-1.52
					c-0.12,0.36-0.33,0.96-0.57,1.52l-0.56,1.3c-0.05,0.08-0.09,0.1-0.2,0.1H93.8l1.58-3.76l-1.3-3.36c-0.05-0.15,0-0.15,1-0.15
					l0.42,1.17c0.22,0.59,0.4,1.2,0.51,1.56c0.1-0.34,0.29-0.96,0.52-1.56l0.39-1.04c0.04-0.14,0.03-0.14,0.91-0.14L96.49,12.18z"/>
			</g>
		</g>
	</g>
	<g id="GREEN_x5F_4">
		<g>
			<linearGradient id="SVGID_20_" gradientUnits="userSpaceOnUse" x1="357.9585" y1="11" x2="357.9585" y2="7">
				<stop  offset="0.0817" style="stop-color:#BDEEB8"/>
				<stop  offset="1" style="stop-color:#22B573"/>
			</linearGradient>
			<path class="st22" d="M361.94,9c0,1.1-0.59,2-1.33,2h-5.31c-0.73,0-1.33-0.9-1.33-2l0,0c0-1.1,0.59-2,1.33-2h5.31
				C361.34,7,361.94,7.9,361.94,9L361.94,9z"/>
			<linearGradient id="SVGID_21_" gradientUnits="userSpaceOnUse" x1="357.9585" y1="23" x2="357.9585" y2="19">
				<stop  offset="0.0817" style="stop-color:#BDEEB8"/>
				<stop  offset="1" style="stop-color:#22B573"/>
			</linearGradient>
			<path class="st23" d="M361.94,21c0,1.1-0.59,2-1.33,2h-5.31c-0.73,0-1.33-0.9-1.33-2l0,0c0-1.1,0.59-2,1.33-2h5.31
				C361.34,19,361.94,19.9,361.94,21L361.94,21z"/>
			<linearGradient id="SVGID_22_" gradientUnits="userSpaceOnUse" x1="357.9585" y1="34" x2="357.9585" y2="30">
				<stop  offset="0.0817" style="stop-color:#BDEEB8"/>
				<stop  offset="1" style="stop-color:#22B573"/>
			</linearGradient>
			<path class="st24" d="M361.94,32c0,1.1-0.59,2-1.33,2h-5.31c-0.73,0-1.33-0.9-1.33-2l0,0c0-1.1,0.59-2,1.33-2h5.31
				C361.34,30,361.94,30.9,361.94,32L361.94,32z"/>
			<linearGradient id="SVGID_23_" gradientUnits="userSpaceOnUse" x1="357.9585" y1="46" x2="357.9585" y2="42">
				<stop  offset="0.0817" style="stop-color:#BDEEB8"/>
				<stop  offset="1" style="stop-color:#22B573"/>
			</linearGradient>
			<path class="st25" d="M361.94,44c0,1.1-0.59,2-1.33,2h-5.31c-0.73,0-1.33-0.9-1.33-2l0,0c0-1.1,0.59-2,1.33-2h5.31
				C361.34,42,361.94,42.9,361.94,44L361.94,44z"/>
			<linearGradient id="SVGID_24_" gradientUnits="userSpaceOnUse" x1="357.9585" y1="57" x2="357.9585" y2="53">
				<stop  offset="0.0817" style="stop-color:#BDEEB8"/>
				<stop  offset="1" style="stop-color:#22B573"/>
			</linearGradient>
			<path class="st26" d="M361.94,55c0,1.1-0.59,2-1.33,2h-5.31c-0.73,0-1.33-0.9-1.33-2l0,0c0-1.1,0.59-2,1.33-2h5.31
				C361.34,53,361.94,53.9,361.94,55L361.94,55z"/>
			<linearGradient id="SVGID_25_" gradientUnits="userSpaceOnUse" x1="357.9585" y1="69" x2="357.9585" y2="65">
				<stop  offset="0.0817" style="stop-color:#BDEEB8"/>
				<stop  offset="1" style="stop-color:#22B573"/>
			</linearGradient>
			<path class="st27" d="M361.94,67c0,1.1-0.59,2-1.33,2h-5.31c-0.73,0-1.33-0.9-1.33-2l0,0c0-1.1,0.59-2,1.33-2h5.31
				C361.34,65,361.94,65.9,361.94,67L361.94,67z"/>
			<linearGradient id="SVGID_26_" gradientUnits="userSpaceOnUse" x1="357.9585" y1="80" x2="357.9585" y2="76">
				<stop  offset="0.0817" style="stop-color:#BDEEB8"/>
				<stop  offset="1" style="stop-color:#22B573"/>
			</linearGradient>
			<path class="st28" d="M361.94,78c0,1.1-0.59,2-1.33,2h-5.31c-0.73,0-1.33-0.9-1.33-2l0,0c0-1.1,0.59-2,1.33-2h5.31
				C361.34,76,361.94,76.9,361.94,78L361.94,78z"/>
			<linearGradient id="SVGID_27_" gradientUnits="userSpaceOnUse" x1="357.9585" y1="92" x2="357.9585" y2="88">
				<stop  offset="0.0817" style="stop-color:#BDEEB8"/>
				<stop  offset="1" style="stop-color:#22B573"/>
			</linearGradient>
			<path class="st29" d="M361.94,90c0,1.1-0.59,2-1.33,2h-5.31c-0.73,0-1.33-0.9-1.33-2l0,0c0-1.1,0.59-2,1.33-2h5.31
				C361.34,88,361.94,88.9,361.94,90L361.94,90z"/>
			<linearGradient id="SVGID_28_" gradientUnits="userSpaceOnUse" x1="357.9585" y1="103" x2="357.9585" y2="99">
				<stop  offset="0.0817" style="stop-color:#BDEEB8"/>
				<stop  offset="1" style="stop-color:#22B573"/>
			</linearGradient>
			<path class="st30" d="M361.94,101c0,1.1-0.59,2-1.33,2h-5.31c-0.73,0-1.33-0.9-1.33-2l0,0c0-1.1,0.59-2,1.33-2h5.31
				C361.34,99,361.94,99.9,361.94,101L361.94,101z"/>
			<linearGradient id="SVGID_29_" gradientUnits="userSpaceOnUse" x1="357.9585" y1="115" x2="357.9585" y2="111">
				<stop  offset="0.0817" style="stop-color:#BDEEB8"/>
				<stop  offset="1" style="stop-color:#22B573"/>
			</linearGradient>
			<path class="st31" d="M361.94,113c0,1.1-0.59,2-1.33,2h-5.31c-0.73,0-1.33-0.9-1.33-2l0,0c0-1.1,0.59-2,1.33-2h5.31
				C361.34,111,361.94,111.9,361.94,113L361.94,113z"/>
			<linearGradient id="SVGID_30_" gradientUnits="userSpaceOnUse" x1="357.9585" y1="127" x2="357.9585" y2="123">
				<stop  offset="0.0817" style="stop-color:#BDEEB8"/>
				<stop  offset="1" style="stop-color:#22B573"/>
			</linearGradient>
			<path class="st32" d="M361.94,125c0,1.1-0.59,2-1.33,2h-5.31c-0.73,0-1.33-0.9-1.33-2l0,0c0-1.1,0.59-2,1.33-2h5.31
				C361.34,123,361.94,123.9,361.94,125L361.94,125z"/>
			<linearGradient id="SVGID_31_" gradientUnits="userSpaceOnUse" x1="357.9585" y1="138" x2="357.9585" y2="134">
				<stop  offset="0.0817" style="stop-color:#BDEEB8"/>
				<stop  offset="1" style="stop-color:#22B573"/>
			</linearGradient>
			<path class="st33" d="M361.94,136c0,1.1-0.59,2-1.33,2h-5.31c-0.73,0-1.33-0.9-1.33-2l0,0c0-1.1,0.59-2,1.33-2h5.31
				C361.34,134,361.94,134.9,361.94,136L361.94,136z"/>
			<linearGradient id="SVGID_32_" gradientUnits="userSpaceOnUse" x1="357.9585" y1="150" x2="357.9585" y2="146">
				<stop  offset="0.0817" style="stop-color:#BDEEB8"/>
				<stop  offset="1" style="stop-color:#22B573"/>
			</linearGradient>
			<path class="st34" d="M361.94,148c0,1.1-0.59,2-1.33,2h-5.31c-0.73,0-1.33-0.9-1.33-2l0,0c0-1.1,0.59-2,1.33-2h5.31
				C361.34,146,361.94,146.9,361.94,148L361.94,148z"/>
			<linearGradient id="SVGID_33_" gradientUnits="userSpaceOnUse" x1="357.9585" y1="161" x2="357.9585" y2="157">
				<stop  offset="0.0817" style="stop-color:#BDEEB8"/>
				<stop  offset="1" style="stop-color:#22B573"/>
			</linearGradient>
			<path class="st35" d="M361.94,159c0,1.1-0.59,2-1.33,2h-5.31c-0.73,0-1.33-0.9-1.33-2l0,0c0-1.1,0.59-2,1.33-2h5.31
				C361.34,157,361.94,157.9,361.94,159L361.94,159z"/>
			<linearGradient id="SVGID_34_" gradientUnits="userSpaceOnUse" x1="357.9585" y1="173" x2="357.9585" y2="169">
				<stop  offset="0.0817" style="stop-color:#BDEEB8"/>
				<stop  offset="1" style="stop-color:#22B573"/>
			</linearGradient>
			<path class="st36" d="M361.94,171c0,1.1-0.59,2-1.33,2h-5.31c-0.73,0-1.33-0.9-1.33-2l0,0c0-1.1,0.59-2,1.33-2h5.31
				C361.34,169,361.94,169.9,361.94,171L361.94,171z"/>
			<linearGradient id="SVGID_35_" gradientUnits="userSpaceOnUse" x1="357.9585" y1="184" x2="357.9585" y2="180">
				<stop  offset="0.0817" style="stop-color:#BDEEB8"/>
				<stop  offset="1" style="stop-color:#22B573"/>
			</linearGradient>
			<path class="st37" d="M361.94,182c0,1.1-0.59,2-1.33,2h-5.31c-0.73,0-1.33-0.9-1.33-2l0,0c0-1.1,0.59-2,1.33-2h5.31
				C361.34,180,361.94,180.9,361.94,182L361.94,182z"/>
			<linearGradient id="SVGID_36_" gradientUnits="userSpaceOnUse" x1="357.9585" y1="196" x2="357.9585" y2="192">
				<stop  offset="0.0817" style="stop-color:#BDEEB8"/>
				<stop  offset="1" style="stop-color:#22B573"/>
			</linearGradient>
			<path class="st38" d="M361.94,194c0,1.1-0.59,2-1.33,2h-5.31c-0.73,0-1.33-0.9-1.33-2l0,0c0-1.1,0.59-2,1.33-2h5.31
				C361.34,192,361.94,192.9,361.94,194L361.94,194z"/>
			<linearGradient id="SVGID_37_" gradientUnits="userSpaceOnUse" x1="357.9585" y1="207" x2="357.9585" y2="203">
				<stop  offset="0.0817" style="stop-color:#BDEEB8"/>
				<stop  offset="1" style="stop-color:#22B573"/>
			</linearGradient>
			<path class="st39" d="M361.94,205c0,1.1-0.59,2-1.33,2h-5.31c-0.73,0-1.33-0.9-1.33-2l0,0c0-1.1,0.59-2,1.33-2h5.31
				C361.34,203,361.94,203.9,361.94,205L361.94,205z"/>
			<linearGradient id="SVGID_38_" gradientUnits="userSpaceOnUse" x1="357.9585" y1="219" x2="357.9585" y2="215">
				<stop  offset="0.0817" style="stop-color:#BDEEB8"/>
				<stop  offset="1" style="stop-color:#22B573"/>
			</linearGradient>
			<path class="st40" d="M361.94,217c0,1.1-0.59,2-1.33,2h-5.31c-0.73,0-1.33-0.9-1.33-2l0,0c0-1.1,0.59-2,1.33-2h5.31
				C361.34,215,361.94,215.9,361.94,217L361.94,217z"/>
		</g>
		<g>
			<g>
				<path class="st21" d="M370.88,213.88c0-0.12,0.05-0.15,0.13-0.15h0.38l1.13,3.64c0.07,0.22,0.36,1.25,0.36,1.25
					s0.29-1,0.35-1.21l1.09-3.53c0.02-0.06,0.04-0.15,0.15-0.15h0.44v7.13c0,0.13,0,0.13-0.58,0.13l0.02-3l0.09-2.93l-0.78,2.59
					l-0.6,1.76c-0.02,0.06-0.07,0.09-0.11,0.09h-0.27l-0.58-1.86c-0.04-0.11-0.52-1.71-0.78-2.55c0.02,0.5,0.09,2.3,0.1,2.81
					l0.01,2.94c0,0.13-0.02,0.13-0.56,0.13V213.88z"/>
				<path class="st21" d="M376.03,214.03c0-0.29,0.02-0.29,0.58-0.29v7.13c0,0.13-0.01,0.13-0.58,0.13V214.03z"/>
				<path class="st21" d="M379.54,218.08c-0.11-0.27-0.93-2.38-1.27-3.25c0.02,0.77,0.04,3.27,0.04,3.49v2.54
					c0,0.13,0,0.13-0.56,0.13v-7.12c0-0.1,0.04-0.15,0.13-0.15h0.41l1.25,2.86c0.11,0.32,0.97,2.5,1.29,3.28
					c-0.04-0.62-0.05-3.29-0.05-3.54v-2.46c0-0.15,0.01-0.15,0.57-0.15v7.13c0,0.08-0.05,0.13-0.13,0.13h-0.39L379.54,218.08z"/>
			</g>
			<g>
				<path class="st21" d="M369.55,6.91c0-0.17,0.08-0.18,0.18-0.18h0.61l0.99,3.13c0.12,0.41,0.31,1.09,0.33,1.16
					c0.01-0.04,0.18-0.75,0.3-1.13l0.91-2.99c0.03-0.1,0.06-0.18,0.17-0.18h0.68v7.1c0,0.17,0,0.17-0.86,0.17l0.03-2.52
					c0.02-0.99,0.17-2.74,0.19-3.06c-0.22,0.78-0.58,2.08-0.66,2.32l-0.55,1.58c-0.02,0.07-0.07,0.08-0.11,0.08h-0.36l-0.54-1.66
					c-0.08-0.23-0.45-1.55-0.67-2.35v0.01c0,0,0.19,1.92,0.2,3.03l0.02,2.4c0,0.17-0.05,0.17-0.84,0.17V6.91z"/>
				<path class="st21" d="M377.34,12.15h-1.79l-0.4,1.7c-0.03,0.11-0.06,0.17-0.39,0.17c-0.11,0-0.33-0.01-0.53-0.03l1.85-7.14
					c0.02-0.1,0.14-0.14,0.32-0.14c0.15,0,0.29,0.01,0.39,0.03l1.86,7.11c0.02,0.11-0.03,0.18-0.36,0.18c-0.12,0-0.29,0-0.5-0.02
					L377.34,12.15z M375.74,11.38h1.43l-0.35-1.47c-0.17-0.69-0.31-1.49-0.36-1.99c-0.06,0.5-0.21,1.3-0.36,1.99L375.74,11.38z"/>
				<path class="st21" d="M381.49,10.18l1.48,3.67c0.05,0.09,0.02,0.15-0.08,0.15h-0.92l-0.56-1.4c-0.22-0.55-0.42-1.14-0.55-1.52
					c-0.12,0.36-0.33,0.96-0.57,1.52l-0.56,1.3c-0.05,0.08-0.09,0.1-0.2,0.1h-0.73l1.58-3.76l-1.3-3.36c-0.05-0.15,0-0.15,1-0.15
					l0.42,1.17c0.22,0.59,0.4,1.2,0.51,1.56c0.1-0.34,0.29-0.96,0.52-1.56l0.39-1.04c0.04-0.14,0.03-0.14,0.91-0.14L381.49,10.18z"
					/>
			</g>
		</g>
	</g>
	<g id="GEEN_x5F_3">
		<g>
			<linearGradient id="SVGID_39_" gradientUnits="userSpaceOnUse" x1="263.9585" y1="10" x2="263.9585" y2="6">
				<stop  offset="0.0817" style="stop-color:#BDEEB8"/>
				<stop  offset="1" style="stop-color:#22B573"/>
			</linearGradient>
			<path class="st41" d="M267.94,8c0,1.1-0.59,2-1.33,2h-5.31c-0.73,0-1.33-0.9-1.33-2l0,0c0-1.1,0.59-2,1.33-2h5.31
				C267.34,6,267.94,6.9,267.94,8L267.94,8z"/>
			<linearGradient id="SVGID_40_" gradientUnits="userSpaceOnUse" x1="263.9585" y1="22" x2="263.9585" y2="18">
				<stop  offset="0.0817" style="stop-color:#BDEEB8"/>
				<stop  offset="1" style="stop-color:#22B573"/>
			</linearGradient>
			<path class="st42" d="M267.94,20c0,1.1-0.59,2-1.33,2h-5.31c-0.73,0-1.33-0.9-1.33-2l0,0c0-1.1,0.59-2,1.33-2h5.31
				C267.34,18,267.94,18.9,267.94,20L267.94,20z"/>
			<linearGradient id="SVGID_41_" gradientUnits="userSpaceOnUse" x1="263.9585" y1="33" x2="263.9585" y2="29">
				<stop  offset="0.0817" style="stop-color:#BDEEB8"/>
				<stop  offset="1" style="stop-color:#22B573"/>
			</linearGradient>
			<path class="st43" d="M267.94,31c0,1.1-0.59,2-1.33,2h-5.31c-0.73,0-1.33-0.9-1.33-2l0,0c0-1.1,0.59-2,1.33-2h5.31
				C267.34,29,267.94,29.9,267.94,31L267.94,31z"/>
			<linearGradient id="SVGID_42_" gradientUnits="userSpaceOnUse" x1="263.9585" y1="45" x2="263.9585" y2="41">
				<stop  offset="0.0817" style="stop-color:#BDEEB8"/>
				<stop  offset="1" style="stop-color:#22B573"/>
			</linearGradient>
			<path class="st44" d="M267.94,43c0,1.1-0.59,2-1.33,2h-5.31c-0.73,0-1.33-0.9-1.33-2l0,0c0-1.1,0.59-2,1.33-2h5.31
				C267.34,41,267.94,41.9,267.94,43L267.94,43z"/>
			<linearGradient id="SVGID_43_" gradientUnits="userSpaceOnUse" x1="263.9585" y1="56" x2="263.9585" y2="52">
				<stop  offset="0.0817" style="stop-color:#BDEEB8"/>
				<stop  offset="1" style="stop-color:#22B573"/>
			</linearGradient>
			<path class="st45" d="M267.94,54c0,1.1-0.59,2-1.33,2h-5.31c-0.73,0-1.33-0.9-1.33-2l0,0c0-1.1,0.59-2,1.33-2h5.31
				C267.34,52,267.94,52.9,267.94,54L267.94,54z"/>
			<linearGradient id="SVGID_44_" gradientUnits="userSpaceOnUse" x1="263.9585" y1="68" x2="263.9585" y2="64">
				<stop  offset="0.0817" style="stop-color:#BDEEB8"/>
				<stop  offset="1" style="stop-color:#22B573"/>
			</linearGradient>
			<path class="st46" d="M267.94,66c0,1.1-0.59,2-1.33,2h-5.31c-0.73,0-1.33-0.9-1.33-2l0,0c0-1.1,0.59-2,1.33-2h5.31
				C267.34,64,267.94,64.9,267.94,66L267.94,66z"/>
			<linearGradient id="SVGID_45_" gradientUnits="userSpaceOnUse" x1="263.9585" y1="79" x2="263.9585" y2="75">
				<stop  offset="0.0817" style="stop-color:#BDEEB8"/>
				<stop  offset="1" style="stop-color:#22B573"/>
			</linearGradient>
			<path class="st47" d="M267.94,77c0,1.1-0.59,2-1.33,2h-5.31c-0.73,0-1.33-0.9-1.33-2l0,0c0-1.1,0.59-2,1.33-2h5.31
				C267.34,75,267.94,75.9,267.94,77L267.94,77z"/>
			<linearGradient id="SVGID_46_" gradientUnits="userSpaceOnUse" x1="263.9585" y1="91" x2="263.9585" y2="87">
				<stop  offset="0.0817" style="stop-color:#BDEEB8"/>
				<stop  offset="1" style="stop-color:#22B573"/>
			</linearGradient>
			<path class="st48" d="M267.94,89c0,1.1-0.59,2-1.33,2h-5.31c-0.73,0-1.33-0.9-1.33-2l0,0c0-1.1,0.59-2,1.33-2h5.31
				C267.34,87,267.94,87.9,267.94,89L267.94,89z"/>
			<linearGradient id="SVGID_47_" gradientUnits="userSpaceOnUse" x1="263.9585" y1="102" x2="263.9585" y2="98">
				<stop  offset="0.0817" style="stop-color:#BDEEB8"/>
				<stop  offset="1" style="stop-color:#22B573"/>
			</linearGradient>
			<path class="st49" d="M267.94,100c0,1.1-0.59,2-1.33,2h-5.31c-0.73,0-1.33-0.9-1.33-2l0,0c0-1.1,0.59-2,1.33-2h5.31
				C267.34,98,267.94,98.9,267.94,100L267.94,100z"/>
			<linearGradient id="SVGID_48_" gradientUnits="userSpaceOnUse" x1="263.9585" y1="114" x2="263.9585" y2="110">
				<stop  offset="0.0817" style="stop-color:#BDEEB8"/>
				<stop  offset="1" style="stop-color:#22B573"/>
			</linearGradient>
			<path class="st50" d="M267.94,112c0,1.1-0.59,2-1.33,2h-5.31c-0.73,0-1.33-0.9-1.33-2l0,0c0-1.1,0.59-2,1.33-2h5.31
				C267.34,110,267.94,110.9,267.94,112L267.94,112z"/>
			<linearGradient id="SVGID_49_" gradientUnits="userSpaceOnUse" x1="263.9585" y1="126" x2="263.9585" y2="122">
				<stop  offset="0.0817" style="stop-color:#BDEEB8"/>
				<stop  offset="1" style="stop-color:#22B573"/>
			</linearGradient>
			<path class="st51" d="M267.94,124c0,1.1-0.59,2-1.33,2h-5.31c-0.73,0-1.33-0.9-1.33-2l0,0c0-1.1,0.59-2,1.33-2h5.31
				C267.34,122,267.94,122.9,267.94,124L267.94,124z"/>
			<linearGradient id="SVGID_50_" gradientUnits="userSpaceOnUse" x1="263.9585" y1="137" x2="263.9585" y2="133">
				<stop  offset="0.0817" style="stop-color:#BDEEB8"/>
				<stop  offset="1" style="stop-color:#22B573"/>
			</linearGradient>
			<path class="st52" d="M267.94,135c0,1.1-0.59,2-1.33,2h-5.31c-0.73,0-1.33-0.9-1.33-2l0,0c0-1.1,0.59-2,1.33-2h5.31
				C267.34,133,267.94,133.9,267.94,135L267.94,135z"/>
			<linearGradient id="SVGID_51_" gradientUnits="userSpaceOnUse" x1="263.9585" y1="149" x2="263.9585" y2="145">
				<stop  offset="0.0817" style="stop-color:#BDEEB8"/>
				<stop  offset="1" style="stop-color:#22B573"/>
			</linearGradient>
			<path class="st53" d="M267.94,147c0,1.1-0.59,2-1.33,2h-5.31c-0.73,0-1.33-0.9-1.33-2l0,0c0-1.1,0.59-2,1.33-2h5.31
				C267.34,145,267.94,145.9,267.94,147L267.94,147z"/>
			<linearGradient id="SVGID_52_" gradientUnits="userSpaceOnUse" x1="263.9585" y1="160" x2="263.9585" y2="156">
				<stop  offset="0.0817" style="stop-color:#BDEEB8"/>
				<stop  offset="1" style="stop-color:#22B573"/>
			</linearGradient>
			<path class="st54" d="M267.94,158c0,1.1-0.59,2-1.33,2h-5.31c-0.73,0-1.33-0.9-1.33-2l0,0c0-1.1,0.59-2,1.33-2h5.31
				C267.34,156,267.94,156.9,267.94,158L267.94,158z"/>
			<linearGradient id="SVGID_53_" gradientUnits="userSpaceOnUse" x1="263.9585" y1="172" x2="263.9585" y2="168">
				<stop  offset="0.0817" style="stop-color:#BDEEB8"/>
				<stop  offset="1" style="stop-color:#22B573"/>
			</linearGradient>
			<path class="st55" d="M267.94,170c0,1.1-0.59,2-1.33,2h-5.31c-0.73,0-1.33-0.9-1.33-2l0,0c0-1.1,0.59-2,1.33-2h5.31
				C267.34,168,267.94,168.9,267.94,170L267.94,170z"/>
			<linearGradient id="SVGID_54_" gradientUnits="userSpaceOnUse" x1="263.9585" y1="183" x2="263.9585" y2="179">
				<stop  offset="0.0817" style="stop-color:#BDEEB8"/>
				<stop  offset="1" style="stop-color:#22B573"/>
			</linearGradient>
			<path class="st56" d="M267.94,181c0,1.1-0.59,2-1.33,2h-5.31c-0.73,0-1.33-0.9-1.33-2l0,0c0-1.1,0.59-2,1.33-2h5.31
				C267.34,179,267.94,179.9,267.94,181L267.94,181z"/>
			<linearGradient id="SVGID_55_" gradientUnits="userSpaceOnUse" x1="263.9585" y1="195" x2="263.9585" y2="191">
				<stop  offset="0.0817" style="stop-color:#BDEEB8"/>
				<stop  offset="1" style="stop-color:#22B573"/>
			</linearGradient>
			<path class="st57" d="M267.94,193c0,1.1-0.59,2-1.33,2h-5.31c-0.73,0-1.33-0.9-1.33-2l0,0c0-1.1,0.59-2,1.33-2h5.31
				C267.34,191,267.94,191.9,267.94,193L267.94,193z"/>
			<linearGradient id="SVGID_56_" gradientUnits="userSpaceOnUse" x1="263.9585" y1="206" x2="263.9585" y2="202">
				<stop  offset="0.0817" style="stop-color:#BDEEB8"/>
				<stop  offset="1" style="stop-color:#22B573"/>
			</linearGradient>
			<path class="st58" d="M267.94,204c0,1.1-0.59,2-1.33,2h-5.31c-0.73,0-1.33-0.9-1.33-2l0,0c0-1.1,0.59-2,1.33-2h5.31
				C267.34,202,267.94,202.9,267.94,204L267.94,204z"/>
			<linearGradient id="SVGID_57_" gradientUnits="userSpaceOnUse" x1="263.9585" y1="218" x2="263.9585" y2="214">
				<stop  offset="0.0817" style="stop-color:#BDEEB8"/>
				<stop  offset="1" style="stop-color:#22B573"/>
			</linearGradient>
			<path class="st59" d="M267.94,216c0,1.1-0.59,2-1.33,2h-5.31c-0.73,0-1.33-0.9-1.33-2l0,0c0-1.1,0.59-2,1.33-2h5.31
				C267.34,214,267.94,214.9,267.94,216L267.94,216z"/>
		</g>
		<g>
			<g>
				<path class="st21" d="M276.88,212.88c0-0.12,0.05-0.15,0.13-0.15h0.38l1.13,3.64c0.07,0.22,0.36,1.25,0.36,1.25
					s0.29-1,0.35-1.21l1.09-3.53c0.02-0.06,0.04-0.15,0.15-0.15h0.44v7.13c0,0.13,0,0.13-0.58,0.13l0.02-3l0.09-2.93l-0.78,2.59
					l-0.6,1.76c-0.02,0.06-0.07,0.09-0.11,0.09h-0.27l-0.58-1.86c-0.04-0.11-0.52-1.71-0.78-2.55c0.02,0.5,0.09,2.3,0.1,2.81
					l0.01,2.94c0,0.13-0.02,0.13-0.56,0.13V212.88z"/>
				<path class="st21" d="M282.03,213.03c0-0.29,0.02-0.29,0.58-0.29v7.13c0,0.13-0.01,0.13-0.58,0.13V213.03z"/>
				<path class="st21" d="M285.54,217.08c-0.11-0.27-0.93-2.38-1.27-3.25c0.02,0.77,0.04,3.27,0.04,3.49v2.54
					c0,0.13,0,0.13-0.56,0.13v-7.12c0-0.1,0.04-0.15,0.13-0.15h0.41l1.25,2.86c0.11,0.32,0.97,2.5,1.29,3.28
					c-0.04-0.62-0.05-3.29-0.05-3.54v-2.46c0-0.15,0.01-0.15,0.57-0.15v7.13c0,0.08-0.05,0.13-0.13,0.13h-0.39L285.54,217.08z"/>
			</g>
			<g>
				<path class="st21" d="M275.55,5.91c0-0.17,0.08-0.18,0.18-0.18h0.61l0.99,3.13c0.12,0.41,0.31,1.09,0.33,1.16
					c0.01-0.04,0.18-0.75,0.3-1.13l0.91-2.99c0.03-0.1,0.06-0.18,0.17-0.18h0.68v7.1c0,0.17,0,0.17-0.86,0.17l0.03-2.52
					c0.02-0.99,0.17-2.74,0.19-3.06c-0.22,0.78-0.58,2.08-0.66,2.32l-0.55,1.58c-0.02,0.07-0.07,0.08-0.11,0.08h-0.36l-0.54-1.66
					c-0.08-0.23-0.45-1.55-0.67-2.35v0.01c0,0,0.19,1.92,0.2,3.03l0.02,2.4c0,0.17-0.05,0.17-0.84,0.17V5.91z"/>
				<path class="st21" d="M283.34,11.15h-1.79l-0.4,1.7c-0.03,0.11-0.06,0.17-0.39,0.17c-0.11,0-0.33-0.01-0.53-0.03l1.85-7.14
					c0.02-0.1,0.14-0.14,0.32-0.14c0.15,0,0.29,0.01,0.39,0.03l1.86,7.11c0.02,0.11-0.03,0.18-0.36,0.18c-0.12,0-0.29,0-0.5-0.02
					L283.34,11.15z M281.74,10.38h1.43l-0.35-1.47c-0.17-0.69-0.31-1.49-0.36-1.99c-0.06,0.5-0.21,1.3-0.36,1.99L281.74,10.38z"/>
				<path class="st21" d="M287.49,9.18l1.48,3.67c0.05,0.09,0.02,0.15-0.08,0.15h-0.92l-0.56-1.4c-0.22-0.55-0.42-1.14-0.55-1.52
					c-0.12,0.36-0.33,0.96-0.57,1.52l-0.56,1.3c-0.05,0.08-0.09,0.1-0.2,0.1h-0.73l1.58-3.76l-1.3-3.36c-0.05-0.15,0-0.15,1-0.15
					l0.42,1.17c0.22,0.59,0.4,1.2,0.51,1.56c0.1-0.34,0.29-0.96,0.52-1.56l0.39-1.04c0.04-0.14,0.03-0.14,0.91-0.14L287.49,9.18z"/>
			</g>
		</g>
	</g>
	<g id="GREEN_x5F_2">
		<g>
			<linearGradient id="SVGID_58_" gradientUnits="userSpaceOnUse" x1="166.9585" y1="12" x2="166.9585" y2="8">
				<stop  offset="0.0817" style="stop-color:#BDEEB8"/>
				<stop  offset="1" style="stop-color:#22B573"/>
			</linearGradient>
			<path class="st60" d="M170.94,10c0,1.1-0.59,2-1.33,2h-5.31c-0.73,0-1.33-0.9-1.33-2l0,0c0-1.1,0.59-2,1.33-2h5.31
				C170.34,8,170.94,8.9,170.94,10L170.94,10z"/>
			<linearGradient id="SVGID_59_" gradientUnits="userSpaceOnUse" x1="166.9585" y1="24" x2="166.9585" y2="20">
				<stop  offset="0.0817" style="stop-color:#BDEEB8"/>
				<stop  offset="1" style="stop-color:#22B573"/>
			</linearGradient>
			<path class="st61" d="M170.94,22c0,1.1-0.59,2-1.33,2h-5.31c-0.73,0-1.33-0.9-1.33-2l0,0c0-1.1,0.59-2,1.33-2h5.31
				C170.34,20,170.94,20.9,170.94,22L170.94,22z"/>
			<linearGradient id="SVGID_60_" gradientUnits="userSpaceOnUse" x1="166.9585" y1="35" x2="166.9585" y2="31">
				<stop  offset="0.0817" style="stop-color:#BDEEB8"/>
				<stop  offset="1" style="stop-color:#22B573"/>
			</linearGradient>
			<path class="st62" d="M170.94,33c0,1.1-0.59,2-1.33,2h-5.31c-0.73,0-1.33-0.9-1.33-2l0,0c0-1.1,0.59-2,1.33-2h5.31
				C170.34,31,170.94,31.9,170.94,33L170.94,33z"/>
			<linearGradient id="SVGID_61_" gradientUnits="userSpaceOnUse" x1="166.9585" y1="47" x2="166.9585" y2="43">
				<stop  offset="0.0817" style="stop-color:#BDEEB8"/>
				<stop  offset="1" style="stop-color:#22B573"/>
			</linearGradient>
			<path class="st63" d="M170.94,45c0,1.1-0.59,2-1.33,2h-5.31c-0.73,0-1.33-0.9-1.33-2l0,0c0-1.1,0.59-2,1.33-2h5.31
				C170.34,43,170.94,43.9,170.94,45L170.94,45z"/>
			<linearGradient id="SVGID_62_" gradientUnits="userSpaceOnUse" x1="166.9585" y1="58" x2="166.9585" y2="54">
				<stop  offset="0.0817" style="stop-color:#BDEEB8"/>
				<stop  offset="1" style="stop-color:#22B573"/>
			</linearGradient>
			<path class="st64" d="M170.94,56c0,1.1-0.59,2-1.33,2h-5.31c-0.73,0-1.33-0.9-1.33-2l0,0c0-1.1,0.59-2,1.33-2h5.31
				C170.34,54,170.94,54.9,170.94,56L170.94,56z"/>
			<linearGradient id="SVGID_63_" gradientUnits="userSpaceOnUse" x1="166.9585" y1="70" x2="166.9585" y2="66">
				<stop  offset="0.0817" style="stop-color:#BDEEB8"/>
				<stop  offset="1" style="stop-color:#22B573"/>
			</linearGradient>
			<path class="st65" d="M170.94,68c0,1.1-0.59,2-1.33,2h-5.31c-0.73,0-1.33-0.9-1.33-2l0,0c0-1.1,0.59-2,1.33-2h5.31
				C170.34,66,170.94,66.9,170.94,68L170.94,68z"/>
			<linearGradient id="SVGID_64_" gradientUnits="userSpaceOnUse" x1="166.9585" y1="81" x2="166.9585" y2="77">
				<stop  offset="0.0817" style="stop-color:#BDEEB8"/>
				<stop  offset="1" style="stop-color:#22B573"/>
			</linearGradient>
			<path class="st66" d="M170.94,79c0,1.1-0.59,2-1.33,2h-5.31c-0.73,0-1.33-0.9-1.33-2l0,0c0-1.1,0.59-2,1.33-2h5.31
				C170.34,77,170.94,77.9,170.94,79L170.94,79z"/>
			<linearGradient id="SVGID_65_" gradientUnits="userSpaceOnUse" x1="166.9585" y1="93" x2="166.9585" y2="89">
				<stop  offset="0.0817" style="stop-color:#BDEEB8"/>
				<stop  offset="1" style="stop-color:#22B573"/>
			</linearGradient>
			<path class="st67" d="M170.94,91c0,1.1-0.59,2-1.33,2h-5.31c-0.73,0-1.33-0.9-1.33-2l0,0c0-1.1,0.59-2,1.33-2h5.31
				C170.34,89,170.94,89.9,170.94,91L170.94,91z"/>
			<linearGradient id="SVGID_66_" gradientUnits="userSpaceOnUse" x1="166.9585" y1="104" x2="166.9585" y2="100">
				<stop  offset="0.0817" style="stop-color:#BDEEB8"/>
				<stop  offset="1" style="stop-color:#22B573"/>
			</linearGradient>
			<path class="st68" d="M170.94,102c0,1.1-0.59,2-1.33,2h-5.31c-0.73,0-1.33-0.9-1.33-2l0,0c0-1.1,0.59-2,1.33-2h5.31
				C170.34,100,170.94,100.9,170.94,102L170.94,102z"/>
			<linearGradient id="SVGID_67_" gradientUnits="userSpaceOnUse" x1="166.9585" y1="116" x2="166.9585" y2="112">
				<stop  offset="0.0817" style="stop-color:#BDEEB8"/>
				<stop  offset="1" style="stop-color:#22B573"/>
			</linearGradient>
			<path class="st69" d="M170.94,114c0,1.1-0.59,2-1.33,2h-5.31c-0.73,0-1.33-0.9-1.33-2l0,0c0-1.1,0.59-2,1.33-2h5.31
				C170.34,112,170.94,112.9,170.94,114L170.94,114z"/>
			<linearGradient id="SVGID_68_" gradientUnits="userSpaceOnUse" x1="166.9585" y1="128" x2="166.9585" y2="124">
				<stop  offset="0.0817" style="stop-color:#BDEEB8"/>
				<stop  offset="1" style="stop-color:#22B573"/>
			</linearGradient>
			<path class="st70" d="M170.94,126c0,1.1-0.59,2-1.33,2h-5.31c-0.73,0-1.33-0.9-1.33-2l0,0c0-1.1,0.59-2,1.33-2h5.31
				C170.34,124,170.94,124.9,170.94,126L170.94,126z"/>
			<linearGradient id="SVGID_69_" gradientUnits="userSpaceOnUse" x1="166.9585" y1="139" x2="166.9585" y2="135">
				<stop  offset="0.0817" style="stop-color:#BDEEB8"/>
				<stop  offset="1" style="stop-color:#22B573"/>
			</linearGradient>
			<path class="st71" d="M170.94,137c0,1.1-0.59,2-1.33,2h-5.31c-0.73,0-1.33-0.9-1.33-2l0,0c0-1.1,0.59-2,1.33-2h5.31
				C170.34,135,170.94,135.9,170.94,137L170.94,137z"/>
			<linearGradient id="SVGID_70_" gradientUnits="userSpaceOnUse" x1="166.9585" y1="151" x2="166.9585" y2="147">
				<stop  offset="0.0817" style="stop-color:#BDEEB8"/>
				<stop  offset="1" style="stop-color:#22B573"/>
			</linearGradient>
			<path class="st72" d="M170.94,149c0,1.1-0.59,2-1.33,2h-5.31c-0.73,0-1.33-0.9-1.33-2l0,0c0-1.1,0.59-2,1.33-2h5.31
				C170.34,147,170.94,147.9,170.94,149L170.94,149z"/>
			<linearGradient id="SVGID_71_" gradientUnits="userSpaceOnUse" x1="166.9585" y1="162" x2="166.9585" y2="158">
				<stop  offset="0.0817" style="stop-color:#BDEEB8"/>
				<stop  offset="1" style="stop-color:#22B573"/>
			</linearGradient>
			<path class="st73" d="M170.94,160c0,1.1-0.59,2-1.33,2h-5.31c-0.73,0-1.33-0.9-1.33-2l0,0c0-1.1,0.59-2,1.33-2h5.31
				C170.34,158,170.94,158.9,170.94,160L170.94,160z"/>
			<linearGradient id="SVGID_72_" gradientUnits="userSpaceOnUse" x1="166.9585" y1="174" x2="166.9585" y2="170">
				<stop  offset="0.0817" style="stop-color:#BDEEB8"/>
				<stop  offset="1" style="stop-color:#22B573"/>
			</linearGradient>
			<path class="st74" d="M170.94,172c0,1.1-0.59,2-1.33,2h-5.31c-0.73,0-1.33-0.9-1.33-2l0,0c0-1.1,0.59-2,1.33-2h5.31
				C170.34,170,170.94,170.9,170.94,172L170.94,172z"/>
			<linearGradient id="SVGID_73_" gradientUnits="userSpaceOnUse" x1="166.9585" y1="185" x2="166.9585" y2="181">
				<stop  offset="0.0817" style="stop-color:#BDEEB8"/>
				<stop  offset="1" style="stop-color:#22B573"/>
			</linearGradient>
			<path class="st75" d="M170.94,183c0,1.1-0.59,2-1.33,2h-5.31c-0.73,0-1.33-0.9-1.33-2l0,0c0-1.1,0.59-2,1.33-2h5.31
				C170.34,181,170.94,181.9,170.94,183L170.94,183z"/>
			<linearGradient id="SVGID_74_" gradientUnits="userSpaceOnUse" x1="166.9585" y1="197" x2="166.9585" y2="193">
				<stop  offset="0.0817" style="stop-color:#BDEEB8"/>
				<stop  offset="1" style="stop-color:#22B573"/>
			</linearGradient>
			<path class="st76" d="M170.94,195c0,1.1-0.59,2-1.33,2h-5.31c-0.73,0-1.33-0.9-1.33-2l0,0c0-1.1,0.59-2,1.33-2h5.31
				C170.34,193,170.94,193.9,170.94,195L170.94,195z"/>
			<linearGradient id="SVGID_75_" gradientUnits="userSpaceOnUse" x1="166.9585" y1="208" x2="166.9585" y2="204">
				<stop  offset="0.0817" style="stop-color:#BDEEB8"/>
				<stop  offset="1" style="stop-color:#22B573"/>
			</linearGradient>
			<path class="st77" d="M170.94,206c0,1.1-0.59,2-1.33,2h-5.31c-0.73,0-1.33-0.9-1.33-2l0,0c0-1.1,0.59-2,1.33-2h5.31
				C170.34,204,170.94,204.9,170.94,206L170.94,206z"/>
			<linearGradient id="SVGID_76_" gradientUnits="userSpaceOnUse" x1="166.9585" y1="220" x2="166.9585" y2="216">
				<stop  offset="0.0817" style="stop-color:#BDEEB8"/>
				<stop  offset="1" style="stop-color:#22B573"/>
			</linearGradient>
			<path class="st78" d="M170.94,218c0,1.1-0.59,2-1.33,2h-5.31c-0.73,0-1.33-0.9-1.33-2l0,0c0-1.1,0.59-2,1.33-2h5.31
				C170.34,216,170.94,216.9,170.94,218L170.94,218z"/>
		</g>
		<g>
			<g>
				<path class="st21" d="M179.88,215.88c0-0.12,0.05-0.15,0.13-0.15h0.38l1.13,3.64c0.07,0.22,0.36,1.25,0.36,1.25
					s0.29-1,0.35-1.21l1.09-3.53c0.02-0.06,0.04-0.15,0.15-0.15h0.44v7.13c0,0.13,0,0.13-0.58,0.13l0.02-3l0.09-2.93l-0.78,2.59
					l-0.6,1.76c-0.02,0.06-0.07,0.09-0.11,0.09h-0.27l-0.58-1.86c-0.04-0.11-0.52-1.71-0.78-2.55c0.02,0.5,0.09,2.3,0.1,2.81
					l0.01,2.94c0,0.13-0.02,0.13-0.56,0.13V215.88z"/>
				<path class="st21" d="M185.03,216.03c0-0.29,0.02-0.29,0.58-0.29v7.13c0,0.13-0.01,0.13-0.58,0.13V216.03z"/>
				<path class="st21" d="M188.54,220.08c-0.11-0.27-0.93-2.38-1.27-3.25c0.02,0.77,0.04,3.27,0.04,3.49v2.54
					c0,0.13,0,0.13-0.56,0.13v-7.12c0-0.1,0.04-0.15,0.13-0.15h0.41l1.25,2.86c0.11,0.32,0.97,2.5,1.29,3.28
					c-0.04-0.62-0.05-3.29-0.05-3.54v-2.46c0-0.15,0.01-0.15,0.57-0.15v7.13c0,0.08-0.05,0.13-0.13,0.13h-0.39L188.54,220.08z"/>
			</g>
			<g>
				<path class="st21" d="M178.55,8.91c0-0.17,0.08-0.18,0.18-0.18h0.61l0.99,3.13c0.12,0.41,0.31,1.09,0.33,1.16
					c0.01-0.04,0.18-0.75,0.3-1.13l0.91-2.99c0.03-0.1,0.06-0.18,0.17-0.18h0.68v7.1c0,0.17,0,0.17-0.86,0.17l0.03-2.52
					c0.02-0.99,0.17-2.74,0.19-3.06c-0.22,0.78-0.58,2.08-0.66,2.32l-0.55,1.58c-0.02,0.07-0.07,0.08-0.11,0.08h-0.36l-0.54-1.66
					c-0.08-0.23-0.45-1.55-0.67-2.35v0.01c0,0,0.19,1.92,0.2,3.03l0.02,2.4c0,0.17-0.05,0.17-0.84,0.17V8.91z"/>
				<path class="st21" d="M186.34,14.15h-1.79l-0.4,1.7c-0.03,0.11-0.06,0.17-0.39,0.17c-0.11,0-0.33-0.01-0.53-0.03l1.85-7.14
					c0.02-0.1,0.14-0.14,0.32-0.14c0.15,0,0.29,0.01,0.39,0.03l1.86,7.11c0.02,0.11-0.03,0.18-0.36,0.18c-0.12,0-0.29,0-0.5-0.02
					L186.34,14.15z M184.74,13.38h1.43l-0.35-1.47c-0.17-0.69-0.31-1.49-0.36-1.99c-0.06,0.5-0.21,1.3-0.36,1.99L184.74,13.38z"/>
				<path class="st21" d="M190.49,12.18l1.48,3.67c0.05,0.09,0.02,0.15-0.08,0.15h-0.92l-0.56-1.4c-0.22-0.55-0.42-1.14-0.55-1.52
					c-0.12,0.36-0.33,0.96-0.57,1.52l-0.56,1.3c-0.05,0.08-0.09,0.1-0.2,0.1h-0.73l1.58-3.76l-1.3-3.36c-0.05-0.15,0-0.15,1-0.15
					l0.42,1.17c0.22,0.59,0.4,1.2,0.51,1.56c0.1-0.34,0.29-0.96,0.52-1.56l0.39-1.04c0.04-0.14,0.03-0.14,0.91-0.14L190.49,12.18z"
					/>
			</g>
		</g>
	</g>
</g>
<g id="silver_x5F_button_x5F_green">
	<g id="silver_x5F_2">
		<g>
			<g>
				
					<radialGradient id="SVGID_77_" cx="-353.2731" cy="285.8348" r="27.9859" gradientTransform="matrix(-0.7071 -0.7071 0.7071 -0.7071 -314.8175 59.5033)" gradientUnits="userSpaceOnUse">
					<stop  offset="0.8727" style="stop-color:#231F20"/>
					<stop  offset="0.8853" style="stop-color:#302C2D"/>
					<stop  offset="0.9086" style="stop-color:#514E4E"/>
					<stop  offset="0.9399" style="stop-color:#878585"/>
					<stop  offset="0.9777" style="stop-color:#D0CFD0"/>
					<stop  offset="1" style="stop-color:#FFFFFF"/>
				</radialGradient>
				<path class="st79" d="M117.31,87.4c10.93-10.93,28.65-10.93,39.58,0c10.93,10.93,10.93,28.65,0,39.58
					c-10.93,10.93-28.65,10.93-39.58,0C106.38,116.05,106.38,98.33,117.31,87.4z"/>
				<g>
					<path d="M119.42,91.4c9.16-9.16,24.02-9.16,33.18,0c9.16,9.16,9.16,24.02,0,33.18c-9.16,9.16-24.02,9.16-33.18,0
						C110.26,115.42,110.26,100.57,119.42,91.4z"/>
					
						<linearGradient id="SVGID_78_" gradientUnits="userSpaceOnUse" x1="-353.0953" y1="257.4408" x2="-353.0953" y2="310.7989" gradientTransform="matrix(-0.7071 -0.7071 0.7071 -0.7071 -314.8175 59.5033)">
						<stop  offset="0.0871" style="stop-color:#FFFFFF"/>
						<stop  offset="1" style="stop-color:#D9D9D9"/>
					</linearGradient>
					<path class="st80" d="M116.89,89.41c10.42-10.42,27.31-10.42,37.73,0c10.42,10.42,10.42,27.31,0,37.73
						c-10.42,10.42-27.31,10.42-37.73,0C106.47,116.72,106.47,99.83,116.89,89.41z"/>
					<g>
						<g>
							<path class="st81" d="M116.89,88.65c10.63-10.64,27.88-10.64,38.51,0c10.63,10.64,10.64,27.88,0,38.51
								c-10.63,10.63-27.88,10.63-38.51,0S106.26,99.28,116.89,88.65z"/>
							
								<linearGradient id="SVGID_79_" gradientUnits="userSpaceOnUse" x1="260.4909" y1="201.4041" x2="208.9103" y2="149.8236" gradientTransform="matrix(0.7155 -0.1179 0.1179 0.7155 -52.4696 9.9172)">
								<stop  offset="0.0871" style="stop-color:#F8FAFA"/>
								<stop  offset="1" style="stop-color:#F2F4F5"/>
							</linearGradient>
							<path class="st82" d="M117.45,89.21c10.33-10.33,27.07-10.33,37.4,0c10.33,10.33,10.33,27.07,0,37.4
								c-10.33,10.33-27.07,10.33-37.4,0C107.13,116.28,107.13,99.53,117.45,89.21z"/>
							
								<linearGradient id="SVGID_80_" gradientUnits="userSpaceOnUse" x1="381.5191" y1="429.751" x2="307.6463" y2="355.8782" gradientTransform="matrix(0.431 -0.2357 0.2357 0.431 -104.9392 19.8344)">
								<stop  offset="0.0871" style="stop-color:#FAFBFB"/>
								<stop  offset="1" style="stop-color:#EEF0F0"/>
							</linearGradient>
							<path class="st83" d="M118.01,89.77c10.02-10.02,26.26-10.02,36.28,0c10.02,10.02,10.02,26.26,0,36.28
								c-10.02,10.02-26.26,10.02-36.28,0C107.99,116.03,107.99,99.78,118.01,89.77z"/>
							
								<linearGradient id="SVGID_81_" gradientUnits="userSpaceOnUse" x1="150.8427" y1="832.8273" x2="58.9324" y2="740.9169" gradientTransform="matrix(0.1464 -0.3535 0.3535 0.1464 -157.4088 29.7516)">
								<stop  offset="0.0871" style="stop-color:#FBFCFC"/>
								<stop  offset="1" style="stop-color:#E9EBEC"/>
							</linearGradient>
							<path class="st84" d="M118.57,90.32c9.71-9.71,25.46-9.71,35.16,0c9.71,9.71,9.71,25.45,0,35.16
								c-9.71,9.71-25.45,9.71-35.16,0C108.86,115.78,108.86,100.03,118.57,90.32z"/>
							
								<linearGradient id="SVGID_82_" gradientUnits="userSpaceOnUse" x1="-296.6577" y1="671.6711" x2="-365.9907" y2="602.3381" gradientTransform="matrix(-0.1381 -0.4714 0.4714 -0.1381 -209.8783 39.6689)">
								<stop  offset="0.0871" style="stop-color:#FCFDFD"/>
								<stop  offset="1" style="stop-color:#E5E6E7"/>
							</linearGradient>
							<path class="st85" d="M119.13,90.88c9.4-9.4,24.65-9.4,34.05,0c9.4,9.4,9.4,24.64,0,34.05c-9.4,9.4-24.65,9.4-34.05,0
								C109.73,115.53,109.72,100.28,119.13,90.88z"/>
							
								<linearGradient id="SVGID_83_" gradientUnits="userSpaceOnUse" x1="-362.9249" y1="422.4307" x2="-408.3445" y2="377.011" gradientTransform="matrix(-0.4226 -0.5892 0.5892 -0.4226 -262.3479 49.5861)">
								<stop  offset="0.0871" style="stop-color:#FEFEFE"/>
								<stop  offset="1" style="stop-color:#E0E2E3"/>
							</linearGradient>
							<path class="st86" d="M119.68,91.44c9.09-9.1,23.84-9.09,32.93,0c9.09,9.09,9.1,23.84,0,32.93c-9.09,9.09-23.84,9.09-32.93,0
								C110.59,115.28,110.59,100.53,119.68,91.44z"/>
							
								<linearGradient id="SVGID_84_" gradientUnits="userSpaceOnUse" x1="-337.2036" y1="300.5675" x2="-369.0197" y2="268.7513" gradientTransform="matrix(-0.7071 -0.7071 0.7071 -0.7071 -314.8175 59.5033)">
								<stop  offset="0.0871" style="stop-color:#FFFFFF"/>
								<stop  offset="1" style="stop-color:#D9D9D9"/>
							</linearGradient>
							<path class="st87" d="M120.24,92c8.79-8.79,23.03-8.79,31.82,0c8.79,8.78,8.79,23.03,0,31.81c-8.79,8.79-23.03,8.79-31.81,0
								C111.46,115.03,111.46,100.78,120.24,92z"/>
						</g>
					</g>
				</g>
			</g>
		</g>
	</g>
	<g id="silver_x5F_4">
		<g>
			<g>
				
					<radialGradient id="SVGID_85_" cx="-522.1396" cy="384.2572" r="27.9863" gradientTransform="matrix(-0.7071 -0.7071 0.7071 -0.7071 -314.8175 59.5033)" gradientUnits="userSpaceOnUse">
					<stop  offset="0.8727" style="stop-color:#231F20"/>
					<stop  offset="0.8853" style="stop-color:#302C2D"/>
					<stop  offset="0.9086" style="stop-color:#514E4E"/>
					<stop  offset="0.9399" style="stop-color:#878585"/>
					<stop  offset="0.9777" style="stop-color:#D0CFD0"/>
					<stop  offset="1" style="stop-color:#FFFFFF"/>
				</radialGradient>
				<path class="st88" d="M306.31,137.21c10.93-10.93,28.65-10.93,39.58,0c10.93,10.93,10.93,28.65,0,39.58
					c-10.93,10.93-28.65,10.93-39.58,0C295.38,165.86,295.38,148.14,306.31,137.21z"/>
				<g>
					<path d="M308.42,141.21c9.16-9.16,24.02-9.16,33.18,0c9.16,9.16,9.16,24.02,0,33.18c-9.16,9.16-24.02,9.16-33.18,0
						C299.26,165.23,299.26,150.38,308.42,141.21z"/>
					
						<linearGradient id="SVGID_86_" gradientUnits="userSpaceOnUse" x1="-521.9619" y1="355.8635" x2="-521.9619" y2="409.2209" gradientTransform="matrix(-0.7071 -0.7071 0.7071 -0.7071 -314.8175 59.5033)">
						<stop  offset="0.0871" style="stop-color:#FFFFFF"/>
						<stop  offset="1" style="stop-color:#D9D9D9"/>
					</linearGradient>
					<path class="st89" d="M305.89,139.22c10.42-10.42,27.31-10.42,37.73,0c10.42,10.42,10.42,27.31,0,37.73
						c-10.42,10.42-27.31,10.42-37.73,0C295.47,166.53,295.47,149.64,305.89,139.22z"/>
					<g>
						<g>
							<path class="st81" d="M305.89,138.46c10.63-10.63,27.88-10.63,38.51,0c10.63,10.64,10.64,27.88,0,38.51
								c-10.63,10.63-27.88,10.63-38.51,0C295.26,166.34,295.26,149.1,305.89,138.46z"/>
							
								<linearGradient id="SVGID_87_" gradientUnits="userSpaceOnUse" x1="506.5064" y1="311.5454" x2="454.9255" y2="259.9645" gradientTransform="matrix(0.7155 -0.1179 0.1179 0.7155 -52.4696 9.9172)">
								<stop  offset="0.0871" style="stop-color:#F8FAFA"/>
								<stop  offset="1" style="stop-color:#F2F4F5"/>
							</linearGradient>
							<path class="st90" d="M306.45,139.02c10.33-10.33,27.07-10.33,37.4,0c10.33,10.33,10.33,27.07,0,37.4
								c-10.33,10.33-27.07,10.33-37.4,0S296.13,149.35,306.45,139.02z"/>
							
								<linearGradient id="SVGID_88_" gradientUnits="userSpaceOnUse" x1="670.4375" y1="703.3438" x2="596.5646" y2="629.471" gradientTransform="matrix(0.431 -0.2357 0.2357 0.431 -104.9392 19.8344)">
								<stop  offset="0.0871" style="stop-color:#FAFBFB"/>
								<stop  offset="1" style="stop-color:#EEF0F0"/>
							</linearGradient>
							<path class="st91" d="M307.01,139.58c10.02-10.02,26.26-10.02,36.28,0c10.02,10.02,10.02,26.26,0,36.28
								c-10.02,10.02-26.26,10.02-36.28,0C296.99,165.84,296.99,149.6,307.01,139.58z"/>
							
								<linearGradient id="SVGID_89_" gradientUnits="userSpaceOnUse" x1="219.5939" y1="1338.9266" x2="127.6835" y2="1247.0162" gradientTransform="matrix(0.1464 -0.3535 0.3535 0.1464 -157.4088 29.7516)">
								<stop  offset="0.0871" style="stop-color:#FBFCFC"/>
								<stop  offset="1" style="stop-color:#E9EBEC"/>
							</linearGradient>
							<path class="st92" d="M307.57,140.14c9.71-9.71,25.46-9.71,35.16,0c9.71,9.71,9.71,25.45,0,35.16
								c-9.71,9.71-25.45,9.71-35.16,0C297.86,165.59,297.86,149.85,307.57,140.14z"/>
							
								<linearGradient id="SVGID_90_" gradientUnits="userSpaceOnUse" x1="-502.1267" y1="1012.4254" x2="-571.4597" y2="943.0924" gradientTransform="matrix(-0.1381 -0.4714 0.4714 -0.1381 -209.8783 39.6689)">
								<stop  offset="0.0871" style="stop-color:#FCFDFD"/>
								<stop  offset="1" style="stop-color:#E5E6E7"/>
							</linearGradient>
							<path class="st93" d="M308.13,140.69c9.4-9.4,24.65-9.4,34.05,0c9.4,9.4,9.4,24.64,0,34.05c-9.4,9.4-24.65,9.4-34.05,0
								C298.73,165.34,298.72,150.1,308.13,140.69z"/>
							
								<linearGradient id="SVGID_91_" gradientUnits="userSpaceOnUse" x1="-570.6488" y1="594.2072" x2="-616.068" y2="548.788" gradientTransform="matrix(-0.4226 -0.5892 0.5892 -0.4226 -262.3479 49.5861)">
								<stop  offset="0.0871" style="stop-color:#FEFEFE"/>
								<stop  offset="1" style="stop-color:#E0E2E3"/>
							</linearGradient>
							<path class="st94" d="M308.68,141.25c9.09-9.1,23.84-9.09,32.93,0c9.09,9.09,9.1,23.84,0,32.93
								c-9.09,9.09-23.84,9.09-32.93,0C299.59,165.09,299.59,150.34,308.68,141.25z"/>
							
								<linearGradient id="SVGID_92_" gradientUnits="userSpaceOnUse" x1="-506.0704" y1="398.9895" x2="-537.886" y2="367.1739" gradientTransform="matrix(-0.7071 -0.7071 0.7071 -0.7071 -314.8175 59.5033)">
								<stop  offset="0.0871" style="stop-color:#FFFFFF"/>
								<stop  offset="1" style="stop-color:#D9D9D9"/>
							</linearGradient>
							<path class="st95" d="M309.24,141.81c8.79-8.79,23.03-8.79,31.82,0c8.79,8.78,8.79,23.03,0,31.81
								c-8.79,8.79-23.03,8.79-31.81,0C300.46,164.84,300.46,150.59,309.24,141.81z"/>
						</g>
					</g>
				</g>
			</g>
		</g>
	</g>
	<g id="silver3">
		<g>
			<g>
				
					<radialGradient id="SVGID_93_" cx="-399.8197" cy="373.597" r="27.9859" gradientTransform="matrix(-0.7071 -0.7071 0.7071 -0.7071 -314.8175 59.5033)" gradientUnits="userSpaceOnUse">
					<stop  offset="0.8727" style="stop-color:#231F20"/>
					<stop  offset="0.8853" style="stop-color:#302C2D"/>
					<stop  offset="0.9086" style="stop-color:#514E4E"/>
					<stop  offset="0.9399" style="stop-color:#878585"/>
					<stop  offset="0.9777" style="stop-color:#D0CFD0"/>
					<stop  offset="1" style="stop-color:#FFFFFF"/>
				</radialGradient>
				<path class="st96" d="M212.28,58.26c10.93-10.93,28.65-10.93,39.58,0c10.93,10.93,10.93,28.65,0,39.58
					c-10.93,10.93-28.65,10.93-39.58,0C201.35,86.91,201.35,69.19,212.28,58.26z"/>
				<g>
					<path d="M214.39,62.26c9.16-9.16,24.02-9.16,33.18,0c9.16,9.16,9.16,24.02,0,33.18c-9.16,9.16-24.02,9.16-33.18,0
						C205.23,86.28,205.23,71.42,214.39,62.26z"/>
					
						<linearGradient id="SVGID_94_" gradientUnits="userSpaceOnUse" x1="-399.6419" y1="345.2029" x2="-399.6419" y2="398.561" gradientTransform="matrix(-0.7071 -0.7071 0.7071 -0.7071 -314.8175 59.5033)">
						<stop  offset="0.0871" style="stop-color:#FFFFFF"/>
						<stop  offset="1" style="stop-color:#D9D9D9"/>
					</linearGradient>
					<path class="st97" d="M211.86,60.27c10.42-10.42,27.31-10.42,37.73,0c10.42,10.42,10.42,27.31,0,37.73
						c-10.42,10.42-27.31,10.42-37.73,0C201.44,87.58,201.44,70.69,211.86,60.27z"/>
					<g>
						<g>
							<path class="st81" d="M211.86,59.51c10.63-10.64,27.88-10.64,38.51,0c10.63,10.64,10.64,27.88,0,38.51
								c-10.63,10.63-27.88,10.63-38.51,0C201.23,87.38,201.23,70.14,211.86,59.51z"/>
							
								<linearGradient id="SVGID_95_" gradientUnits="userSpaceOnUse" x1="396.252" y1="183.0332" x2="344.6714" y2="131.4526" gradientTransform="matrix(0.7155 -0.1179 0.1179 0.7155 -52.4696 9.9172)">
								<stop  offset="0.0871" style="stop-color:#F8FAFA"/>
								<stop  offset="1" style="stop-color:#F2F4F5"/>
							</linearGradient>
							<path class="st98" d="M212.42,60.06c10.33-10.33,27.07-10.33,37.4,0c10.33,10.33,10.33,27.07,0,37.4
								c-10.33,10.33-27.07,10.33-37.4,0C202.1,87.13,202.1,70.39,212.42,60.06z"/>
							
								<linearGradient id="SVGID_96_" gradientUnits="userSpaceOnUse" x1="579.6151" y1="470.468" x2="505.7424" y2="396.5953" gradientTransform="matrix(0.431 -0.2357 0.2357 0.431 -104.9392 19.8344)">
								<stop  offset="0.0871" style="stop-color:#FAFBFB"/>
								<stop  offset="1" style="stop-color:#EEF0F0"/>
							</linearGradient>
							<path class="st99" d="M212.98,60.62c10.02-10.02,26.26-10.02,36.28,0c10.02,10.02,10.02,26.26,0,36.28
								c-10.02,10.02-26.26,10.02-36.28,0C202.96,86.89,202.96,70.64,212.98,60.62z"/>
							
								<linearGradient id="SVGID_97_" gradientUnits="userSpaceOnUse" x1="316.1742" y1="1032.9598" x2="224.264" y2="941.0497" gradientTransform="matrix(0.1464 -0.3535 0.3535 0.1464 -157.4088 29.7516)">
								<stop  offset="0.0871" style="stop-color:#FBFCFC"/>
								<stop  offset="1" style="stop-color:#E9EBEC"/>
							</linearGradient>
							<path class="st100" d="M213.54,61.18c9.71-9.71,25.46-9.71,35.16,0c9.71,9.71,9.71,25.45,0,35.16
								c-9.71,9.71-25.45,9.71-35.16,0C203.83,86.64,203.83,70.89,213.54,61.18z"/>
							
								<linearGradient id="SVGID_98_" gradientUnits="userSpaceOnUse" x1="-294.0632" y1="873.894" x2="-363.3954" y2="804.5618" gradientTransform="matrix(-0.1381 -0.4714 0.4714 -0.1381 -209.8783 39.6689)">
								<stop  offset="0.0871" style="stop-color:#FCFDFD"/>
								<stop  offset="1" style="stop-color:#E5E6E7"/>
							</linearGradient>
							<path class="st101" d="M214.1,61.74c9.4-9.4,24.65-9.4,34.05,0c9.4,9.4,9.4,24.64,0,34.05c-9.4,9.4-24.65,9.4-34.05,0
								C204.7,86.39,204.69,71.14,214.1,61.74z"/>
							
								<linearGradient id="SVGID_99_" gradientUnits="userSpaceOnUse" x1="-406.5925" y1="552.2847" x2="-452.011" y2="506.8661" gradientTransform="matrix(-0.4226 -0.5892 0.5892 -0.4226 -262.3479 49.5861)">
								<stop  offset="0.0871" style="stop-color:#FEFEFE"/>
								<stop  offset="1" style="stop-color:#E0E2E3"/>
							</linearGradient>
							<path class="st102" d="M214.65,62.3c9.09-9.1,23.84-9.09,32.93,0c9.09,9.09,9.1,23.84,0,32.93c-9.09,9.09-23.84,9.09-32.93,0
								C205.56,86.14,205.56,71.39,214.65,62.3z"/>
							
								<linearGradient id="SVGID_100_" gradientUnits="userSpaceOnUse" x1="-383.7507" y1="388.3291" x2="-415.5658" y2="356.514" gradientTransform="matrix(-0.7071 -0.7071 0.7071 -0.7071 -314.8175 59.5033)">
								<stop  offset="0.0871" style="stop-color:#FFFFFF"/>
								<stop  offset="1" style="stop-color:#D9D9D9"/>
							</linearGradient>
							<path class="st103" d="M215.21,62.86c8.79-8.79,23.03-8.79,31.82,0c8.79,8.79,8.79,23.03,0,31.81
								c-8.79,8.79-23.03,8.79-31.81,0C206.43,85.89,206.42,71.64,215.21,62.86z"/>
						</g>
					</g>
				</g>
			</g>
		</g>
	</g>
	<g id="silver1">
		<g>
			<g>
				
					<radialGradient id="SVGID_101_" cx="-240.7085" cy="265.4621" r="27.9863" gradientTransform="matrix(-0.7071 -0.7071 0.7071 -0.7071 -314.8175 59.5033)" gradientUnits="userSpaceOnUse">
					<stop  offset="0.8727" style="stop-color:#231F20"/>
					<stop  offset="0.8853" style="stop-color:#302C2D"/>
					<stop  offset="0.9086" style="stop-color:#514E4E"/>
					<stop  offset="0.9399" style="stop-color:#878585"/>
					<stop  offset="0.9777" style="stop-color:#D0CFD0"/>
					<stop  offset="1" style="stop-color:#FFFFFF"/>
				</radialGradient>
				<path class="st104" d="M23.31,22.21c10.93-10.93,28.65-10.93,39.58,0c10.93,10.93,10.93,28.65,0,39.58
					c-10.93,10.93-28.65,10.93-39.58,0C12.38,50.86,12.38,33.14,23.31,22.21z"/>
				<g>
					<path d="M25.42,26.21c9.16-9.16,24.02-9.16,33.18,0c9.16,9.16,9.16,24.02,0,33.18c-9.16,9.16-24.02,9.16-33.18,0
						C16.26,50.23,16.26,35.38,25.42,26.21z"/>
					
						<linearGradient id="SVGID_102_" gradientUnits="userSpaceOnUse" x1="-240.5307" y1="237.0684" x2="-240.5307" y2="290.4258" gradientTransform="matrix(-0.7071 -0.7071 0.7071 -0.7071 -314.8175 59.5033)">
						<stop  offset="0.0871" style="stop-color:#FFFFFF"/>
						<stop  offset="1" style="stop-color:#D9D9D9"/>
					</linearGradient>
					<path class="st105" d="M22.89,24.22c10.42-10.42,27.31-10.42,37.73,0c10.42,10.42,10.42,27.31,0,37.73
						c-10.42,10.42-27.31,10.42-37.73,0C12.47,51.53,12.47,34.64,22.89,24.22z"/>
					<g>
						<g>
							<path class="st81" d="M22.89,23.46c10.63-10.63,27.88-10.63,38.51,0c10.63,10.64,10.64,27.88,0,38.51
								c-10.63,10.63-27.88,10.63-38.51,0S12.26,34.1,22.89,23.46z"/>
							
								<linearGradient id="SVGID_103_" gradientUnits="userSpaceOnUse" x1="147.1925" y1="91.6309" x2="95.6116" y2="40.05" gradientTransform="matrix(0.7155 -0.1179 0.1179 0.7155 -52.4696 9.9172)">
								<stop  offset="0.0871" style="stop-color:#F8FAFA"/>
								<stop  offset="1" style="stop-color:#F2F4F5"/>
							</linearGradient>
							<path class="st106" d="M23.45,24.02c10.33-10.33,27.07-10.33,37.4,0c10.33,10.33,10.33,27.07,0,37.4
								c-10.33,10.33-27.07,10.33-37.4,0C13.13,51.09,13.13,34.35,23.45,24.02z"/>
							
								<linearGradient id="SVGID_104_" gradientUnits="userSpaceOnUse" x1="277.3033" y1="221.4928" x2="203.4305" y2="147.62" gradientTransform="matrix(0.431 -0.2357 0.2357 0.431 -104.9392 19.8344)">
								<stop  offset="0.0871" style="stop-color:#FAFBFB"/>
								<stop  offset="1" style="stop-color:#EEF0F0"/>
							</linearGradient>
							<path class="st107" d="M24.01,24.58c10.02-10.02,26.26-10.02,36.28,0c10.02,10.02,10.02,26.26,0,36.28
								c-10.02,10.02-26.26,10.02-36.28,0C13.99,50.84,13.99,34.6,24.01,24.58z"/>
							
								<linearGradient id="SVGID_105_" gradientUnits="userSpaceOnUse" x1="214.2192" y1="540.7004" x2="122.3088" y2="448.79" gradientTransform="matrix(0.1464 -0.3535 0.3535 0.1464 -157.4088 29.7516)">
								<stop  offset="0.0871" style="stop-color:#FBFCFC"/>
								<stop  offset="1" style="stop-color:#E9EBEC"/>
							</linearGradient>
							<path class="st108" d="M24.57,25.14c9.71-9.71,25.46-9.71,35.16,0c9.71,9.71,9.71,25.45,0,35.16
								c-9.71,9.71-25.45,9.71-35.16,0C14.86,50.59,14.86,34.85,24.57,25.14z"/>
							
								<linearGradient id="SVGID_106_" gradientUnits="userSpaceOnUse" x1="-115.5065" y1="525.3218" x2="-184.8394" y2="455.9888" gradientTransform="matrix(-0.1381 -0.4714 0.4714 -0.1381 -209.8783 39.6689)">
								<stop  offset="0.0871" style="stop-color:#FCFDFD"/>
								<stop  offset="1" style="stop-color:#E5E6E7"/>
							</linearGradient>
							<path class="st109" d="M25.13,25.69c9.4-9.4,24.65-9.4,34.05,0c9.4,9.4,9.4,24.64,0,34.05c-9.4,9.4-24.65,9.4-34.05,0
								C15.73,50.34,15.72,35.1,25.13,25.69z"/>
							
								<linearGradient id="SVGID_107_" gradientUnits="userSpaceOnUse" x1="-214.3202" y1="369.4783" x2="-259.7393" y2="324.0592" gradientTransform="matrix(-0.4226 -0.5892 0.5892 -0.4226 -262.3479 49.5861)">
								<stop  offset="0.0871" style="stop-color:#FEFEFE"/>
								<stop  offset="1" style="stop-color:#E0E2E3"/>
							</linearGradient>
							<path class="st110" d="M25.68,26.25c9.09-9.1,23.84-9.09,32.93,0c9.09,9.09,9.1,23.84,0,32.93c-9.09,9.09-23.84,9.09-32.93,0
								C16.59,50.09,16.59,35.34,25.68,26.25z"/>
							
								<linearGradient id="SVGID_108_" gradientUnits="userSpaceOnUse" x1="-224.6392" y1="280.1944" x2="-256.4549" y2="248.3788" gradientTransform="matrix(-0.7071 -0.7071 0.7071 -0.7071 -314.8175 59.5033)">
								<stop  offset="0.0871" style="stop-color:#FFFFFF"/>
								<stop  offset="1" style="stop-color:#D9D9D9"/>
							</linearGradient>
							<path class="st111" d="M26.24,26.81c8.79-8.79,23.03-8.79,31.82,0c8.79,8.78,8.79,23.03,0,31.81
								c-8.79,8.79-23.03,8.79-31.81,0C17.46,49.84,17.46,35.59,26.24,26.81z"/>
						</g>
					</g>
				</g>
			</g>
		</g>
	</g>
</g>
</svg>
