<?xml version="1.0" encoding="utf-8"?>
<!-- Generator: Adobe Illustrator 23.0.3, SVG Export Plug-In . SVG Version: 6.00 Build 0)  -->
<svg version="1.1" id="Layer_1" xmlns="http://www.w3.org/2000/svg" xmlns:xlink="http://www.w3.org/1999/xlink" x="0px" y="0px"
	 viewBox="0 0 10.57 9.39" style="enable-background:new 0 0 10.57 9.39;" xml:space="preserve">
<style type="text/css">
	.st0{opacity:0.24;}
	.st1{fill:#231F20;}
</style>
<circle id="circle" class="st0" cx="577.13" cy="302.14" r="162.6"/>
<rect id="number" x="619.44" y="192.62" transform="matrix(0.7071 -0.7071 0.7071 0.7071 42.3101 530.1476)" width="83.32" height="42.77"/>
<g id="side_x5F_volume">
	<polygon class="st1" points="388.92,103.82 425.83,140.53 453.83,116.49 422.92,74.04 	"/>
	<polygon class="st1" points="334.46,179.87 380.66,203.86 400.18,172.55 357.99,141.29 	"/>
	<polygon class="st1" points="310.15,268.97 361.81,275.41 369.23,239.26 318.8,224.61 	"/>
	<polygon class="st1" points="317.37,363.66 368.07,351.84 362.54,315.35 310.15,319.04 	"/>
	<polygon class="st1" points="358.23,448.79 401.13,419.3 382.67,387.34 335.24,409.88 	"/>
	<polygon class="st1" points="645.92,35.66 631.38,85.64 665.9,98.7 688.35,51.23 	"/>
	<polygon class="st1" points="732.04,74.11 700.06,115.18 727.31,140.07 765.72,104.25 	"/>
	<polygon class="st1" points="799.7,150.06 756.63,179.29 774.89,211.36 822.46,189.1 	"/>
	<polygon class="st1" points="839.13,236.03 788.45,247.89 794.01,284.38 846.39,280.64 	"/>
	<polygon class="st1" points="845.07,329.35 793.23,324.6 786.98,360.97 837.86,373.97 	"/>
	<polygon class="st1" points="822.02,421.09 775.91,396.92 756.27,428.16 798.34,459.59 	"/>
	<polygon class="st1" points="464.63,51.03 484.8,99.02 519.84,87.43 507.4,36.41 	"/>
	<polygon class="st1" points="554.64,28.48 558.73,80.37 595.64,80.37 599.84,28.03 	"/>
</g>
</svg>
