<?xml version="1.0" encoding="utf-8"?>
<!-- Generator: Adobe Illustrator 23.0.3, SVG Export Plug-In . SVG Version: 6.00 Build 0)  -->
<svg version="1.1" id="VOLUME" xmlns="http://www.w3.org/2000/svg" xmlns:xlink="http://www.w3.org/1999/xlink" x="0px" y="0px"
	 viewBox="0 0 311.3 644.35" style="enable-background:new 0 0 311.3 644.35;" xml:space="preserve">
<style type="text/css">
	.st0{fill:#010101;}
	.st1{fill:url(#SVGID_1_);}
	.st2{fill:#F7F9F9;}
	.st3{fill:url(#SVGID_2_);}
	.st4{fill:url(#SVGID_3_);}
	.st5{fill:url(#SVGID_4_);}
	.st6{fill:url(#SVGID_5_);}
	.st7{fill:url(#SVGID_6_);}
	.st8{fill:url(#SVGID_7_);}
	.st9{opacity:0.57;fill:url(#SVGID_8_);}
	.st10{fill:url(#SVGID_9_);}
	.st11{fill:url(#SVGID_10_);}
	.st12{fill:url(#SVGID_11_);}
	.st13{fill:url(#SVGID_12_);}
	.st14{fill:url(#SVGID_13_);}
	.st15{fill:url(#SVGID_14_);}
	.st16{fill:url(#SVGID_15_);}
	.st17{fill:url(#SVGID_16_);}
	.st18{fill:url(#SVGID_17_);}
	.st19{fill:url(#SVGID_18_);}
	.st20{fill:url(#SVGID_19_);}
	.st21{fill:url(#SVGID_20_);}
	.st22{fill:url(#SVGID_21_);}
	.st23{fill:url(#SVGID_22_);}
	.st24{fill:url(#SVGID_23_);}
	.st25{fill:url(#SVGID_24_);}
	.st26{fill:url(#SVGID_25_);}
	.st27{fill:url(#SVGID_26_);}
	.st28{fill:#F79421;}
	.st29{fill:url(#SVGID_27_);}
	.st30{fill:url(#SVGID_28_);}
	.st31{fill:url(#SVGID_29_);}
	.st32{fill:url(#SVGID_30_);}
	.st33{fill:url(#SVGID_31_);}
	.st34{fill:url(#SVGID_32_);}
	.st35{fill:url(#SVGID_33_);}
	.st36{fill:url(#SVGID_34_);}
	.st37{fill:url(#SVGID_35_);}
	.st38{fill:url(#SVGID_36_);}
	.st39{fill:url(#SVGID_37_);}
	.st40{fill:url(#SVGID_38_);}
	.st41{fill:url(#SVGID_39_);}
	.st42{fill:url(#SVGID_40_);}
	.st43{fill:url(#SVGID_41_);}
	.st44{fill:url(#SVGID_42_);}
	.st45{fill:url(#SVGID_43_);}
	.st46{fill:url(#SVGID_44_);}
	.st47{fill:url(#SVGID_45_);}
	.st48{fill:url(#SVGID_46_);}
	.st49{fill:url(#SVGID_47_);}
	.st50{fill:url(#SVGID_48_);}
	.st51{fill:url(#SVGID_49_);}
	.st52{fill:url(#SVGID_50_);}
	.st53{fill:url(#SVGID_51_);}
	.st54{opacity:0.57;fill:url(#SVGID_52_);}
	.st55{fill:url(#SVGID_53_);}
	.st56{fill:url(#SVGID_54_);}
	.st57{fill:url(#SVGID_55_);}
	.st58{fill:url(#SVGID_56_);}
	.st59{fill:url(#SVGID_57_);}
	.st60{fill:url(#SVGID_58_);}
	.st61{fill:url(#SVGID_59_);}
	.st62{fill:url(#SVGID_60_);}
	.st63{fill:url(#SVGID_61_);}
	.st64{fill:url(#SVGID_62_);}
	.st65{fill:url(#SVGID_63_);}
	.st66{fill:url(#SVGID_64_);}
	.st67{fill:url(#SVGID_65_);}
	.st68{fill:url(#SVGID_66_);}
	.st69{fill:#24B574;}
	.st70{fill:url(#SVGID_67_);}
	.st71{fill:url(#SVGID_68_);}
	.st72{fill:url(#SVGID_69_);}
	.st73{fill:url(#SVGID_70_);}
	.st74{fill:url(#SVGID_71_);}
	.st75{fill:url(#SVGID_72_);}
	.st76{fill:url(#SVGID_73_);}
	.st77{fill:url(#SVGID_74_);}
	.st78{fill:url(#SVGID_75_);}
	.st79{fill:url(#SVGID_76_);}
	.st80{fill:url(#SVGID_77_);}
	.st81{fill:url(#SVGID_78_);}
	.st82{fill:url(#SVGID_79_);}
	.st83{fill:url(#SVGID_80_);}
	.st84{fill:url(#SVGID_81_);}
	.st85{fill:url(#SVGID_82_);}
	.st86{fill:url(#SVGID_83_);}
	.st87{fill:url(#SVGID_84_);}
	.st88{opacity:0.57;fill:url(#SVGID_85_);}
	.st89{fill:url(#SVGID_86_);}
	.st90{fill:url(#SVGID_87_);}
	.st91{fill:url(#SVGID_88_);}
	.st92{fill:url(#SVGID_89_);}
	.st93{fill:url(#SVGID_90_);}
	.st94{fill:url(#SVGID_91_);}
	.st95{fill:url(#SVGID_92_);}
	.st96{fill:url(#SVGID_93_);}
	.st97{fill:url(#SVGID_94_);}
	.st98{fill:url(#SVGID_95_);}
	.st99{fill:url(#SVGID_96_);}
	.st100{fill:url(#SVGID_97_);}
	.st101{fill:url(#SVGID_98_);}
	.st102{fill:url(#SVGID_99_);}
	.st103{fill:#67308F;}
</style>
<rect width="311.3" height="644.35"/>
<g id="LARGE">
	<g id="WHOLE_x5F_CIRCLE_2_">
		<g>
			<g>
				<path class="st0" d="M242.68,128.18c0,43.33-35.13,78.45-78.47,78.45s-78.47-35.12-78.47-78.45c0-43.33,35.13-78.45,78.47-78.45
					S242.68,84.85,242.68,128.18z"/>
				<linearGradient id="SVGID_1_" gradientUnits="userSpaceOnUse" x1="164.1579" y1="37.7059" x2="164.1579" y2="216.0985">
					<stop  offset="0.0871" style="stop-color:#FFFFFF"/>
					<stop  offset="1" style="stop-color:#D9D9D9"/>
				</linearGradient>
				<path class="st1" d="M253.38,126.9c0,49.26-39.94,89.2-89.22,89.2c-49.27,0-89.22-39.93-89.22-89.2
					c0-49.26,39.95-89.2,89.22-89.2C213.44,37.71,253.38,77.64,253.38,126.9z"/>
				<g>
					<g>
						<path class="st2" d="M255.18,128.7c0,50.29-40.78,91.05-91.08,91.05c-50.3,0-91.08-40.76-91.08-91.05
							c0-50.28,40.78-91.05,91.08-91.05C214.4,37.65,255.18,78.42,255.18,128.7z"/>
						<linearGradient id="SVGID_2_" gradientUnits="userSpaceOnUse" x1="75.6644" y1="128.7029" x2="252.5387" y2="128.7029">
							<stop  offset="0.0871" style="stop-color:#F8FAFA"/>
							<stop  offset="1" style="stop-color:#F0F2F2"/>
						</linearGradient>
						<path class="st3" d="M252.54,128.7c0,48.83-39.6,88.41-88.44,88.41c-48.84,0-88.44-39.58-88.44-88.41
							c0-48.83,39.6-88.41,88.44-88.41C212.94,40.29,252.54,79.88,252.54,128.7z"/>
						<linearGradient id="SVGID_3_" gradientUnits="userSpaceOnUse" x1="78.3047" y1="128.7027" x2="249.8991" y2="128.7027">
							<stop  offset="0.0871" style="stop-color:#F9FBFA"/>
							<stop  offset="1" style="stop-color:#ECEEEE"/>
						</linearGradient>
						<path class="st4" d="M249.9,128.7c0,47.37-38.42,85.77-85.8,85.77c-47.38,0-85.8-38.4-85.8-85.77
							c0-47.37,38.41-85.77,85.8-85.77C211.48,42.93,249.9,81.34,249.9,128.7z"/>
						<linearGradient id="SVGID_4_" gradientUnits="userSpaceOnUse" x1="80.945" y1="128.7025" x2="247.2594" y2="128.7025">
							<stop  offset="0.0871" style="stop-color:#FBFCFC"/>
							<stop  offset="1" style="stop-color:#E8E9EA"/>
						</linearGradient>
						<path class="st5" d="M247.26,128.7c0,45.92-37.24,83.13-83.16,83.13c-45.92,0-83.16-37.21-83.16-83.13
							c0-45.91,37.23-83.13,83.16-83.13C210.02,45.57,247.26,82.79,247.26,128.7z"/>
						<linearGradient id="SVGID_5_" gradientUnits="userSpaceOnUse" x1="83.5853" y1="128.7024" x2="244.6198" y2="128.7024">
							<stop  offset="0.0871" style="stop-color:#FCFDFD"/>
							<stop  offset="1" style="stop-color:#E4E5E6"/>
						</linearGradient>
						<path class="st6" d="M244.62,128.7c0,44.46-36.05,80.49-80.52,80.49c-44.47,0-80.52-36.03-80.52-80.49
							c0-44.45,36.05-80.49,80.52-80.49C208.57,48.21,244.62,84.25,244.62,128.7z"/>
						<linearGradient id="SVGID_6_" gradientUnits="userSpaceOnUse" x1="86.2256" y1="128.7022" x2="241.9801" y2="128.7022">
							<stop  offset="0.0871" style="stop-color:#FDFEFE"/>
							<stop  offset="1" style="stop-color:#E0E1E2"/>
						</linearGradient>
						<path class="st7" d="M241.98,128.7c0,43-34.87,77.85-77.88,77.85c-43.01,0-77.88-34.85-77.88-77.85
							c0-43,34.87-77.85,77.88-77.85C207.11,50.85,241.98,85.71,241.98,128.7z"/>
						<linearGradient id="SVGID_7_" gradientUnits="userSpaceOnUse" x1="88.8659" y1="128.702" x2="239.3405" y2="128.702">
							<stop  offset="0.0871" style="stop-color:#FFFFFF"/>
							<stop  offset="1" style="stop-color:#D9D9D9"/>
						</linearGradient>
						<path class="st8" d="M239.34,128.7c0,41.54-33.69,75.21-75.24,75.21c-41.55,0-75.24-33.67-75.24-75.21
							c0-41.54,33.69-75.21,75.24-75.21C205.65,53.49,239.34,87.16,239.34,128.7z"/>
					</g>
				</g>
			</g>
			<g>
				
					<radialGradient id="SVGID_8_" cx="97.2942" cy="245.4182" r="79.8019" gradientTransform="matrix(-0.7071 -0.7071 0.7071 -0.7071 59.3633 369.9706)" gradientUnits="userSpaceOnUse">
					<stop  offset="0.8727" style="stop-color:#231F20"/>
					<stop  offset="0.8872" style="stop-color:#2D292A"/>
					<stop  offset="0.914" style="stop-color:#494444"/>
					<stop  offset="0.95" style="stop-color:#7F7979"/>
					<stop  offset="0.9935" style="stop-color:#E4E2E2"/>
					<stop  offset="1" style="stop-color:#FFFFFF"/>
				</radialGradient>
				<path class="st9" d="M107.67,71.21c31.17-31.17,81.69-31.16,112.86,0c31.17,31.16,31.17,81.69,0,112.85
					c-31.17,31.17-81.69,31.17-112.86,0C76.51,152.9,76.51,102.37,107.67,71.21z"/>
				<g>
					<path class="st0" d="M113.72,82.62c26.13-26.13,68.49-26.13,94.62,0c26.13,26.13,26.13,68.5,0,94.62
						c-26.13,26.13-68.5,26.13-94.62,0C87.59,151.12,87.59,108.75,113.72,82.62z"/>
					
						<linearGradient id="SVGID_9_" gradientUnits="userSpaceOnUse" x1="97.8014" y1="164.4548" x2="97.8014" y2="316.6029" gradientTransform="matrix(-0.7071 -0.7071 0.7071 -0.7071 59.3633 369.9706)">
						<stop  offset="0.0871" style="stop-color:#FFFFFF"/>
						<stop  offset="1" style="stop-color:#D9D9D9"/>
					</linearGradient>
					<path class="st10" d="M106.49,76.94c29.71-29.71,77.88-29.71,107.58,0c29.71,29.71,29.71,77.88,0,107.58
						c-29.71,29.71-77.88,29.71-107.59,0C76.79,154.82,76.79,106.65,106.49,76.94z"/>
					<g>
						<g>
							<path class="st2" d="M106.5,74.77c30.32-30.33,79.5-30.33,109.82,0c30.33,30.33,30.33,79.49,0,109.82
								c-30.32,30.32-79.5,30.32-109.82,0C76.17,154.27,76.17,105.1,106.5,74.77z"/>
							
								<linearGradient id="SVGID_10_" gradientUnits="userSpaceOnUse" x1="264.4669" y1="200.0616" x2="117.3841" y2="52.9788" gradientTransform="matrix(0.7155 -0.1179 0.1179 0.7155 9.8939 61.6618)">
								<stop  offset="0.0871" style="stop-color:#F8FAFA"/>
								<stop  offset="1" style="stop-color:#F0F2F2"/>
							</linearGradient>
							<path class="st11" d="M108.09,76.37c29.44-29.45,77.19-29.45,106.63,0c29.45,29.45,29.45,77.19,0,106.64
								c-29.45,29.45-77.19,29.45-106.64,0C78.65,153.56,78.64,105.81,108.09,76.37z"/>
							
								<linearGradient id="SVGID_11_" gradientUnits="userSpaceOnUse" x1="352.0622" y1="255.0251" x2="141.4137" y2="44.3766" gradientTransform="matrix(0.431 -0.2357 0.2357 0.431 19.7878 123.3235)">
								<stop  offset="0.0871" style="stop-color:#F9FBFA"/>
								<stop  offset="1" style="stop-color:#ECEEEE"/>
							</linearGradient>
							<path class="st12" d="M109.68,77.96c28.57-28.57,74.89-28.57,103.45,0c28.57,28.57,28.57,74.88,0,103.45
								c-28.57,28.57-74.89,28.57-103.45,0C81.12,152.84,81.11,106.52,109.68,77.96z"/>
							
								<linearGradient id="SVGID_12_" gradientUnits="userSpaceOnUse" x1="396.2828" y1="393.7516" x2="134.1995" y2="131.6683" gradientTransform="matrix(0.1464 -0.3535 0.3535 0.1464 29.6816 184.9853)">
								<stop  offset="0.0871" style="stop-color:#FBFCFC"/>
								<stop  offset="1" style="stop-color:#E8E9EA"/>
							</linearGradient>
							<path class="st13" d="M111.27,79.55c27.69-27.69,72.58-27.69,100.27,0c27.69,27.69,27.69,72.58,0,100.27
								c-27.69,27.69-72.58,27.69-100.27,0C83.59,152.13,83.58,107.24,111.27,79.55z"/>
							
								<linearGradient id="SVGID_13_" gradientUnits="userSpaceOnUse" x1="257.6537" y1="403.8087" x2="59.9518" y2="206.1067" gradientTransform="matrix(-0.1381 -0.4714 0.4714 -0.1381 39.5755 246.647)">
								<stop  offset="0.0871" style="stop-color:#FCFDFD"/>
								<stop  offset="1" style="stop-color:#E4E5E6"/>
							</linearGradient>
							<path class="st14" d="M112.86,81.14c26.81-26.81,70.28-26.81,97.09,0c26.81,26.81,26.81,70.28,0,97.09
								c-26.81,26.81-70.28,26.81-97.08,0C86.06,151.42,86.05,107.95,112.86,81.14z"/>
							
								<linearGradient id="SVGID_14_" gradientUnits="userSpaceOnUse" x1="174.9755" y1="333.7665" x2="45.4634" y2="204.2544" gradientTransform="matrix(-0.4226 -0.5892 0.5892 -0.4226 49.4694 308.3088)">
								<stop  offset="0.0871" style="stop-color:#FDFEFE"/>
								<stop  offset="1" style="stop-color:#E0E1E2"/>
							</linearGradient>
							<path class="st15" d="M114.45,82.73c25.93-25.93,67.98-25.93,93.9,0c25.93,25.93,25.93,67.97,0,93.9
								c-25.93,25.93-67.97,25.93-93.9,0C88.53,150.71,88.52,108.66,114.45,82.73z"/>
							
								<linearGradient id="SVGID_15_" gradientUnits="userSpaceOnUse" x1="143.1157" y1="287.4284" x2="52.3937" y2="196.7063" gradientTransform="matrix(-0.7071 -0.7071 0.7071 -0.7071 59.3633 369.9706)">
								<stop  offset="0.0871" style="stop-color:#FFFFFF"/>
								<stop  offset="1" style="stop-color:#D9D9D9"/>
							</linearGradient>
							<path class="st16" d="M116.05,84.32c25.05-25.06,65.67-25.05,90.72,0c25.05,25.05,25.05,65.67,0,90.72
								c-25.05,25.05-65.67,25.05-90.72,0C91,149.99,90.99,109.37,116.05,84.32z"/>
						</g>
					</g>
				</g>
			</g>
		</g>
	</g>
	<g id="ORANGE_x5F_CIRCLES">
		<linearGradient id="SVGID_16_" gradientUnits="userSpaceOnUse" x1="87.9514" y1="210.1078" x2="87.9514" y2="202.9283">
			<stop  offset="0.0871" style="stop-color:#FDEBA9"/>
			<stop  offset="1" style="stop-color:#FBB03B"/>
		</linearGradient>
		<path class="st17" d="M90.49,209.06c-1.4,1.4-3.67,1.4-5.08,0c-1.4-1.4-1.4-3.68,0-5.08c1.4-1.4,3.67-1.4,5.08,0
			C91.89,205.38,91.89,207.65,90.49,209.06z"/>
		<linearGradient id="SVGID_17_" gradientUnits="userSpaceOnUse" x1="61.4981" y1="166.6278" x2="61.4981" y2="159.4491">
			<stop  offset="0.0871" style="stop-color:#FDEBA9"/>
			<stop  offset="1" style="stop-color:#FBB03B"/>
		</linearGradient>
		<path class="st18" d="M64.04,165.58c-1.4,1.4-3.67,1.4-5.08,0c-1.4-1.4-1.4-3.68,0-5.08c1.4-1.4,3.68-1.4,5.08,0
			C65.44,161.9,65.44,164.17,64.04,165.58z"/>
		<linearGradient id="SVGID_18_" gradientUnits="userSpaceOnUse" x1="57.7185" y1="117.4647" x2="57.7185" y2="110.2858">
			<stop  offset="0.0871" style="stop-color:#FDEBA9"/>
			<stop  offset="1" style="stop-color:#FBB03B"/>
		</linearGradient>
		<path class="st19" d="M60.26,116.41c-1.4,1.4-3.67,1.4-5.08,0c-1.4-1.4-1.4-3.67,0-5.08c1.4-1.4,3.67-1.4,5.08,0
			C61.66,112.74,61.66,115.01,60.26,116.41z"/>
		<linearGradient id="SVGID_19_" gradientUnits="userSpaceOnUse" x1="76.6137" y1="71.141" x2="76.6137" y2="63.962">
			<stop  offset="0.0871" style="stop-color:#FDEBA9"/>
			<stop  offset="1" style="stop-color:#FBB03B"/>
		</linearGradient>
		<path class="st20" d="M79.15,70.09c-1.4,1.4-3.67,1.4-5.08,0c-1.4-1.4-1.4-3.68,0-5.08c1.4-1.4,3.67-1.4,5.08,0
			C80.55,66.41,80.55,68.69,79.15,70.09z"/>
		<linearGradient id="SVGID_20_" gradientUnits="userSpaceOnUse" x1="115.8845" y1="37.6527" x2="115.8845" y2="30.4733">
			<stop  offset="0.0871" style="stop-color:#FDEBA9"/>
			<stop  offset="1" style="stop-color:#FBB03B"/>
		</linearGradient>
		<path class="st21" d="M118.42,36.6c-1.4,1.4-3.68,1.4-5.08,0c-1.4-1.4-1.4-3.68,0-5.08c1.4-1.4,3.67-1.4,5.08,0
			C119.82,32.93,119.82,35.2,118.42,36.6z"/>
		<linearGradient id="SVGID_21_" gradientUnits="userSpaceOnUse" x1="164.1005" y1="26.3148" x2="164.1005" y2="19.1358">
			<stop  offset="0.0871" style="stop-color:#FDEBA9"/>
			<stop  offset="1" style="stop-color:#FBB03B"/>
		</linearGradient>
		<path class="st22" d="M166.64,25.26c-1.4,1.4-3.67,1.4-5.08,0c-1.4-1.4-1.4-3.67,0-5.08c1.4-1.4,3.67-1.4,5.08,0
			C168.04,21.59,168.04,23.86,166.64,25.26z"/>
		<linearGradient id="SVGID_22_" gradientUnits="userSpaceOnUse" x1="212.3194" y1="37.6527" x2="212.3194" y2="30.4733">
			<stop  offset="0.0871" style="stop-color:#FDEBA9"/>
			<stop  offset="1" style="stop-color:#FBB03B"/>
		</linearGradient>
		<path class="st23" d="M214.86,36.6c-1.4,1.4-3.67,1.4-5.08,0c-1.4-1.4-1.4-3.68,0-5.08c1.4-1.4,3.67-1.4,5.08,0
			C216.26,32.93,216.26,35.2,214.86,36.6z"/>
		<linearGradient id="SVGID_23_" gradientUnits="userSpaceOnUse" x1="251.5879" y1="71.141" x2="251.5879" y2="63.962">
			<stop  offset="0.0871" style="stop-color:#FDEBA9"/>
			<stop  offset="1" style="stop-color:#FBB03B"/>
		</linearGradient>
		<path class="st24" d="M254.13,70.09c-1.4,1.4-3.68,1.4-5.08,0c-1.4-1.4-1.4-3.68,0-5.08c1.4-1.4,3.68-1.4,5.08,0
			C255.53,66.41,255.53,68.69,254.13,70.09z"/>
		<linearGradient id="SVGID_24_" gradientUnits="userSpaceOnUse" x1="270.4847" y1="117.4647" x2="270.4847" y2="110.2858">
			<stop  offset="0.0871" style="stop-color:#FDEBA9"/>
			<stop  offset="1" style="stop-color:#FBB03B"/>
		</linearGradient>
		<path class="st25" d="M273.02,116.41c-1.4,1.4-3.68,1.4-5.08,0c-1.4-1.4-1.4-3.67,0-5.08c1.4-1.4,3.67-1.4,5.08,0
			C274.42,112.74,274.43,115.01,273.02,116.41z"/>
		<linearGradient id="SVGID_25_" gradientUnits="userSpaceOnUse" x1="266.7052" y1="166.6278" x2="266.7052" y2="159.4491">
			<stop  offset="0.0871" style="stop-color:#FDEBA9"/>
			<stop  offset="1" style="stop-color:#FBB03B"/>
		</linearGradient>
		<path class="st26" d="M269.24,165.58c-1.4,1.4-3.68,1.4-5.08,0c-1.4-1.4-1.4-3.68,0-5.08c1.4-1.4,3.68-1.4,5.08,0
			C270.65,161.9,270.65,164.17,269.24,165.58z"/>
		<linearGradient id="SVGID_26_" gradientUnits="userSpaceOnUse" x1="240.2515" y1="210.1078" x2="240.2515" y2="202.9283">
			<stop  offset="0.0871" style="stop-color:#FDEBA9"/>
			<stop  offset="1" style="stop-color:#FBB03B"/>
		</linearGradient>
		<path class="st27" d="M242.79,209.06c-1.4,1.4-3.68,1.4-5.08,0c-1.4-1.4-1.4-3.68,0-5.08c1.41-1.4,3.68-1.4,5.08,0
			C244.19,205.38,244.19,207.65,242.79,209.06z"/>
	</g>
	<g id="TEXT_2_">
		<g>
			<path class="st28" d="M107.19,225.56c0-0.14,0.06-0.17,0.16-0.17h0.44l1.31,4.21c0.08,0.25,0.42,1.44,0.42,1.44
				s0.34-1.15,0.41-1.4l1.26-4.08c0.02-0.07,0.05-0.17,0.17-0.17h0.5v8.24c0,0.16,0,0.16-0.67,0.16l0.02-3.47l0.11-3.38l-0.9,3
				l-0.7,2.04c-0.02,0.07-0.08,0.11-0.13,0.11h-0.31l-0.67-2.15c-0.05-0.13-0.6-1.98-0.9-2.95c0.02,0.58,0.11,2.66,0.12,3.25
				l0.01,3.39c0,0.16-0.02,0.16-0.65,0.16V225.56z"/>
			<path class="st28" d="M113.16,225.73c0-0.34,0.02-0.34,0.67-0.34v8.24c0,0.16-0.01,0.16-0.67,0.16V225.73z"/>
			<path class="st28" d="M117.21,230.42c-0.13-0.31-1.08-2.75-1.46-3.75c0.02,0.89,0.05,3.78,0.05,4.03v2.94
				c0,0.16,0,0.16-0.65,0.16v-8.23c0-0.12,0.05-0.17,0.16-0.17h0.47l1.44,3.31c0.13,0.37,1.13,2.89,1.49,3.79
				c-0.05-0.72-0.06-3.8-0.06-4.09v-2.84c0-0.17,0.01-0.17,0.66-0.17v8.24c0,0.1-0.06,0.16-0.16,0.16h-0.46L117.21,230.42z"/>
		</g>
		<g>
			<path class="st28" d="M206.62,225.6c0-0.19,0.1-0.2,0.2-0.2h0.71l1.14,3.62c0.14,0.47,0.36,1.26,0.38,1.34
				c0.01-0.05,0.2-0.86,0.35-1.31l1.06-3.45c0.04-0.12,0.07-0.2,0.19-0.2h0.79v8.2c0,0.19,0,0.19-1,0.19l0.04-2.91
				c0.02-1.14,0.19-3.17,0.22-3.54c-0.25,0.9-0.67,2.41-0.77,2.69l-0.64,1.82c-0.02,0.08-0.08,0.1-0.13,0.1h-0.42l-0.62-1.92
				c-0.1-0.26-0.52-1.79-0.78-2.71v0.01c0,0,0.22,2.22,0.23,3.5l0.02,2.77c0,0.19-0.06,0.19-0.97,0.19V225.6z"/>
			<path class="st28" d="M215.63,231.66h-2.06l-0.47,1.97c-0.04,0.13-0.07,0.19-0.46,0.19c-0.13,0-0.38-0.01-0.61-0.04l2.13-8.25
				c0.02-0.12,0.16-0.17,0.37-0.17c0.17,0,0.34,0.01,0.46,0.04l2.15,8.22c0.02,0.13-0.04,0.2-0.42,0.2c-0.14,0-0.34,0-0.58-0.02
				L215.63,231.66z M213.77,230.77h1.66l-0.41-1.7c-0.19-0.79-0.36-1.73-0.42-2.3c-0.07,0.58-0.24,1.5-0.42,2.3L213.77,230.77z"/>
			<path class="st28" d="M220.43,229.38l1.71,4.25c0.06,0.11,0.02,0.17-0.1,0.17h-1.07l-0.65-1.62c-0.25-0.64-0.49-1.32-0.64-1.75
				c-0.14,0.42-0.38,1.1-0.66,1.75l-0.65,1.5c-0.06,0.1-0.11,0.12-0.23,0.12h-0.84l1.82-4.34l-1.5-3.89c-0.06-0.17,0-0.17,1.15-0.17
				l0.48,1.36c0.25,0.68,0.47,1.39,0.59,1.8c0.12-0.4,0.34-1.1,0.6-1.8l0.46-1.2c0.05-0.16,0.04-0.16,1.06-0.16L220.43,229.38z"/>
		</g>
	</g>
	<g id="SMALL_x5F_CIRCLE">
		<path class="st0" d="M195.34,135.99c3.54-3.54,9.28-3.54,12.82,0c3.54,3.54,3.54,9.28,0,12.82c-3.54,3.54-9.28,3.54-12.82,0
			C191.8,145.26,191.8,139.53,195.34,135.99z"/>
		
			<linearGradient id="SVGID_27_" gradientUnits="userSpaceOnUse" x1="60.2343" y1="251.1481" x2="60.2343" y2="271.7621" gradientTransform="matrix(-0.7071 -0.7071 0.7071 -0.7071 59.3633 369.9706)">
			<stop  offset="0.0871" style="stop-color:#FFFFFF"/>
			<stop  offset="1" style="stop-color:#D9D9D9"/>
		</linearGradient>
		<path class="st29" d="M194.36,135.22c4.03-4.03,10.55-4.03,14.58,0c4.03,4.03,4.03,10.55,0,14.58c-4.03,4.03-10.55,4.03-14.58,0
			C190.33,145.77,190.33,139.24,194.36,135.22z"/>
		<g>
			<g>
				<path class="st2" d="M194.36,134.92c4.11-4.11,10.77-4.11,14.88,0c4.11,4.11,4.11,10.77,0,14.88c-4.11,4.11-10.77,4.11-14.88,0
					C190.25,145.69,190.25,139.03,194.36,134.92z"/>
				
					<linearGradient id="SVGID_28_" gradientUnits="userSpaceOnUse" x1="253.0089" y1="162.7871" x2="233.0808" y2="142.8589" gradientTransform="matrix(0.7155 -0.1179 0.1179 0.7155 9.8939 61.6618)">
					<stop  offset="0.0871" style="stop-color:#F8FAFA"/>
					<stop  offset="1" style="stop-color:#F0F2F2"/>
				</linearGradient>
				<path class="st30" d="M194.57,135.14c3.99-3.99,10.46-3.99,14.45,0c3.99,3.99,3.99,10.46,0,14.45c-3.99,3.99-10.46,3.99-14.45,0
					C190.59,145.6,190.59,139.13,194.57,135.14z"/>
				
					<linearGradient id="SVGID_29_" gradientUnits="userSpaceOnUse" x1="320.7661" y1="226.0702" x2="292.2261" y2="197.5302" gradientTransform="matrix(0.431 -0.2357 0.2357 0.431 19.7878 123.3235)">
					<stop  offset="0.0871" style="stop-color:#F9FBFA"/>
					<stop  offset="1" style="stop-color:#ECEEEE"/>
				</linearGradient>
				<path class="st31" d="M194.79,135.35c3.87-3.87,10.15-3.87,14.02,0c3.87,3.87,3.87,10.15,0,14.02c-3.87,3.87-10.15,3.87-14.02,0
					C190.92,145.5,190.92,139.22,194.79,135.35z"/>
				
					<linearGradient id="SVGID_30_" gradientUnits="userSpaceOnUse" x1="292.7806" y1="390.6557" x2="257.2717" y2="355.1469" gradientTransform="matrix(0.1464 -0.3535 0.3535 0.1464 29.6816 184.9853)">
					<stop  offset="0.0871" style="stop-color:#FBFCFC"/>
					<stop  offset="1" style="stop-color:#E8E9EA"/>
				</linearGradient>
				<path class="st32" d="M195.01,135.57c3.75-3.75,9.83-3.75,13.58,0c3.75,3.75,3.75,9.83,0,13.59c-3.75,3.75-9.83,3.75-13.58,0
					C191.25,145.4,191.25,139.32,195.01,135.57z"/>
				
					<linearGradient id="SVGID_31_" gradientUnits="userSpaceOnUse" x1="124.3128" y1="390.0104" x2="97.5265" y2="363.2241" gradientTransform="matrix(-0.1381 -0.4714 0.4714 -0.1381 39.5755 246.647)">
					<stop  offset="0.0871" style="stop-color:#FCFDFD"/>
					<stop  offset="1" style="stop-color:#E4E5E6"/>
				</linearGradient>
				<path class="st33" d="M195.22,135.78c3.63-3.63,9.52-3.63,13.15,0c3.63,3.63,3.63,9.52,0,13.15c-3.63,3.63-9.52,3.63-13.15,0
					C191.59,145.31,191.59,139.42,195.22,135.78z"/>
				
					<linearGradient id="SVGID_32_" gradientUnits="userSpaceOnUse" x1="72.3213" y1="312.8606" x2="54.7741" y2="295.3134" gradientTransform="matrix(-0.4226 -0.5892 0.5892 -0.4226 49.4694 308.3088)">
					<stop  offset="0.0871" style="stop-color:#FDFEFE"/>
					<stop  offset="1" style="stop-color:#E0E1E2"/>
				</linearGradient>
				<path class="st34" d="M195.44,136c3.51-3.51,9.21-3.51,12.72,0c3.51,3.51,3.51,9.21,0,12.72c-3.51,3.51-9.21,3.51-12.72,0
					C191.92,145.21,191.92,139.51,195.44,136z"/>
				
					<linearGradient id="SVGID_33_" gradientUnits="userSpaceOnUse" x1="66.3737" y1="267.8093" x2="54.0821" y2="255.5176" gradientTransform="matrix(-0.7071 -0.7071 0.7071 -0.7071 59.3633 369.9706)">
					<stop  offset="0.0871" style="stop-color:#FFFFFF"/>
					<stop  offset="1" style="stop-color:#D9D9D9"/>
				</linearGradient>
				<path class="st35" d="M195.65,136.22c3.39-3.39,8.9-3.39,12.29,0c3.39,3.39,3.39,8.9,0,12.29c-3.39,3.39-8.9,3.39-12.29,0
					C192.26,145.11,192.26,139.61,195.65,136.22z"/>
			</g>
		</g>
	</g>
</g>
<g id="MEDIUM">
	<g id="CENTER_x5F_MEDIUM">
		<g id="GREEN_x5F_CIRCLES">
			<linearGradient id="SVGID_34_" gradientUnits="userSpaceOnUse" x1="104.528" y1="406.2093" x2="104.528" y2="400.5935">
				<stop  offset="0.0817" style="stop-color:#C1E0B5"/>
				<stop  offset="1" style="stop-color:#24B574"/>
			</linearGradient>
			<path class="st36" d="M106.51,405.39c-1.1,1.1-2.87,1.1-3.97,0c-1.1-1.1-1.1-2.87,0-3.97c1.1-1.1,2.88-1.09,3.97,0
				C107.61,402.51,107.61,404.29,106.51,405.39z"/>
			<linearGradient id="SVGID_35_" gradientUnits="userSpaceOnUse" x1="83.8331" y1="372.1949" x2="83.8331" y2="366.5797">
				<stop  offset="0.0817" style="stop-color:#C1E0B5"/>
				<stop  offset="1" style="stop-color:#24B574"/>
			</linearGradient>
			<path class="st37" d="M85.82,371.37c-1.1,1.09-2.87,1.09-3.97,0c-1.1-1.1-1.1-2.88,0-3.97c1.1-1.1,2.88-1.1,3.97,0
				C86.92,368.5,86.92,370.28,85.82,371.37z"/>
			<linearGradient id="SVGID_36_" gradientUnits="userSpaceOnUse" x1="80.876" y1="333.7333" x2="80.876" y2="328.1171">
				<stop  offset="0.0817" style="stop-color:#C1E0B5"/>
				<stop  offset="1" style="stop-color:#24B574"/>
			</linearGradient>
			<path class="st38" d="M82.86,332.91c-1.1,1.1-2.87,1.1-3.97,0c-1.1-1.1-1.1-2.87,0-3.97c1.1-1.1,2.88-1.1,3.97,0
				C83.96,330.04,83.96,331.81,82.86,332.91z"/>
			<linearGradient id="SVGID_37_" gradientUnits="userSpaceOnUse" x1="95.6584" y1="297.4937" x2="95.6584" y2="291.8774">
				<stop  offset="0.0817" style="stop-color:#C1E0B5"/>
				<stop  offset="1" style="stop-color:#24B574"/>
			</linearGradient>
			<path class="st39" d="M97.64,296.67c-1.1,1.09-2.87,1.09-3.97,0c-1.1-1.1-1.1-2.88,0-3.97c1.1-1.1,2.87-1.1,3.97,0
				C98.74,293.8,98.74,295.58,97.64,296.67z"/>
			<linearGradient id="SVGID_38_" gradientUnits="userSpaceOnUse" x1="126.3806" y1="271.2953" x2="126.3806" y2="265.6783">
				<stop  offset="0.0817" style="stop-color:#C1E0B5"/>
				<stop  offset="1" style="stop-color:#24B574"/>
			</linearGradient>
			<path class="st40" d="M128.37,270.47c-1.1,1.1-2.88,1.1-3.97,0c-1.1-1.1-1.1-2.88,0-3.97c1.1-1.1,2.87-1.1,3.97,0
				C129.46,267.6,129.46,269.37,128.37,270.47z"/>
			<linearGradient id="SVGID_39_" gradientUnits="userSpaceOnUse" x1="164.1011" y1="262.4252" x2="164.1011" y2="256.8088">
				<stop  offset="0.0817" style="stop-color:#C1E0B5"/>
				<stop  offset="1" style="stop-color:#24B574"/>
			</linearGradient>
			<path class="st41" d="M166.09,261.6c-1.09,1.1-2.87,1.1-3.97,0c-1.1-1.1-1.1-2.88,0-3.97c1.1-1.1,2.88-1.1,3.97,0
				C167.18,258.73,167.18,260.5,166.09,261.6z"/>
			<linearGradient id="SVGID_40_" gradientUnits="userSpaceOnUse" x1="201.8237" y1="271.2953" x2="201.8237" y2="265.6783">
				<stop  offset="0.0817" style="stop-color:#C1E0B5"/>
				<stop  offset="1" style="stop-color:#24B574"/>
			</linearGradient>
			<path class="st42" d="M203.81,270.47c-1.1,1.1-2.87,1.1-3.97,0c-1.09-1.1-1.09-2.88,0-3.97c1.1-1.1,2.88-1.1,3.97,0
				C204.91,267.6,204.91,269.37,203.81,270.47z"/>
			<linearGradient id="SVGID_41_" gradientUnits="userSpaceOnUse" x1="232.5444" y1="297.4937" x2="232.5444" y2="291.8774">
				<stop  offset="0.0817" style="stop-color:#C1E0B5"/>
				<stop  offset="1" style="stop-color:#24B574"/>
			</linearGradient>
			<path class="st43" d="M234.53,296.67c-1.09,1.09-2.87,1.09-3.97,0c-1.1-1.1-1.1-2.88,0-3.97c1.1-1.1,2.88-1.1,3.97,0
				C235.63,293.8,235.63,295.58,234.53,296.67z"/>
			<linearGradient id="SVGID_42_" gradientUnits="userSpaceOnUse" x1="247.3275" y1="333.7333" x2="247.3275" y2="328.1171">
				<stop  offset="0.0817" style="stop-color:#C1E0B5"/>
				<stop  offset="1" style="stop-color:#24B574"/>
			</linearGradient>
			<path class="st44" d="M249.31,332.91c-1.1,1.1-2.88,1.1-3.97,0c-1.1-1.1-1.1-2.87,0-3.97c1.1-1.1,2.88-1.1,3.97,0
				C250.41,330.04,250.41,331.81,249.31,332.91z"/>
			<linearGradient id="SVGID_43_" gradientUnits="userSpaceOnUse" x1="244.3706" y1="372.1949" x2="244.3706" y2="366.5797">
				<stop  offset="0.0817" style="stop-color:#C1E0B5"/>
				<stop  offset="1" style="stop-color:#24B574"/>
			</linearGradient>
			<path class="st45" d="M246.36,371.37c-1.1,1.09-2.88,1.09-3.97,0c-1.1-1.1-1.1-2.88,0-3.97c1.1-1.1,2.88-1.1,3.97,0
				C247.45,368.5,247.45,370.28,246.36,371.37z"/>
			<linearGradient id="SVGID_44_" gradientUnits="userSpaceOnUse" x1="223.6754" y1="406.2093" x2="223.6754" y2="400.5935">
				<stop  offset="0.0817" style="stop-color:#C1E0B5"/>
				<stop  offset="1" style="stop-color:#24B574"/>
			</linearGradient>
			<path class="st46" d="M225.66,405.39c-1.1,1.1-2.88,1.1-3.97,0c-1.1-1.1-1.1-2.87,0-3.97c1.1-1.1,2.88-1.09,3.97,0
				C226.76,402.51,226.76,404.29,225.66,405.39z"/>
		</g>
		<g id="WHOLE_x5F_CIRCLE_1_">
			<g>
				<g>
					<g>
						<path class="st0" d="M230.12,345.24c0,34.8-29.38,63.01-65.61,63.01c-36.24,0-65.61-28.21-65.61-63.01
							c0-34.8,29.37-63.01,65.61-63.01C200.74,282.22,230.12,310.43,230.12,345.24z"/>
						<linearGradient id="SVGID_45_" gradientUnits="userSpaceOnUse" x1="164.4635" y1="272.5643" x2="164.4635" y2="415.8553">
							<stop  offset="0.0871" style="stop-color:#FFFFFF"/>
							<stop  offset="1" style="stop-color:#D9D9D9"/>
						</linearGradient>
						<path class="st47" d="M239.07,344.21c0,39.57-33.4,71.65-74.61,71.65c-41.2,0-74.6-32.08-74.6-71.65
							c0-39.57,33.4-71.64,74.6-71.64C205.66,272.56,239.07,304.64,239.07,344.21z"/>
						<g>
							<g>
								<path class="st2" d="M240.57,345.66c0,40.39-34.1,73.13-76.15,73.13c-42.06,0-76.15-32.74-76.15-73.13
									c0-40.39,34.1-73.14,76.15-73.14C206.47,272.52,240.57,305.27,240.57,345.66z"/>
								<linearGradient id="SVGID_46_" gradientUnits="userSpaceOnUse" x1="90.4704" y1="345.656" x2="238.3613" y2="345.656">
									<stop  offset="0.0871" style="stop-color:#F8FAFA"/>
									<stop  offset="1" style="stop-color:#F0F2F2"/>
								</linearGradient>
								<path class="st48" d="M238.36,345.66c0,39.22-33.11,71.01-73.94,71.01c-40.84,0-73.95-31.79-73.95-71.01
									c0-39.22,33.11-71.02,73.95-71.02C205.25,274.64,238.36,306.44,238.36,345.66z"/>
								<linearGradient id="SVGID_47_" gradientUnits="userSpaceOnUse" x1="92.6779" y1="345.656" x2="236.1541" y2="345.656">
									<stop  offset="0.0871" style="stop-color:#F9FBFA"/>
									<stop  offset="1" style="stop-color:#ECEEEE"/>
								</linearGradient>
								<path class="st49" d="M236.15,345.66c0,38.05-32.12,68.89-71.74,68.89c-39.62,0-71.74-30.84-71.74-68.89
									c0-38.05,32.12-68.9,71.74-68.9C204.03,276.76,236.15,307.61,236.15,345.66z"/>
								<linearGradient id="SVGID_48_" gradientUnits="userSpaceOnUse" x1="94.8855" y1="345.6559" x2="233.9469" y2="345.6559">
									<stop  offset="0.0871" style="stop-color:#FBFCFC"/>
									<stop  offset="1" style="stop-color:#E8E9EA"/>
								</linearGradient>
								<path class="st50" d="M233.95,345.66c0,36.88-31.13,66.77-69.53,66.77c-38.4,0-69.53-29.89-69.53-66.77
									c0-36.88,31.13-66.78,69.53-66.78C202.81,278.88,233.95,308.78,233.95,345.66z"/>
								<linearGradient id="SVGID_49_" gradientUnits="userSpaceOnUse" x1="97.093" y1="345.6558" x2="231.7398" y2="345.6558">
									<stop  offset="0.0871" style="stop-color:#FCFDFD"/>
									<stop  offset="1" style="stop-color:#E4E5E6"/>
								</linearGradient>
								<path class="st51" d="M231.74,345.66c0,35.71-30.15,64.65-67.32,64.65c-37.18,0-67.32-28.94-67.32-64.65
									c0-35.71,30.14-64.66,67.32-64.66C201.59,281,231.74,309.95,231.74,345.66z"/>
								<linearGradient id="SVGID_50_" gradientUnits="userSpaceOnUse" x1="99.3005" y1="345.6557" x2="229.5326" y2="345.6557">
									<stop  offset="0.0871" style="stop-color:#FDFEFE"/>
									<stop  offset="1" style="stop-color:#E0E1E2"/>
								</linearGradient>
								<path class="st52" d="M229.53,345.66c0,34.54-29.16,62.53-65.12,62.53c-35.96,0-65.12-27.99-65.12-62.53
									c0-34.54,29.16-62.54,65.12-62.54C200.38,283.12,229.53,311.12,229.53,345.66z"/>
								<linearGradient id="SVGID_51_" gradientUnits="userSpaceOnUse" x1="101.508" y1="345.6556" x2="227.3254" y2="345.6556">
									<stop  offset="0.0871" style="stop-color:#FFFFFF"/>
									<stop  offset="1" style="stop-color:#D9D9D9"/>
								</linearGradient>
								<path class="st53" d="M227.33,345.66c0,33.37-28.17,60.41-62.91,60.41c-34.74,0-62.91-27.04-62.91-60.41
									c0-33.37,28.17-60.42,62.91-60.42C199.16,285.24,227.33,312.29,227.33,345.66z"/>
							</g>
						</g>
					</g>
					<g>
						
							<radialGradient id="SVGID_52_" cx="-57.5737" cy="93.3788" r="61.6794" gradientTransform="matrix(-0.7071 -0.7071 0.7071 -0.7071 59.3633 369.9706)" gradientUnits="userSpaceOnUse">
							<stop  offset="0.8727" style="stop-color:#231F20"/>
							<stop  offset="0.8872" style="stop-color:#2D292A"/>
							<stop  offset="0.914" style="stop-color:#494444"/>
							<stop  offset="0.95" style="stop-color:#7F7979"/>
							<stop  offset="0.9935" style="stop-color:#E4E2E2"/>
							<stop  offset="1" style="stop-color:#FFFFFF"/>
						</radialGradient>
						<path class="st54" d="M122.49,301.04c24.09-24.09,63.14-24.09,87.23,0c24.09,24.08,24.09,63.14,0,87.23s-63.14,24.09-87.23,0
							C98.4,364.18,98.4,325.12,122.49,301.04z"/>
						<g>
							<path class="st0" d="M127.16,309.86c20.19-20.19,52.94-20.19,73.13,0c20.2,20.2,20.2,52.94,0,73.13
								c-20.2,20.2-52.94,20.2-73.13,0C106.97,362.8,106.97,330.06,127.16,309.86z"/>
							
								<linearGradient id="SVGID_53_" gradientUnits="userSpaceOnUse" x1="-57.1821" y1="30.8024" x2="-57.1821" y2="148.3987" gradientTransform="matrix(-0.7071 -0.7071 0.7071 -0.7071 59.3633 369.9706)">
								<stop  offset="0.0871" style="stop-color:#FFFFFF"/>
								<stop  offset="1" style="stop-color:#D9D9D9"/>
							</linearGradient>
							<path class="st55" d="M121.58,305.47c22.96-22.96,60.19-22.96,83.15,0c22.96,22.96,22.96,60.19,0,83.15
								c-22.96,22.96-60.19,22.96-83.16,0C98.62,365.66,98.62,328.43,121.58,305.47z"/>
							<g>
								<g>
									<path class="st2" d="M121.58,303.79c23.44-23.44,61.44-23.44,84.88,0c23.44,23.44,23.44,61.44,0,84.88
										c-23.44,23.44-61.44,23.44-84.88,0C98.14,365.24,98.14,327.23,121.58,303.79z"/>
									
										<linearGradient id="SVGID_54_" gradientUnits="userSpaceOnUse" x1="202.7849" y1="478.613" x2="89.1043" y2="364.9325" gradientTransform="matrix(0.7155 -0.1179 0.1179 0.7155 9.8939 61.6618)">
										<stop  offset="0.0871" style="stop-color:#F8FAFA"/>
										<stop  offset="1" style="stop-color:#F0F2F2"/>
									</linearGradient>
									<path class="st56" d="M122.81,305.02c22.76-22.76,59.66-22.76,82.42,0c22.76,22.76,22.76,59.66,0,82.42
										c-22.76,22.76-59.66,22.76-82.42,0C100.05,364.68,100.05,327.78,122.81,305.02z"/>
									
										<linearGradient id="SVGID_55_" gradientUnits="userSpaceOnUse" x1="121.2736" y1="620.4415" x2="-41.5367" y2="457.6311" gradientTransform="matrix(0.431 -0.2357 0.2357 0.431 19.7878 123.3235)">
										<stop  offset="0.0871" style="stop-color:#F9FBFA"/>
										<stop  offset="1" style="stop-color:#ECEEEE"/>
									</linearGradient>
									<path class="st57" d="M124.04,306.25c22.08-22.08,57.88-22.08,79.96,0c22.08,22.08,22.08,57.88,0,79.96
										c-22.08,22.08-57.88,22.08-79.96,0C101.96,364.13,101.96,328.33,124.04,306.25z"/>
									
										<linearGradient id="SVGID_56_" gradientUnits="userSpaceOnUse" x1="-153.6604" y1="586.8561" x2="-356.2254" y2="384.2911" gradientTransform="matrix(0.1464 -0.3535 0.3535 0.1464 29.6816 184.9853)">
										<stop  offset="0.0871" style="stop-color:#FBFCFC"/>
										<stop  offset="1" style="stop-color:#E8E9EA"/>
									</linearGradient>
									<path class="st58" d="M125.27,307.48c21.4-21.4,56.1-21.4,77.5,0c21.4,21.4,21.4,56.1,0,77.5c-21.4,21.4-56.1,21.4-77.5,0
										C103.87,363.58,103.87,328.88,125.27,307.48z"/>
									
										<linearGradient id="SVGID_57_" gradientUnits="userSpaceOnUse" x1="-189.373" y1="262.5494" x2="-342.178" y2="109.7444" gradientTransform="matrix(-0.1381 -0.4714 0.4714 -0.1381 39.5755 246.647)">
										<stop  offset="0.0871" style="stop-color:#FCFDFD"/>
										<stop  offset="1" style="stop-color:#E4E5E6"/>
									</linearGradient>
									<path class="st59" d="M126.5,308.71c20.72-20.72,54.32-20.72,75.04,0c20.72,20.72,20.72,54.32,0,75.04
										c-20.72,20.72-54.32,20.72-75.04,0C105.78,363.03,105.78,329.44,126.5,308.71z"/>
									
										<linearGradient id="SVGID_58_" gradientUnits="userSpaceOnUse" x1="-84.5154" y1="147.9459" x2="-184.6159" y2="47.8454" gradientTransform="matrix(-0.4226 -0.5892 0.5892 -0.4226 49.4694 308.3088)">
										<stop  offset="0.0871" style="stop-color:#FDFEFE"/>
										<stop  offset="1" style="stop-color:#E0E1E2"/>
									</linearGradient>
									<path class="st60" d="M127.73,309.94c20.04-20.05,52.54-20.04,72.58,0c20.04,20.04,20.04,52.54,0,72.58
										c-20.04,20.04-52.54,20.04-72.58,0C107.69,362.48,107.69,329.99,127.73,309.94z"/>
									
										<linearGradient id="SVGID_59_" gradientUnits="userSpaceOnUse" x1="-22.1581" y1="125.8493" x2="-92.2778" y2="55.7296" gradientTransform="matrix(-0.7071 -0.7071 0.7071 -0.7071 59.3633 369.9706)">
										<stop  offset="0.0871" style="stop-color:#FFFFFF"/>
										<stop  offset="1" style="stop-color:#D9D9D9"/>
									</linearGradient>
									<path class="st61" d="M128.96,311.17c19.36-19.37,50.76-19.36,70.12,0c19.36,19.36,19.36,50.75,0,70.12
										c-19.37,19.36-50.75,19.36-70.12,0C109.6,361.93,109.59,330.54,128.96,311.17z"/>
								</g>
							</g>
						</g>
					</g>
				</g>
			</g>
			<g>
				<path class="st0" d="M159.64,319.68c3.54-3.54,9.28-3.54,12.82,0c3.54,3.54,3.54,9.28,0,12.82c-3.54,3.54-9.28,3.54-12.82,0
					C156.1,328.96,156.1,323.22,159.64,319.68z"/>
				
					<linearGradient id="SVGID_60_" gradientUnits="userSpaceOnUse" x1="-44.414" y1="96.0157" x2="-44.414" y2="116.6304" gradientTransform="matrix(-0.7071 -0.7071 0.7071 -0.7071 59.3633 369.9706)">
					<stop  offset="0.0871" style="stop-color:#FFFFFF"/>
					<stop  offset="1" style="stop-color:#D9D9D9"/>
				</linearGradient>
				<path class="st62" d="M158.66,318.91c4.03-4.03,10.55-4.03,14.58,0c4.03,4.03,4.03,10.55,0,14.58c-4.03,4.02-10.55,4.02-14.58,0
					C154.64,329.46,154.64,322.93,158.66,318.91z"/>
				<g>
					<g>
						<circle class="st2" cx="166.1" cy="326.05" r="10.52"/>
						
							<linearGradient id="SVGID_61_" gradientUnits="userSpaceOnUse" x1="163.2626" y1="404.7412" x2="143.335" y2="384.8135" gradientTransform="matrix(0.7155 -0.1179 0.1179 0.7155 9.8939 61.6618)">
							<stop  offset="0.0871" style="stop-color:#F8FAFA"/>
							<stop  offset="1" style="stop-color:#F0F2F2"/>
						</linearGradient>
						<path class="st63" d="M158.88,318.83c3.99-3.99,10.46-3.99,14.45,0c3.99,3.99,3.99,10.46,0,14.45
							c-3.99,3.99-10.46,3.99-14.45,0C154.89,329.29,154.89,322.82,158.88,318.83z"/>
						
							<linearGradient id="SVGID_62_" gradientUnits="userSpaceOnUse" x1="77.5687" y1="519.2928" x2="49.0292" y2="490.7534" gradientTransform="matrix(0.431 -0.2357 0.2357 0.431 19.7878 123.3235)">
							<stop  offset="0.0871" style="stop-color:#F9FBFA"/>
							<stop  offset="1" style="stop-color:#ECEEEE"/>
						</linearGradient>
						<path class="st64" d="M159.09,319.04c3.87-3.87,10.15-3.87,14.02,0c3.87,3.87,3.87,10.15,0,14.02
							c-3.87,3.87-10.15,3.87-14.02,0C155.22,329.19,155.22,322.91,159.09,319.04z"/>
						
							<linearGradient id="SVGID_63_" gradientUnits="userSpaceOnUse" x1="-186.3869" y1="488.1717" x2="-221.8953" y2="452.6633" gradientTransform="matrix(0.1464 -0.3535 0.3535 0.1464 29.6816 184.9853)">
							<stop  offset="0.0871" style="stop-color:#FBFCFC"/>
							<stop  offset="1" style="stop-color:#E8E9EA"/>
						</linearGradient>
						<path class="st65" d="M159.31,319.26c3.75-3.75,9.83-3.75,13.59,0c3.75,3.75,3.75,9.83,0,13.59c-3.75,3.75-9.83,3.75-13.59,0
							C155.56,329.09,155.56,323.01,159.31,319.26z"/>
						
							<linearGradient id="SVGID_64_" gradientUnits="userSpaceOnUse" x1="-214.1454" y1="215.1549" x2="-240.9319" y2="188.3685" gradientTransform="matrix(-0.1381 -0.4714 0.4714 -0.1381 39.5755 246.647)">
							<stop  offset="0.0871" style="stop-color:#FCFDFD"/>
							<stop  offset="1" style="stop-color:#E4E5E6"/>
						</linearGradient>
						<path class="st66" d="M159.52,319.47c3.63-3.63,9.52-3.63,13.15,0c3.63,3.63,3.63,9.52,0,13.15c-3.63,3.63-9.52,3.63-13.15,0
							C155.89,329,155.89,323.11,159.52,319.47z"/>
						
							<linearGradient id="SVGID_65_" gradientUnits="userSpaceOnUse" x1="-104.8493" y1="125.2216" x2="-122.3964" y2="107.6745" gradientTransform="matrix(-0.4226 -0.5892 0.5892 -0.4226 49.4694 308.3088)">
							<stop  offset="0.0871" style="stop-color:#FDFEFE"/>
							<stop  offset="1" style="stop-color:#E0E1E2"/>
						</linearGradient>
						<path class="st67" d="M159.74,319.69c3.51-3.51,9.21-3.51,12.72,0c3.51,3.51,3.51,9.21,0,12.72c-3.51,3.51-9.21,3.51-12.72,0
							C156.23,328.9,156.23,323.2,159.74,319.69z"/>
						
							<linearGradient id="SVGID_66_" gradientUnits="userSpaceOnUse" x1="-38.2747" y1="112.6772" x2="-50.5663" y2="100.3857" gradientTransform="matrix(-0.7071 -0.7071 0.7071 -0.7071 59.3633 369.9706)">
							<stop  offset="0.0871" style="stop-color:#FFFFFF"/>
							<stop  offset="1" style="stop-color:#D9D9D9"/>
						</linearGradient>
						<path class="st68" d="M159.96,319.91c3.39-3.39,8.9-3.39,12.29,0c3.39,3.39,3.39,8.9,0,12.29c-3.39,3.39-8.9,3.39-12.29,0
							C156.56,328.8,156.56,323.3,159.96,319.91z"/>
					</g>
				</g>
			</g>
		</g>
	</g>
	<g id="TEXT_1_">
		<g>
			<path class="st69" d="M112.65,426.73c0-0.12,0.05-0.15,0.13-0.15h0.38l1.13,3.64c0.07,0.22,0.36,1.25,0.36,1.25s0.29-1,0.35-1.21
				l1.09-3.53c0.02-0.06,0.04-0.15,0.15-0.15h0.44v7.13c0,0.13,0,0.13-0.58,0.13l0.02-3l0.09-2.93l-0.78,2.59l-0.6,1.76
				c-0.02,0.06-0.07,0.09-0.11,0.09h-0.27l-0.58-1.86c-0.04-0.11-0.52-1.71-0.78-2.55c0.02,0.5,0.09,2.3,0.1,2.81l0.01,2.94
				c0,0.13-0.02,0.13-0.56,0.13V426.73z"/>
			<path class="st69" d="M117.81,426.88c0-0.29,0.02-0.29,0.58-0.29v7.13c0,0.13-0.01,0.13-0.58,0.13V426.88z"/>
			<path class="st69" d="M121.31,430.93c-0.11-0.27-0.93-2.38-1.27-3.25c0.02,0.77,0.04,3.27,0.04,3.49v2.54
				c0,0.13,0,0.13-0.56,0.13v-7.12c0-0.1,0.04-0.15,0.13-0.15h0.4l1.25,2.86c0.11,0.32,0.98,2.5,1.29,3.28
				c-0.04-0.62-0.05-3.29-0.05-3.54v-2.46c0-0.15,0.01-0.15,0.57-0.15v7.13c0,0.08-0.05,0.13-0.13,0.13h-0.39L121.31,430.93z"/>
		</g>
		<g>
			<path class="st69" d="M198.58,426.76c0-0.17,0.08-0.18,0.18-0.18h0.61l0.99,3.13c0.12,0.41,0.31,1.09,0.33,1.16
				c0.01-0.04,0.18-0.75,0.3-1.13l0.91-2.99c0.03-0.1,0.06-0.18,0.17-0.18h0.68v7.1c0,0.17,0,0.17-0.86,0.17l0.03-2.52
				c0.02-0.99,0.17-2.74,0.19-3.06c-0.22,0.78-0.58,2.08-0.66,2.32l-0.55,1.58c-0.02,0.07-0.07,0.08-0.11,0.08h-0.36l-0.54-1.66
				c-0.08-0.23-0.45-1.55-0.67-2.35v0.01c0,0,0.19,1.92,0.2,3.03l0.02,2.4c0,0.17-0.05,0.17-0.84,0.17V426.76z"/>
			<path class="st69" d="M206.37,432h-1.79l-0.4,1.7c-0.03,0.11-0.06,0.17-0.39,0.17c-0.11,0-0.33-0.01-0.53-0.03l1.85-7.14
				c0.02-0.1,0.14-0.14,0.32-0.14c0.15,0,0.29,0.01,0.39,0.03l1.86,7.11c0.02,0.11-0.03,0.18-0.36,0.18c-0.12,0-0.29,0-0.5-0.02
				L206.37,432z M204.76,431.24h1.43l-0.35-1.47c-0.17-0.69-0.31-1.49-0.36-1.99c-0.06,0.5-0.21,1.3-0.36,1.99L204.76,431.24z"/>
			<path class="st69" d="M210.52,430.03l1.48,3.67c0.05,0.09,0.02,0.15-0.08,0.15H211l-0.56-1.4c-0.22-0.55-0.42-1.14-0.55-1.52
				c-0.12,0.36-0.33,0.96-0.57,1.52l-0.56,1.3c-0.05,0.08-0.09,0.1-0.2,0.1h-0.73l1.58-3.76l-1.3-3.36c-0.05-0.15,0-0.15,1-0.15
				l0.42,1.17c0.22,0.59,0.4,1.2,0.51,1.56c0.1-0.34,0.29-0.95,0.52-1.56l0.39-1.04c0.04-0.14,0.03-0.14,0.91-0.14L210.52,430.03z"
				/>
		</g>
	</g>
</g>
<g id="LAST_x5F_SMALL">
	<g id="SMALL">
		<g id="PURPLE_x5F_CIRCLES">
			<linearGradient id="SVGID_67_" gradientUnits="userSpaceOnUse" x1="119.656" y1="578.0485" x2="119.656" y2="573.8588">
				<stop  offset="0.0817" style="stop-color:#BD8EB7"/>
				<stop  offset="1" style="stop-color:#67308F"/>
			</linearGradient>
			<path class="st70" d="M121.14,574.47c0.82,0.82,0.82,2.14,0,2.96c-0.82,0.82-2.14,0.82-2.96,0c-0.82-0.82-0.82-2.14,0-2.96
				C118.99,573.65,120.32,573.66,121.14,574.47"/>
			<linearGradient id="SVGID_68_" gradientUnits="userSpaceOnUse" x1="104.2164" y1="552.6715" x2="104.2164" y2="548.4818">
				<stop  offset="0.0817" style="stop-color:#BD8EB7"/>
				<stop  offset="1" style="stop-color:#67308F"/>
			</linearGradient>
			<path class="st71" d="M105.7,552.06c-0.82,0.82-2.15,0.82-2.96,0c-0.82-0.82-0.82-2.15,0-2.96c0.82-0.82,2.15-0.82,2.96,0
				C106.52,549.91,106.52,551.24,105.7,552.06z"/>
			<linearGradient id="SVGID_69_" gradientUnits="userSpaceOnUse" x1="102.01" y1="523.9767" x2="102.01" y2="519.7861">
				<stop  offset="0.0817" style="stop-color:#BD8EB7"/>
				<stop  offset="1" style="stop-color:#67308F"/>
			</linearGradient>
			<path class="st72" d="M103.49,523.36c-0.82,0.82-2.15,0.82-2.96,0c-0.82-0.82-0.82-2.14,0-2.96c0.82-0.82,2.15-0.82,2.96,0
				C104.31,521.22,104.31,522.54,103.49,523.36z"/>
			<linearGradient id="SVGID_70_" gradientUnits="userSpaceOnUse" x1="113.0387" y1="496.9393" x2="113.0387" y2="492.7493">
				<stop  offset="0.0817" style="stop-color:#BD8EB7"/>
				<stop  offset="1" style="stop-color:#67308F"/>
			</linearGradient>
			<path class="st73" d="M114.52,496.33c-0.82,0.82-2.14,0.82-2.96,0c-0.82-0.82-0.82-2.15,0-2.96c0.82-0.82,2.14-0.82,2.96,0
				C115.34,494.18,115.34,495.51,114.52,496.33z"/>
			<linearGradient id="SVGID_71_" gradientUnits="userSpaceOnUse" x1="135.9592" y1="477.3932" x2="135.9592" y2="473.2029">
				<stop  offset="0.0817" style="stop-color:#BD8EB7"/>
				<stop  offset="1" style="stop-color:#67308F"/>
			</linearGradient>
			<path class="st74" d="M137.44,476.78c-0.82,0.82-2.14,0.82-2.96,0c-0.82-0.82-0.82-2.15,0-2.96c0.82-0.82,2.14-0.82,2.96,0
				C138.26,474.63,138.26,475.96,137.44,476.78z"/>
			<linearGradient id="SVGID_72_" gradientUnits="userSpaceOnUse" x1="164.1013" y1="470.776" x2="164.1013" y2="466.5859">
				<stop  offset="0.0817" style="stop-color:#BD8EB7"/>
				<stop  offset="1" style="stop-color:#67308F"/>
			</linearGradient>
			<path class="st75" d="M165.58,470.16c-0.82,0.82-2.14,0.82-2.96,0c-0.82-0.82-0.82-2.15,0-2.96c0.82-0.82,2.15-0.82,2.96,0
				C166.4,468.02,166.4,469.34,165.58,470.16z"/>
			<linearGradient id="SVGID_73_" gradientUnits="userSpaceOnUse" x1="192.2446" y1="477.3932" x2="192.2446" y2="473.2029">
				<stop  offset="0.0817" style="stop-color:#BD8EB7"/>
				<stop  offset="1" style="stop-color:#67308F"/>
			</linearGradient>
			<path class="st76" d="M193.73,476.78c-0.82,0.82-2.14,0.82-2.96,0c-0.82-0.82-0.82-2.15,0-2.96c0.82-0.82,2.15-0.82,2.96,0
				C194.54,474.63,194.54,475.96,193.73,476.78z"/>
			<linearGradient id="SVGID_74_" gradientUnits="userSpaceOnUse" x1="215.1643" y1="496.9393" x2="215.1643" y2="492.7493">
				<stop  offset="0.0817" style="stop-color:#BD8EB7"/>
				<stop  offset="1" style="stop-color:#67308F"/>
			</linearGradient>
			<path class="st77" d="M216.65,496.33c-0.82,0.82-2.14,0.82-2.96,0c-0.82-0.82-0.82-2.15,0-2.96c0.82-0.82,2.15-0.82,2.96,0
				C217.46,494.18,217.46,495.51,216.65,496.33z"/>
			<linearGradient id="SVGID_75_" gradientUnits="userSpaceOnUse" x1="226.1932" y1="523.9767" x2="226.1932" y2="519.7861">
				<stop  offset="0.0817" style="stop-color:#BD8EB7"/>
				<stop  offset="1" style="stop-color:#67308F"/>
			</linearGradient>
			<path class="st78" d="M227.68,523.36c-0.82,0.82-2.15,0.82-2.96,0c-0.82-0.82-0.82-2.14,0-2.96c0.82-0.82,2.15-0.82,2.96,0
				C228.49,521.22,228.49,522.54,227.68,523.36z"/>
			<linearGradient id="SVGID_76_" gradientUnits="userSpaceOnUse" x1="223.9873" y1="552.6715" x2="223.9873" y2="548.4818">
				<stop  offset="0.0817" style="stop-color:#BD8EB7"/>
				<stop  offset="1" style="stop-color:#67308F"/>
			</linearGradient>
			<path class="st79" d="M225.47,552.06c-0.82,0.82-2.15,0.82-2.96,0c-0.82-0.82-0.82-2.15,0-2.96c0.82-0.82,2.15-0.82,2.96,0
				C226.29,549.91,226.29,551.24,225.47,552.06z"/>
			<linearGradient id="SVGID_77_" gradientUnits="userSpaceOnUse" x1="208.5473" y1="578.0485" x2="208.5473" y2="573.8588">
				<stop  offset="0.0817" style="stop-color:#BD8EB7"/>
				<stop  offset="1" style="stop-color:#67308F"/>
			</linearGradient>
			<path class="st80" d="M210.03,577.44c-0.82,0.82-2.15,0.82-2.96,0c-0.82-0.82-0.82-2.14,0-2.96c0.82-0.82,2.14-0.82,2.96,0
				C210.85,575.29,210.85,576.62,210.03,577.44z"/>
		</g>
		<g>
			<g id="WHOLE_x5F_CIRCLE">
				<g>
					<g>
						<path class="st0" d="M213.36,532.56c0,25.96-21.92,47.01-48.95,47.01c-27.04,0-48.95-21.05-48.95-47.01
							c0-25.96,21.92-47.01,48.95-47.01C191.44,485.55,213.36,506.59,213.36,532.56z"/>
						<linearGradient id="SVGID_78_" gradientUnits="userSpaceOnUse" x1="164.3713" y1="478.3407" x2="164.3713" y2="585.2451">
							<stop  offset="0.0871" style="stop-color:#FFFFFF"/>
							<stop  offset="1" style="stop-color:#D9D9D9"/>
						</linearGradient>
						<path class="st81" d="M220.03,531.79c0,29.52-24.92,53.45-55.66,53.45c-30.74,0-55.66-23.93-55.66-53.45
							c0-29.52,24.92-53.45,55.66-53.45C195.11,478.34,220.03,502.27,220.03,531.79z"/>
						<g>
							<g>
								<path class="st2" d="M221.15,532.87c0,30.13-25.44,54.56-56.81,54.56c-31.38,0-56.82-24.43-56.82-54.56
									c0-30.13,25.44-54.56,56.82-54.56C195.71,478.31,221.15,502.74,221.15,532.87z"/>
								<linearGradient id="SVGID_79_" gradientUnits="userSpaceOnUse" x1="109.1673" y1="532.8718" x2="219.5043" y2="532.8718">
									<stop  offset="0.0871" style="stop-color:#F8FAFA"/>
									<stop  offset="1" style="stop-color:#F0F2F2"/>
								</linearGradient>
								<path class="st82" d="M219.5,532.87c0,29.26-24.7,52.98-55.17,52.98c-30.47,0-55.17-23.72-55.17-52.98
									c0-29.26,24.7-52.98,55.17-52.98C194.8,479.89,219.5,503.61,219.5,532.87z"/>
								<linearGradient id="SVGID_80_" gradientUnits="userSpaceOnUse" x1="110.8145" y1="532.8718" x2="217.8575" y2="532.8718">
									<stop  offset="0.0871" style="stop-color:#F9FBFA"/>
									<stop  offset="1" style="stop-color:#ECEEEE"/>
								</linearGradient>
								<path class="st83" d="M217.86,532.87c0,28.39-23.97,51.4-53.52,51.4c-29.56,0-53.52-23.01-53.52-51.4
									c0-28.39,23.96-51.4,53.52-51.4C193.89,481.47,217.86,504.49,217.86,532.87z"/>
								<linearGradient id="SVGID_81_" gradientUnits="userSpaceOnUse" x1="112.4616" y1="532.8717" x2="216.2106" y2="532.8717">
									<stop  offset="0.0871" style="stop-color:#FBFCFC"/>
									<stop  offset="1" style="stop-color:#E8E9EA"/>
								</linearGradient>
								<path class="st84" d="M216.21,532.87c0,27.51-23.23,49.82-51.87,49.82c-28.65,0-51.87-22.3-51.87-49.82
									c0-27.51,23.23-49.82,51.87-49.82C192.98,483.05,216.21,505.36,216.21,532.87z"/>
								<linearGradient id="SVGID_82_" gradientUnits="userSpaceOnUse" x1="114.1087" y1="532.8716" x2="214.5638" y2="532.8716">
									<stop  offset="0.0871" style="stop-color:#FCFDFD"/>
									<stop  offset="1" style="stop-color:#E4E5E6"/>
								</linearGradient>
								<path class="st85" d="M214.56,532.87c0,26.64-22.49,48.23-50.23,48.23c-27.74,0-50.23-21.59-50.23-48.23
									c0-26.64,22.49-48.24,50.23-48.24C192.07,484.64,214.56,506.23,214.56,532.87z"/>
								<linearGradient id="SVGID_83_" gradientUnits="userSpaceOnUse" x1="115.7559" y1="532.8716" x2="212.917" y2="532.8716">
									<stop  offset="0.0871" style="stop-color:#FDFEFE"/>
									<stop  offset="1" style="stop-color:#E0E1E2"/>
								</linearGradient>
								<path class="st86" d="M212.92,532.87c0,25.77-21.75,46.65-48.58,46.65c-26.83,0-48.58-20.88-48.58-46.65
									c0-25.77,21.75-46.66,48.58-46.66C191.16,486.22,212.92,507.11,212.92,532.87z"/>
								<linearGradient id="SVGID_84_" gradientUnits="userSpaceOnUse" x1="117.403" y1="532.8715" x2="211.2702" y2="532.8715">
									<stop  offset="0.0871" style="stop-color:#FFFFFF"/>
									<stop  offset="1" style="stop-color:#D9D9D9"/>
								</linearGradient>
								<path class="st87" d="M211.27,532.87c0,24.9-21.02,45.07-46.93,45.07s-46.93-20.18-46.93-45.07
									c0-24.89,21.02-45.07,46.93-45.07S211.27,507.98,211.27,532.87z"/>
							</g>
						</g>
					</g>
					<g>
						
							<radialGradient id="SVGID_85_" cx="-189.7773" cy="-39.543" r="46.0166" gradientTransform="matrix(-0.7071 -0.7071 0.7071 -0.7071 59.3633 369.9706)" gradientUnits="userSpaceOnUse">
							<stop  offset="0.8727" style="stop-color:#231F20"/>
							<stop  offset="0.8872" style="stop-color:#2D292A"/>
							<stop  offset="0.914" style="stop-color:#494444"/>
							<stop  offset="0.95" style="stop-color:#7F7979"/>
							<stop  offset="0.9935" style="stop-color:#E4E2E2"/>
							<stop  offset="1" style="stop-color:#FFFFFF"/>
						</radialGradient>
						<path class="st88" d="M133.06,499.58c17.97-17.97,47.11-17.97,65.08,0c17.97,17.97,17.97,47.11,0,65.08
							c-17.97,17.97-47.11,17.97-65.08,0C115.08,546.69,115.08,517.55,133.06,499.58z"/>
						<g>
							<path class="st0" d="M136.54,506.16c15.07-15.07,39.49-15.07,54.56,0c15.07,15.07,15.07,39.5,0,54.56
								c-15.07,15.07-39.5,15.07-54.56,0C121.47,545.66,121.47,521.23,136.54,506.16z"/>
							
								<linearGradient id="SVGID_86_" gradientUnits="userSpaceOnUse" x1="-189.4852" y1="-86.2287" x2="-189.4852" y2="1.5051" gradientTransform="matrix(-0.7071 -0.7071 0.7071 -0.7071 59.3633 369.9706)">
								<stop  offset="0.0871" style="stop-color:#FFFFFF"/>
								<stop  offset="1" style="stop-color:#D9D9D9"/>
							</linearGradient>
							<path class="st89" d="M132.38,502.89c17.13-17.13,44.91-17.13,62.04,0c17.13,17.13,17.13,44.91,0,62.04
								c-17.13,17.13-44.91,17.13-62.04,0C115.24,547.8,115.24,520.02,132.38,502.89z"/>
							<g>
								<g>
									<path class="st2" d="M132.38,501.64c17.48-17.49,45.84-17.49,63.32,0c17.49,17.49,17.49,45.84,0,63.33
										c-17.49,17.49-45.84,17.49-63.33,0C114.89,547.48,114.89,519.13,132.38,501.64z"/>
									
										<linearGradient id="SVGID_87_" gradientUnits="userSpaceOnUse" x1="146.4505" y1="718.7355" x2="61.6375" y2="633.9225" gradientTransform="matrix(0.7155 -0.1179 0.1179 0.7155 9.8939 61.6618)">
										<stop  offset="0.0871" style="stop-color:#F8FAFA"/>
										<stop  offset="1" style="stop-color:#F0F2F2"/>
									</linearGradient>
									<path class="st90" d="M133.3,502.56c16.98-16.98,44.51-16.98,61.49,0c16.98,16.98,16.98,44.51,0,61.49
										c-16.98,16.98-44.51,16.98-61.49,0C116.32,547.07,116.32,519.54,133.3,502.56z"/>
									
										<linearGradient id="SVGID_88_" gradientUnits="userSpaceOnUse" x1="-82.0992" y1="933.9168" x2="-203.5661" y2="812.4499" gradientTransform="matrix(0.431 -0.2357 0.2357 0.431 19.7878 123.3235)">
										<stop  offset="0.0871" style="stop-color:#F9FBFA"/>
										<stop  offset="1" style="stop-color:#ECEEEE"/>
									</linearGradient>
									<path class="st91" d="M134.21,503.47c16.47-16.47,43.18-16.47,59.65,0c16.47,16.47,16.47,43.18,0,59.66
										c-16.47,16.47-43.18,16.47-59.65,0C117.74,546.66,117.74,519.95,134.21,503.47z"/>
									
										<linearGradient id="SVGID_89_" gradientUnits="userSpaceOnUse" x1="-630.984" y1="748.2618" x2="-782.1105" y2="597.1353" gradientTransform="matrix(0.1464 -0.3535 0.3535 0.1464 29.6816 184.9853)">
										<stop  offset="0.0871" style="stop-color:#FBFCFC"/>
										<stop  offset="1" style="stop-color:#E8E9EA"/>
									</linearGradient>
									<path class="st92" d="M135.13,504.39c15.97-15.97,41.85-15.96,57.82,0c15.97,15.97,15.97,41.85,0,57.82
										c-15.97,15.97-41.85,15.97-57.82,0C119.17,546.25,119.16,520.36,135.13,504.39z"/>
									
										<linearGradient id="SVGID_90_" gradientUnits="userSpaceOnUse" x1="-574.271" y1="136.1426" x2="-688.2733" y2="22.1403" gradientTransform="matrix(-0.1381 -0.4714 0.4714 -0.1381 39.5755 246.647)">
										<stop  offset="0.0871" style="stop-color:#FCFDFD"/>
										<stop  offset="1" style="stop-color:#E4E5E6"/>
									</linearGradient>
									<path class="st93" d="M136.05,505.31c15.46-15.46,40.53-15.46,55.98,0c15.46,15.46,15.46,40.52,0,55.98
										c-15.46,15.46-40.52,15.46-55.98,0C120.59,545.83,120.59,520.77,136.05,505.31z"/>
									
										<linearGradient id="SVGID_91_" gradientUnits="userSpaceOnUse" x1="-306.8881" y1="-15.0893" x2="-381.5696" y2="-89.7709" gradientTransform="matrix(-0.4226 -0.5892 0.5892 -0.4226 49.4694 308.3088)">
										<stop  offset="0.0871" style="stop-color:#FDFEFE"/>
										<stop  offset="1" style="stop-color:#E0E1E2"/>
									</linearGradient>
									<path class="st94" d="M136.97,506.23c14.95-14.96,39.2-14.95,54.15,0c14.95,14.95,14.95,39.2,0,54.15
										c-14.95,14.95-39.19,14.95-54.15,0C122.02,545.42,122.01,521.18,136.97,506.23z"/>
									
										<linearGradient id="SVGID_92_" gradientUnits="userSpaceOnUse" x1="-163.355" y1="-15.3181" x2="-215.669" y2="-67.6321" gradientTransform="matrix(-0.7071 -0.7071 0.7071 -0.7071 59.3633 369.9706)">
										<stop  offset="0.0871" style="stop-color:#FFFFFF"/>
										<stop  offset="1" style="stop-color:#D9D9D9"/>
									</linearGradient>
									<path class="st95" d="M137.88,507.15c14.45-14.45,37.87-14.44,52.31,0c14.45,14.45,14.45,37.87,0,52.31
										c-14.45,14.45-37.87,14.45-52.31,0C123.44,545.01,123.44,521.59,137.88,507.15z"/>
								</g>
							</g>
						</g>
					</g>
				</g>
			</g>
			<g id="WHITE_x5F_DOT">
				<path class="st0" d="M136.89,531.81c2.64-2.64,6.92-2.64,9.57,0c2.64,2.64,2.64,6.92,0,9.57c-2.64,2.64-6.92,2.64-9.57,0
					C134.25,538.73,134.25,534.45,136.89,531.81z"/>
				
					<linearGradient id="SVGID_93_" gradientUnits="userSpaceOnUse" x1="-176.0283" y1="-67.4163" x2="-176.0283" y2="-52.0366" gradientTransform="matrix(-0.7071 -0.7071 0.7071 -0.7071 59.3633 369.9706)">
					<stop  offset="0.0871" style="stop-color:#FFFFFF"/>
					<stop  offset="1" style="stop-color:#D9D9D9"/>
				</linearGradient>
				<path class="st96" d="M136.16,531.24c3-3,7.87-3,10.88,0c3,3,3,7.87,0,10.88c-3,3-7.87,3-10.88,0
					C133.16,539.11,133.16,534.24,136.16,531.24z"/>
				<g>
					<g>
						<path class="st2" d="M136.16,531.02c3.06-3.07,8.04-3.07,11.1,0c3.06,3.07,3.07,8.04,0,11.1c-3.07,3.06-8.04,3.06-11.1,0
							C133.1,539.05,133.1,534.08,136.16,531.02z"/>
						
							<linearGradient id="SVGID_94_" gradientUnits="userSpaceOnUse" x1="80.3649" y1="683.1997" x2="65.4975" y2="668.3323" gradientTransform="matrix(0.7155 -0.1179 0.1179 0.7155 9.8939 61.6618)">
							<stop  offset="0.0871" style="stop-color:#F8FAFA"/>
							<stop  offset="1" style="stop-color:#F0F2F2"/>
						</linearGradient>
						<path class="st97" d="M136.32,531.18c2.98-2.98,7.8-2.98,10.78,0c2.98,2.98,2.98,7.8,0,10.78c-2.98,2.98-7.8,2.98-10.78,0
							C133.35,538.98,133.35,534.15,136.32,531.18z"/>
						
							<linearGradient id="SVGID_95_" gradientUnits="userSpaceOnUse" x1="-175.2537" y1="867.8491" x2="-196.5461" y2="846.5567" gradientTransform="matrix(0.431 -0.2357 0.2357 0.431 19.7878 123.3235)">
							<stop  offset="0.0871" style="stop-color:#F9FBFA"/>
							<stop  offset="1" style="stop-color:#ECEEEE"/>
						</linearGradient>
						<path class="st98" d="M136.49,531.34c2.89-2.89,7.57-2.89,10.46,0c2.89,2.89,2.89,7.57,0,10.46c-2.89,2.89-7.57,2.89-10.46,0
							C133.6,538.91,133.6,534.23,136.49,531.34z"/>
						
							<linearGradient id="SVGID_96_" gradientUnits="userSpaceOnUse" x1="-723.5092" y1="635.3073" x2="-750.001" y2="608.8156" gradientTransform="matrix(0.1464 -0.3535 0.3535 0.1464 29.6816 184.9853)">
							<stop  offset="0.0871" style="stop-color:#FBFCFC"/>
							<stop  offset="1" style="stop-color:#E8E9EA"/>
						</linearGradient>
						<path class="st99" d="M136.65,531.5c2.8-2.8,7.34-2.8,10.14,0c2.8,2.8,2.8,7.34,0,10.14c-2.8,2.8-7.34,2.8-10.14,0
							C133.85,538.83,133.85,534.3,136.65,531.5z"/>
						
							<linearGradient id="SVGID_97_" gradientUnits="userSpaceOnUse" x1="-614.881" y1="43.6454" x2="-634.8657" y2="23.6607" gradientTransform="matrix(-0.1381 -0.4714 0.4714 -0.1381 39.5755 246.647)">
							<stop  offset="0.0871" style="stop-color:#FCFDFD"/>
							<stop  offset="1" style="stop-color:#E4E5E6"/>
						</linearGradient>
						<path class="st100" d="M136.81,531.66c2.71-2.71,7.1-2.71,9.81,0c2.71,2.71,2.71,7.1,0,9.81c-2.71,2.71-7.1,2.71-9.81,0
							C134.1,538.76,134.1,534.37,136.81,531.66z"/>
						
							<linearGradient id="SVGID_98_" gradientUnits="userSpaceOnUse" x1="-323.3972" y1="-73.5291" x2="-336.4887" y2="-86.6206" gradientTransform="matrix(-0.4226 -0.5892 0.5892 -0.4226 49.4694 308.3088)">
							<stop  offset="0.0871" style="stop-color:#FDFEFE"/>
							<stop  offset="1" style="stop-color:#E0E1E2"/>
						</linearGradient>
						<path class="st101" d="M136.97,531.82c2.62-2.62,6.87-2.62,9.49,0c2.62,2.62,2.62,6.87,0,9.49c-2.62,2.62-6.87,2.62-9.49,0
							C134.35,538.69,134.35,534.44,136.97,531.82z"/>
						
							<linearGradient id="SVGID_99_" gradientUnits="userSpaceOnUse" x1="-171.4477" y1="-54.9856" x2="-180.6181" y2="-64.1561" gradientTransform="matrix(-0.7071 -0.7071 0.7071 -0.7071 59.3633 369.9706)">
							<stop  offset="0.0871" style="stop-color:#FFFFFF"/>
							<stop  offset="1" style="stop-color:#D9D9D9"/>
						</linearGradient>
						<path class="st102" d="M137.13,531.98c2.53-2.53,6.64-2.53,9.17,0c2.53,2.53,2.53,6.64,0,9.17c-2.53,2.53-6.64,2.53-9.17,0
							C134.6,538.62,134.6,534.51,137.13,531.98z"/>
					</g>
				</g>
			</g>
		</g>
	</g>
	<g id="TEXT">
		<g>
			<path class="st103" d="M129.72,593.36c0-0.09,0.04-0.11,0.1-0.11h0.29l0.84,2.71c0.05,0.16,0.27,0.93,0.27,0.93
				s0.22-0.74,0.26-0.91l0.81-2.63c0.02-0.05,0.03-0.11,0.11-0.11h0.32v5.31c0,0.1,0,0.1-0.43,0.1l0.02-2.24l0.07-2.18l-0.58,1.93
				l-0.45,1.32c-0.02,0.05-0.05,0.07-0.08,0.07h-0.2l-0.43-1.38c-0.03-0.08-0.39-1.28-0.58-1.9c0.02,0.37,0.07,1.72,0.08,2.1
				l0.01,2.19c0,0.1-0.01,0.1-0.42,0.1V593.36z"/>
			<path class="st103" d="M133.56,593.47c0-0.22,0.02-0.22,0.43-0.22v5.31c0,0.1-0.01,0.1-0.43,0.1V593.47z"/>
			<path class="st103" d="M136.18,596.5c-0.08-0.2-0.7-1.77-0.94-2.42c0.02,0.57,0.03,2.44,0.03,2.6v1.9c0,0.1,0,0.1-0.42,0.1v-5.31
				c0-0.08,0.03-0.11,0.1-0.11h0.3l0.93,2.13c0.08,0.24,0.73,1.86,0.96,2.44c-0.03-0.46-0.04-2.45-0.04-2.64v-1.83
				c0-0.11,0.01-0.11,0.43-0.11v5.31c0,0.06-0.04,0.1-0.1,0.1h-0.29L136.18,596.5z"/>
		</g>
		<g>
			<path class="st103" d="M193.82,593.39c0-0.12,0.06-0.13,0.13-0.13h0.46l0.73,2.34c0.09,0.3,0.23,0.81,0.25,0.87
				c0.01-0.03,0.13-0.56,0.22-0.84l0.68-2.23c0.02-0.08,0.05-0.13,0.12-0.13h0.51v5.29c0,0.12,0,0.12-0.64,0.12l0.02-1.88
				c0.02-0.74,0.12-2.04,0.14-2.28c-0.16,0.58-0.43,1.55-0.5,1.73l-0.41,1.18c-0.02,0.05-0.05,0.06-0.09,0.06h-0.27l-0.4-1.24
				c-0.06-0.17-0.33-1.15-0.5-1.75v0.01c0,0,0.14,1.43,0.15,2.26l0.02,1.79c0,0.12-0.04,0.12-0.63,0.12V593.39z"/>
			<path class="st103" d="M199.63,597.29h-1.33l-0.3,1.27c-0.02,0.08-0.05,0.12-0.29,0.12c-0.09,0-0.25-0.01-0.39-0.02l1.38-5.32
				c0.02-0.08,0.1-0.11,0.24-0.11c0.11,0,0.22,0.01,0.29,0.02l1.38,5.3c0.02,0.08-0.02,0.13-0.27,0.13c-0.09,0-0.22,0-0.37-0.02
				L199.63,597.29z M198.44,596.72h1.07l-0.26-1.1c-0.12-0.51-0.23-1.11-0.27-1.49c-0.05,0.37-0.16,0.97-0.27,1.49L198.44,596.72z"
				/>
			<path class="st103" d="M202.73,595.82l1.11,2.74c0.04,0.07,0.02,0.11-0.06,0.11h-0.69l-0.42-1.04c-0.16-0.41-0.32-0.85-0.41-1.13
				c-0.09,0.27-0.25,0.71-0.43,1.13l-0.42,0.97c-0.04,0.06-0.07,0.08-0.15,0.08h-0.54l1.18-2.8l-0.97-2.51
				c-0.04-0.11,0-0.11,0.74-0.11l0.31,0.87c0.16,0.44,0.3,0.9,0.38,1.16c0.08-0.25,0.22-0.71,0.39-1.16l0.29-0.77
				c0.03-0.1,0.02-0.1,0.68-0.1L202.73,595.82z"/>
		</g>
	</g>
</g>
</svg>
